<?xml version="1.0" encoding="utf-8"?>
<!-- Generator: Adobe Illustrator 17.1.0, SVG Export Plug-In . SVG Version: 6.00 Build 0)  -->
<!DOCTYPE svg PUBLIC "-//W3C//DTD SVG 1.1//EN" "http://www.w3.org/Graphics/SVG/1.1/DTD/svg11.dtd">
<svg version="1.1" id="Layer_1" xmlns="http://www.w3.org/2000/svg" xmlns:xlink="http://www.w3.org/1999/xlink" x="0px" y="0px"
	 viewBox="0 0 301.719 287.802" enable-background="new 0 0 301.719 287.802" xml:space="preserve">
<linearGradient id="SVGID_1_" gradientUnits="userSpaceOnUse" x1="151.7581" y1="267.8485" x2="151.7581" y2="18.7863" gradientTransform="matrix(1 -0.0051 0.0051 1 -0.7328 0.7721)">
	<stop  offset="0.0374" style="stop-color:#FFFFFF;stop-opacity:0.9"/>
	<stop  offset="0.9429" style="stop-color:#2B2B2C"/>
</linearGradient>
<linearGradient id="SVGID_2_" gradientUnits="userSpaceOnUse" x1="20.7326" y1="143.3174" x2="282.7835" y2="143.3174" gradientTransform="matrix(1 -0.0051 0.0051 1 -0.7328 0.7721)">
	<stop  offset="0.1329" style="stop-color:#FFFFFF"/>
	<stop  offset="0.7103" style="stop-color:#000000"/>
</linearGradient>
<path fill="url(#SVGID_1_)" stroke="url(#SVGID_2_)" stroke-miterlimit="10" d="M38.018,266.953
	c-8.96-0.012-16.218-4.516-16.21-10.06l0.314-227.518c0.008-5.544,7.277-10.028,16.238-10.015l227.133,0.313
	c8.96,0.012,16.218,4.516,16.21,10.06l-0.314,227.518c-0.008,5.544-7.277,10.028-16.238,10.015L38.018,266.953z"/>
<linearGradient id="SVGID_3_" gradientUnits="userSpaceOnUse" x1="-0.6714" y1="143.9008" x2="302.39" y2="143.9008" gradientTransform="matrix(1 -0.0051 0.0051 1 -0.7328 0.7721)">
	<stop  offset="0.1905" style="stop-color:#FFFFFF;stop-opacity:0.9"/>
	<stop  offset="0.6225" style="stop-color:#2B2B2C"/>
</linearGradient>
<path fill="url(#SVGID_3_)" d="M18.819,287.438C8.416,287.423-0.009,282.195,0,275.759L0.364,11.627
	C0.373,5.191,8.813-0.014,19.215,0L282.9,0.364c10.402,0.014,18.827,5.243,18.819,11.679l-0.364,264.132
	c-0.009,6.436-8.449,11.641-18.851,11.627L18.819,287.438z"/>
<linearGradient id="SVGID_4_" gradientUnits="userSpaceOnUse" x1="151.7586" y1="277.8489" x2="151.7586" y2="8.7854" gradientTransform="matrix(1 -0.0051 0.0051 1 -0.7328 0.7721)">
	<stop  offset="0.1905" style="stop-color:#FFFFFF;stop-opacity:0.9"/>
	<stop  offset="0.6225" style="stop-color:#2B2B2C"/>
</linearGradient>
<path fill="url(#SVGID_4_)" d="M38.004,276.954c-14.951-0.022-26.213-8.652-26.197-20.076l0.314-227.518
	C12.136,18.034,23.32,9.435,38.135,9.359l227.37,0.313c14.949,0.02,26.212,8.65,26.199,20.073l-0.314,227.518
	c-0.016,11.328-11.201,19.927-26.016,20.002L38.004,276.954z"/>
<linearGradient id="SVGID_5_" gradientUnits="userSpaceOnUse" x1="151.7581" y1="267.8485" x2="151.7581" y2="18.7863" gradientTransform="matrix(1 -0.0051 0.0051 1 -0.7328 0.7721)">
	<stop  offset="0" style="stop-color:#FFFFFF;stop-opacity:0.9"/>
	<stop  offset="1" style="stop-color:#2B2B2C"/>
</linearGradient>
<path fill="url(#SVGID_5_)" d="M38.018,266.953c-8.96-0.012-16.218-4.516-16.21-10.06l0.314-227.518
	c0.008-5.544,7.277-10.028,16.238-10.015l227.133,0.313c8.96,0.012,16.218,4.516,16.21,10.06l-0.314,227.518
	c-0.008,5.544-7.277,10.028-16.238,10.015L38.018,266.953z"/>
<path fill="#FFFFFF" d="M105.279,101.973c0,0,2.193,0.114,2.906-3.319s2.094-13.378,3.223-15.531
	c1.129-2.153,4.83-6.842,6.471-7.354c1.641-0.512,5.537-0.386,5.537-0.386s-1.231,2.643-1.699,4.081
	c-0.469,1.437-0.438,6.218-0.607,7.036c-0.17,0.817,7.449-2.206,8.273-2.887c0.824-0.682,5.059-2.19,5.059-2.19
	s1.28-0.416,0.676,1.675c-0.604,2.091-3.824,12.678-6.915,14.423c-3.091,1.746-9.975,2.875-10.981,6.077s-2.06,4.177-2.665,6.268
	c-0.604,2.091-2.946,4.334-2.045,6.567s2.372,2.538,3.735,4.186c1.363,1.647,6.536,6.301,11.552,10.071
	c5.016,3.769,17.156,9.358,24.886,9.086c7.73-0.272,14.278,4.327,25.512-0.504c11.234-4.831,5.888-3.723,11.453-3.421
	c5.564,0.302,5.66,0.663,7.798-0.599c2.138-1.262,8.177-3.248,8.896,1.505c0.719,4.753-2.908,8.264-2.069,9.972
	c0.839,1.709-2.558,1.646-2.169,3.878c0.389,2.232,0.222,8.166,0.222,8.166s3.159-3.096,4.874-4.786
	c1.715-1.69,5.5-4.315,6.175-2.641c0.676,1.675,2.196,4.207,2.196,4.207s1.265-2.807,3.143-4.463s7.273-0.537,11.956,4.016
	c4.682,4.553,4.143,6.328,9.805,6.985s5.627,0.821,6.331,3.184c0.703,2.363,2.017,1.783,4.035,3.566s0.855,4.099,2.77,6.373
	c1.916,2.273,0.793,3.575-3.418,1.678c-4.21-1.897-8.544-4.842-13.335-8.053c-4.79-3.211-11.694-8.565-13.77-6.779
	s-4.331,1.148-4.13,5.111c0.201,3.964,0.855,4.099,3.193,6.801c2.338,2.702,2.483,5.29,1.974,7.742
	c-0.509,2.452,0.207,3.112,0.679,5.768c0.472,2.656,0.617,5.244-2.088,3.489c-2.705-1.755-9.22-6.517-9.926-12.973
	s-2.261-8.825-3.174-9.355c-0.913-0.531-0.136,0.654-3.695,3.837c-3.559,3.183-8.76,6.879-11.015,6.24
	c-2.255-0.638-0.999,2.35-6.965,3.159c-5.965,0.808-7.912,2.792-11.777-1.591s-6.03-3.809-8.776-4.549
	c-2.745-0.74-5.25,1.468-17.714-0.095c-12.465-1.563-40.367-10.082-48.532-17.574s-9.282-7.042-17.403-11.455
	s-8.859-6.613-13.162-4.777s-10.265,1.645-12.942,0.578c-1.467-0.585-1.312-3.268-3.351-2.819c-3.189,0.702-5.155-4.403-5.155-4.403
	s3.927-4.258,11.478-0.37c1.66,0.855,5.79,0.86,7.199,0.641c1.41-0.219-5.548-2.548-6.692-2.785c-1.144-0.237-6.398-1.4-2.502-4.84
	c2.708-2.39,6.239-0.321,8.922-0.105s9.276,2.96,16.325,1.859c7.049-1.101,4.067-0.697,4.067-0.697s1.354-1.595,3.553-2.332
	s-0.287-1.083-3.606-3.988c-3.319-2.906-5.253-2.625-5.595-5.083s-1.018-3.313-1.579-3.072c-0.562,0.241,0.466-1.422,1.453-2.07
	c0.987-0.648,6.764-7.122,9.29-7.792c2.526-0.669,4.963-2.551,6.046-2.838S103.518,102.829,105.279,101.973z"/>
<linearGradient id="SVGID_6_" gradientUnits="userSpaceOnUse" x1="45.0142" y1="133.5716" x2="257.9413" y2="133.5716" gradientTransform="matrix(1 -0.0051 0.0051 1 -0.7328 0.7721)">
	<stop  offset="0.163" style="stop-color:#FFFFFF;stop-opacity:0.9"/>
	<stop  offset="0.4075" style="stop-color:#F0F1F1;stop-opacity:0.9211"/>
	<stop  offset="1" style="stop-color:#2B2B2C"/>
</linearGradient>
<path fill="url(#SVGID_6_)" d="M224.173,195.144c-1.095,0.006-2.212-0.373-3.418-1.154c-3.954-2.565-10.714-8.003-11.546-15.601
	c-0.158-1.442-0.353-2.602-0.557-3.529c-0.108,0.099-0.219,0.2-0.332,0.302c-3.01,2.691-8.675,7.208-12.812,7.23
	c-0.079,0-0.158,0-0.237-0.003c-1.32,1.341-3.19,2.56-6.848,3.056c-1.241,0.167-2.284,0.392-3.293,0.608
	c-1.371,0.294-2.665,0.572-4.004,0.579c-2.869,0.015-5.233-1.208-7.663-3.964c-2.237-2.536-3.3-2.727-5.062-3.042
	c-0.578-0.103-1.233-0.22-1.95-0.414c-0.058-0.015-0.15-0.033-0.347-0.032c-0.397,0.002-0.975,0.078-1.706,0.174
	c-1.43,0.188-3.387,0.446-6.25,0.461c-2.67,0.014-5.588-0.183-8.923-0.601c-12.354-1.55-41.5-10.218-50.517-18.493
	c-5.906-5.419-7.661-6.306-11.9-8.45c-1.34-0.678-2.859-1.446-4.789-2.495c-2.35-1.277-4.085-2.362-5.479-3.234
	c-1.57-0.983-2.811-1.759-3.33-1.756c-0.173,0.001-0.527,0.064-1.222,0.361c-2.487,1.061-5.624,1.654-8.834,1.671
	c-2.67,0.014-5.104-0.363-6.854-1.06c-1.453-0.579-2.274-1.669-2.772-2.499c-4.945-0.11-7.329-5.652-7.761-6.774l-0.804-2.089
	l1.518-1.645c0.278-0.302,2.709-2.8,7.13-3.131c0.122-1.305,0.785-2.863,2.617-4.481c1.524-1.345,3.372-2.032,5.493-2.043
	c1.581-0.008,3.017,0.352,4.285,0.67c0.702,0.176,1.366,0.342,1.815,0.378c1.051,0.084,2.228,0.374,3.719,0.741
	c2.505,0.616,5.621,1.382,8.969,1.365c0.967-0.005,1.907-0.078,2.793-0.216c1.125-0.176,1.967-0.309,2.597-0.41
	c-0.131-0.11-0.264-0.224-0.398-0.341c-1.05-0.918-1.934-1.448-2.715-1.916c-1.532-0.917-3.629-2.172-4.075-5.38
	c-0.027-0.198-0.056-0.369-0.084-0.517c-0.718-0.457-1.27-1.165-1.531-2.032c-0.999-3.312,3.037-6.072,3.079-6.099
	c-0.04,0.027-0.091,0.059-0.146,0.104c0.218-0.178,0.946-0.895,1.53-1.473c3.546-3.5,6.457-6.23,8.959-6.893
	c1.078-0.286,2.337-1,3.349-1.574c1.017-0.576,1.819-1.032,2.698-1.264c0.395-0.105,0.82-0.157,1.299-0.159
	c0.773-0.004,1.671,0.123,2.71,0.269c1.024,0.145,2.184,0.308,3.006,0.304c0.15-0.001,0.253-0.007,0.317-0.013l0.641-0.311l0.013,0
	c0.035-0.106,0.072-0.24,0.106-0.407c0.193-0.934,0.461-2.502,0.743-4.162c1.057-6.208,1.824-10.419,2.816-12.31
	c0.502-0.959,4.939-7.979,8.586-9.118c0.432-0.135,1.745-0.544,5.32-0.562c0.825-0.004,1.405,0.015,1.405,0.015l5.442,0.181
	l-2.295,4.937c-0.441,0.948-1.249,2.784-1.54,3.678c-0.054,0.208-0.1,0.626-0.14,1.13c0.974-0.392,1.847-0.776,2.258-1.007
	c0.482-0.364,1.78-1.178,5.975-2.672L133.326,78c0.29-0.094,0.755-0.207,1.329-0.21c1.337-0.007,2.557,0.589,3.347,1.634
	c0.922,1.221,1.115,2.794,0.571,4.674c-1.842,6.378-4.83,14.428-8.603,16.558c-1.258,0.711-2.777,1.256-4.384,1.833
	c-1.528,0.549-4.346,1.561-4.969,2.304c-0.623,1.952-1.267,3.203-1.787,4.212c-0.383,0.742-0.636,1.233-0.817,1.861
	c-0.318,1.099-0.854,2.064-1.328,2.916c-0.259,0.465-0.634,1.139-0.749,1.502c0.184,0.376,0.408,0.569,1.046,1.089
	c0.581,0.473,1.303,1.063,2.037,1.95c1.104,1.333,6.031,5.798,10.941,9.488c4.574,3.437,15.51,8.407,22.235,8.373
	c0.122-0.001,0.242-0.003,0.361-0.007c0.228-0.008,0.454-0.013,0.68-0.014c2.686-0.014,5.179,0.441,7.592,0.882
	c2.418,0.441,4.702,0.858,7.207,0.846c2.94-0.015,5.717-0.627,8.739-1.927c3.689-1.587,5.492-2.49,6.571-3.03
	c1.161-0.582,2-1.002,3.219-1.009c0.464-0.002,0.847,0.058,1.216,0.116c0.413,0.065,0.979,0.155,2.065,0.214
	c1.139,0.062,2.053,0.126,2.805,0.179c0.897,0.063,1.545,0.108,1.968,0.106c0.226-0.001,0.294-0.016,0.295-0.016
	c0.032-0.009,0.178-0.063,0.705-0.373c1.552-0.917,4.311-1.992,6.975-2.006c3.939-0.02,6.739,2.307,7.309,6.073
	c0.564,3.735-0.759,6.777-1.635,8.79c-0.139,0.321-0.313,0.72-0.426,1.017c0.223,0.805,0.305,1.891-0.246,3.036
	c1.44-0.96,3.216-1.844,4.881-1.853c1.395-0.007,2.636,0.558,3.477,1.533c0.124-0.12,0.251-0.238,0.381-0.352
	c1.195-1.053,2.832-1.615,4.733-1.625c3.855-0.02,8.384,2.133,12.114,5.759c1.463,1.423,2.449,2.584,3.24,3.517
	c1.666,1.963,1.84,2.169,4.471,2.474c5.449,0.633,7.936,0.922,9.336,5.63l0.023,0.076c0.065,0.032,0.132,0.064,0.202,0.099
	c0.659,0.332,1.655,0.833,2.775,1.823c1.97,1.741,2.348,3.79,2.598,5.146c0.172,0.93,0.252,1.259,0.54,1.604
	c2.305,2.734,1.837,4.901,1.352,5.95c-0.736,1.594-2.34,2.551-4.29,2.561c-1.316,0.007-2.858-0.396-4.71-1.231
	c-4.318-1.945-8.675-4.867-13.288-7.962l-0.572-0.384c-0.743-0.498-1.536-1.046-2.353-1.612c-2.187-1.513-6.086-4.211-7.876-4.804
	c-0.672,0.463-1.299,0.774-1.794,1.019c-0.088,0.043-0.189,0.093-0.284,0.142c-0.002,0.106-0.002,0.243,0.007,0.415
	c0.109,2.147,0.109,2.147,1.408,3.597c0.273,0.304,0.576,0.642,0.912,1.03c2.727,3.151,3.635,6.693,2.777,10.83
	c-0.174,0.839-0.124,1.026,0.157,2.066c0.163,0.602,0.365,1.35,0.541,2.341c0.406,2.282,0.709,4.874-0.838,6.731
	C226.689,194.569,225.473,195.138,224.173,195.144z"/>
<path fill="#FFFFFF" d="M105.279,101.973c0,0,2.193,0.114,2.906-3.319s2.094-13.378,3.223-15.531
	c1.129-2.153,4.83-6.842,6.471-7.354c1.641-0.512,5.537-0.386,5.537-0.386s-1.231,2.643-1.699,4.081
	c-0.469,1.437-0.438,6.218-0.607,7.036c-0.17,0.817,7.449-2.206,8.273-2.887c0.824-0.682,5.059-2.19,5.059-2.19
	s1.28-0.416,0.676,1.675c-0.604,2.091-3.824,12.678-6.915,14.423c-3.091,1.746-9.975,2.875-10.981,6.077s-2.06,4.177-2.665,6.268
	c-0.604,2.091-2.946,4.334-2.045,6.567s2.372,2.538,3.735,4.186c1.363,1.647,6.536,6.301,11.552,10.071
	c5.016,3.769,17.156,9.358,24.886,9.086c7.73-0.272,14.278,4.327,25.512-0.504c11.234-4.831,5.888-3.723,11.453-3.421
	c5.564,0.302,5.66,0.663,7.798-0.599c2.138-1.262,8.177-3.248,8.896,1.505c0.719,4.753-2.908,8.264-2.069,9.972
	c0.839,1.709-2.558,1.646-2.169,3.878c0.389,2.232,0.222,8.166,0.222,8.166s3.159-3.096,4.874-4.786
	c1.715-1.69,5.5-4.315,6.175-2.641c0.676,1.675,2.196,4.207,2.196,4.207s1.265-2.807,3.143-4.463s7.273-0.537,11.956,4.016
	c4.682,4.553,4.143,6.328,9.805,6.985s5.627,0.821,6.331,3.184c0.703,2.363,2.017,1.783,4.035,3.566s0.855,4.099,2.77,6.373
	c1.916,2.273,0.793,3.575-3.418,1.678c-4.21-1.897-8.544-4.842-13.335-8.053c-4.79-3.211-11.694-8.565-13.77-6.779
	s-4.331,1.148-4.13,5.111c0.201,3.964,0.855,4.099,3.193,6.801c2.338,2.702,2.483,5.29,1.974,7.742
	c-0.509,2.452,0.207,3.112,0.679,5.768c0.472,2.656,0.617,5.244-2.088,3.489c-2.705-1.755-9.22-6.517-9.926-12.973
	s-2.261-8.825-3.174-9.355c-0.913-0.531-0.136,0.654-3.695,3.837c-3.559,3.183-8.76,6.879-11.015,6.24
	c-2.255-0.638-0.999,2.35-6.965,3.159c-5.965,0.808-7.912,2.792-11.777-1.591s-6.03-3.809-8.776-4.549
	c-2.745-0.74-5.25,1.468-17.714-0.095c-12.465-1.563-40.367-10.082-48.532-17.574s-9.282-7.042-17.403-11.455
	s-8.859-6.613-13.162-4.777s-10.265,1.645-12.942,0.578c-1.467-0.585-1.312-3.268-3.351-2.819c-3.189,0.702-5.155-4.403-5.155-4.403
	s3.927-4.258,11.478-0.37c1.66,0.855,5.79,0.86,7.199,0.641c1.41-0.219-5.548-2.548-6.692-2.785c-1.144-0.237-6.398-1.4-2.502-4.84
	c2.708-2.39,6.239-0.321,8.922-0.105s9.276,2.96,16.325,1.859c7.049-1.101,4.067-0.697,4.067-0.697s1.354-1.595,3.553-2.332
	s-0.287-1.083-3.606-3.988c-3.319-2.906-5.253-2.625-5.595-5.083s-1.018-3.313-1.579-3.072c-0.562,0.241,0.466-1.422,1.453-2.07
	c0.987-0.648,6.764-7.122,9.29-7.792c2.526-0.669,4.963-2.551,6.046-2.838S103.518,102.829,105.279,101.973z"/>
</svg>
