<?xml version="1.0" encoding="utf-8"?>
<!-- Generator: Adobe Illustrator 17.1.0, SVG Export Plug-In . SVG Version: 6.00 Build 0)  -->
<!DOCTYPE svg PUBLIC "-//W3C//DTD SVG 1.1//EN" "http://www.w3.org/Graphics/SVG/1.1/DTD/svg11.dtd">
<svg version="1.1" id="Layer_1" xmlns="http://www.w3.org/2000/svg" xmlns:xlink="http://www.w3.org/1999/xlink" x="0px" y="0px"
	 viewBox="0 0 612 1392" enable-background="new 0 0 612 1392" xml:space="preserve">
<g>
	<g>
		<g>
			<g>
				<g>
					<path d="M197.3,1270.7c-2.4,1.2-1,1.7-1.2,2.1C199.9,1270.4,197.1,1270.5,197.3,1270.7z"/>
					<path d="M231.5,1237.8l0.1,1c0,0,0.1-0.5,0.3-1.1c0.2-0.7,0.5-1.6,0.6-2.5c0.2-0.9,0.3-1.8,0.4-2.5c0.1-0.7,0.1-1.1,0.1-1.1
						C233.2,1231.5,231.7,1237.9,231.5,1237.8z"/>
					<path d="M225.6,1193.9c0.6,2.3,3.2,5.5,5.4,9.7c2.2,4.1,3.8,9.3,3.7,13.4c0,0-0.3,1.4-0.4,1.4c0,0,0.4,0.9,0.8,1.8
						c0.4,0.9,0.7,1.9,0.7,1.9c0.2-5.1-1-11.1-3.1-16.2C230.7,1200.9,227.7,1196.7,225.6,1193.9z"/>
					<path d="M208.3,1175.6c0.5,0.7-0.8,0.2-0.9,0.2c-0.1,0,0.9,0.2,6,2.8c-0.5-0.4-0.6-0.5-0.8-0.7
						C211.7,1177.4,210.4,1176.7,208.3,1175.6z"/>
					<path d="M212.6,1177.9C216.9,1180.4,210,1175.7,212.6,1177.9L212.6,1177.9z"/>
					<path d="M191.3,1169.9c0,0,1.6,0.2,3.2,0.5c1.6,0.3,3.2,0.6,3.2,0.6c-1.1-0.9-6.7-2.5-4.5-2.3c-3.3-0.7-4.6-0.7-4.7-0.5
						C188.4,1168.6,189.6,1169.1,191.3,1169.9z"/>
					<path d="M185.1,1170.1c0,0,0.8,0.1,1.6,0.2c0.8,0.1,1.6,0.2,1.6,0.2C187.9,1170.1,187,1169.8,185.1,1170.1z"/>
					<path d="M195.3,1171.6c0,0-1.7-0.3-3.5-0.7c-0.9-0.1-1.7-0.3-2.4-0.4c-0.7-0.1-1.1-0.1-1.1-0.1c0.8,0.5,0.8,1.1,3.2,0.5
						C190.9,1171.4,192.3,1171.1,195.3,1171.6z"/>
					<path d="M199,1173.1c3.2,1.6,7.3,3.6,1.2,1.9c5.7,2,8.1,3,7.9,2.5C207.8,1177,204.8,1175,199,1173.1z"/>
					<path d="M222.6,1193.5c0,0,0.7,1,1.3,1.9c0.6,1,1.2,2,1.2,2s0.7,0.7,1.4,1.4c0.7,0.7,1.4,1.5,1.4,1.5c-0.3-0.4-0.7-1.1-1.3-1.8
						c-0.5-0.8-1.1-1.7-1.6-2.4C223.8,1194.4,222.7,1193.2,222.6,1193.5z"/>
					<path d="M184.6,1157c-0.3-0.4-1.6,1-2.2,1.2c0,0-0.2,0.9-0.3,1.7c-0.1,0.4-0.1,0.8-0.1,1.2c0,0.3,0,0.5,0,0.5
						C182.5,1160,183.8,1157,184.6,1157z"/>
					<path d="M182.4,1158.2c0,0,0.1-0.3,0.2-0.8c0.1-0.5,0.3-1.1,0.5-1.8c0.2-0.6,0.4-1.3,0.6-1.8c0.2-0.5,0.3-0.8,0.3-0.8
						c-0.3,0.5-0.5,1-0.8,1.4c-0.2,0.4-0.3,0.8-0.5,1.2c-0.3,0.7-0.4,1.2-0.5,1.6C182,1158.1,182.1,1158.3,182.4,1158.2z"/>
					<path d="M183.6,1172c0,0,2.8,0.1,5.7,0.4c2.8,0.3,5.7,0.7,5.7,0.7s-3.4-0.6-6.7-1c-1.7-0.2-3.4-0.3-4.6-0.4c-0.8,0-1.3,0-1.3,0
						L183.6,1172z"/>
					<path d="M196.7,1143.5c0,0-0.5,0.6-1,1.2c-0.5,0.6-1,1.1-1,1.1s0.9-1,1.8-1.9c1-0.9,2.1-1.8,2.1-1.8L196.7,1143.5z"/>
					<path d="M210.5,1137.9c-1.2,0.8-0.2,0.8,0.8,0.8c0.9,0,2-0.1,0.6,0.6c1.1-0.4,2.2-0.9,3.2-1.3c1-0.4,2-0.9,3-1.5
						c1-0.5,1.9-1,2.8-1.6c0.9-0.6,1.8-1.2,2.6-1.7c-0.9,0.5-1.9,1.1-2.9,1.5c-1,0.4-2,0.8-3.1,1.2c-1.1,0.4-2.2,0.7-3.3,1
						C213,1137.4,211.8,1137.7,210.5,1137.9z"/>
					<path d="M228.9,1129.3c-1.7,1.3-3.4,2.7-5.5,4C225.4,1132.2,227.3,1130.8,228.9,1129.3z"/>
					<path d="M189.4,1146c0.2-0.1,0.6-0.1,1.2-0.3c0.6-0.2,1.4-0.6,2.5-1.2c0,0-0.5,0-1.1,0.1c-0.6,0.1-1.1,0.1-1.1,0.1
						C190.4,1145.1,189.9,1145.5,189.4,1146z"/>
					<path d="M190.8,1144.7L190.8,1144.7c1.6-1.3,3.2-2,3.8-2.4c-0.3,0.1-0.7,0.4-1.4,0.8c-0.3,0.2-0.8,0.4-1.1,0.7
						C191.7,1144,191.3,1144.3,190.8,1144.7z"/>
					<path d="M189,1146.4c0.1-0.1,0.2-0.2,0.4-0.4C189.2,1146,189.1,1146.1,189,1146.4z"/>
					<path d="M179,1166c0-0.1-0.1-0.2-0.1-0.4c0-0.2-0.1-0.4-0.1-0.7c0-0.5-0.1-1-0.1-1.5c-0.1-1,0-2-0.1-2.6
						c-0.1-1.3-0.5-1.6-1.7,1.8c0.3,1.3,0.7,0.9,1,0.9c0.2,0,0.4,0.1,0.5,0.5c0.1,0.2,0.2,0.5,0.2,0.8
						C178.8,1165.1,178.9,1165.8,179,1166z"/>
					<path d="M186.2,1147.3c0,0-0.2,0.3-0.6,0.7c-0.3,0.4-0.8,1-1.3,1.6c-0.5,0.6-0.8,1.2-1.2,1.7c-0.3,0.5-0.5,0.8-0.5,0.8
						c0.3,0,1.2-0.7,0.7,0.9c0,0,0.1-0.4,0.4-0.9c0.2-0.5,0.6-1.3,0.9-2c0.4-0.7,0.8-1.4,1-1.9
						C186,1147.7,186.2,1147.3,186.2,1147.3z"/>
					<path d="M187.9,1144.9c0,0-0.4,0.6-0.9,1.2c-0.4,0.6-0.8,1.2-0.8,1.2s0.4-0.4,0.7-0.8c0.4-0.4,0.8-0.7,0.8-0.7L187.9,1144.9z"
						/>
					<path d="M216.5,1134.2c2.8-1.6,6.2-3.1,9.7-5.2c-2,1.1-4,1.9-6.1,2.8c-2,0.8-4,1.6-5.9,2.2
						C213.8,1134.5,212.3,1135.8,216.5,1134.2z"/>
					<path d="M202.5,1138.7c0.2-0.1,0.4-0.2,0.6-0.3C202.6,1138.4,202.4,1138.5,202.5,1138.7z"/>
					<path d="M252.6,1100c-0.2,0.2-0.3,0.3-0.5,0.4c0,0.1,0.1,0.1,0.1,0.2L252.6,1100z"/>
					<path d="M213.4,1134c-3,0.8-4.5,1.6-6,2.5c1-0.4,2.1-0.8,3.2-1.2c1.1-0.4,2.3-0.8,3.6-1.3
						C214.3,1133.7,214.3,1133.6,213.4,1134z"/>
					<path d="M237.7,1121.8c-1.5,1-3,2.2-4.8,3.3C234.5,1124.3,237.5,1122.4,237.7,1121.8z"/>
					<path d="M204.1,1138.4c-0.1,0.1-0.2,0.1-0.4,0.2C204.6,1138.5,204.5,1138.4,204.1,1138.4z"/>
					<path d="M204.1,1138.4c1.3-0.6,2.3-1.3,3.3-1.9c-1.7,0.7-3.1,1.3-4.3,1.9C203.4,1138.3,203.8,1138.4,204.1,1138.4z"/>
					<path d="M250.6,1086.6c0.8,0.9-1.3,8.6-5.8,13.8c-1.3,3-0.8,4.1,0.8,4c1.6-0.2,4.2-1.7,6.5-3.9c-0.3-0.4-0.6-0.6,1.9-7.3
						c-0.8,1-2.8,4.4-4.6,6.7c-1.7,2.3-3.1,3.6-2,0.8c3.9-8.3,3.8-6.5,6.3-10.3c-1.4,1.5-0.6-1.4,0-4.5c0.6-3.1,1.1-6.5-0.2-5.9
						c0,0-0.5,1.9-1,3.8c-0.5,1.9-1.2,3.8-1.2,3.8C251.1,1087.5,251.7,1084.7,250.6,1086.6z"/>
					<path d="M244.4,1112c0,0-0.4,0.6-0.9,1.2c-0.5,0.6-0.9,1.2-0.9,1.2c0.6-0.6,1.1-1.2,1.7-1.8c0.5-0.6,1.1-1.2,1.7-1.7
						c1.2-1.2,2.4-2.5,4-4.1c2.2-4.6,2.3-5.7,2.1-6.2c0,0-0.5,0.8-1.1,2c-0.7,1.2-1.7,2.8-2.7,4.3c-2,3.1-4.4,6-4.4,6
						s0.1-0.2,0.3-0.5C244.3,1112.2,244.4,1112,244.4,1112z"/>
					<path d="M232.8,1124.2c0.6-1.2,2.2-3.1,3-4.5c0.8-1.4,1-2.2-1-1.1c-3.2,3-4.3,4-5,4.9c-0.7,0.9-1.1,1.5-3.1,3.3
						c3-2,4.2-3,4.6-3.2c0.4-0.2,0,0.3-0.6,0.8c-0.5,0.6-1.2,1.2-1.1,1.4c0.1,0.2,0.9-0.1,3.1-1.6c-1.1,1-2.1,1.9-3.2,2.6
						c-1.1,0.8-2.1,1.5-3.2,2.2c1.2-0.6,2.4-1.3,3.5-1.9c1.1-0.6,2.2-1.3,3.2-2c-0.1,0.1-0.2,0.1-0.3,0.2l-0.1,0v0
						c-0.6,0.3-0.8,0.3-0.2,0c0,0,0.2-0.2,0.2-0.2C232.5,1124.8,232.7,1124.5,232.8,1124.2c3.5-2.5,0.8-0.1-0.3,0.8
						c0,0.1-0.1,0.2,0,0.2c0,0,0,0,0.1,0c0,0,0.7-0.6,1.8-1.5c1-1,2.4-2.2,3.6-3.6c2.5-2.7,4.7-5.6,4.7-5.6
						C240.5,1116.7,238.2,1119.7,232.8,1124.2z"/>
					<path d="M176.1,1155.5c0.2-0.3,0.3-0.3,0.4-0.3C176.7,1154.3,176.7,1154,176.1,1155.5z"/>
					<path d="M178.9,1150.9c-0.3,0.9-0.3,1.8-1.5,4.5c-1.2,2.3-0.5-0.2-0.9-0.2c-0.2,0.9-0.5,2.5-0.4,3.2c0.1,0.7,0.3,0.4,1.5-2.1
						l0.1-0.9c1.1-2.3,2.8-4.7,4.3-6.2c1.5-1.5,2.7-2.3,2.5-1.9C182.9,1147.8,181.5,1148.3,178.9,1150.9z"/>
					<path d="M202.8,1135l10.3-4.1c0,0-1.4,0.2-2.9,0.5c-1.4,0.2-2.8,0.4-2.8,0.4l0.5,0.5C201.8,1134,203.4,1134.3,202.8,1135z"/>
					<path d="M253.7,1099.1c0,0,0.1,0.5,0.2,1c0.1,0.5,0.2,1,0.2,1s0.1-0.4,0.3-1.1c0.1-0.6,0.3-1.5,0.5-2.4
						c0.4-1.7,0.7-3.4,0.7-3.4s-0.4,1.2-0.9,2.5C254.2,1097.8,253.7,1099.1,253.7,1099.1z"/>
					<path d="M259.8,1085.1l0.8,0.9c0,0,0.2-1,0.4-2c0.2-1,0.4-2,0.4-2s-0.4,0.8-0.8,1.5C260.2,1084.3,259.8,1085.1,259.8,1085.1z"
						/>
					<path d="M468.6,340.5l-0.5-3.2C468.3,338.8,468.5,339.8,468.6,340.5z"/>
					<path d="M470.2,363.9l0.6,0.5C470.4,363.4,470.2,363,470.2,363.9z"/>
					<path d="M317.7,745.4c3.1-3.7,7-7.6,5.7-7.6l-1.7,0.7C320.3,741.4,319,743.6,317.7,745.4z"/>
					<path d="M455.8,550.6c-0.4,0.3-0.8,0.6-1.1,0.8c-0.4,1.1-0.9,2.2-1.2,3.2C454.2,553.4,455,552.1,455.8,550.6z"/>
					<path d="M453.9,545c0,0,1-1.1,2.1-2.2c0.5-0.5,1-1.1,1.4-1.5c0.4-0.4,0.6-0.7,0.6-0.7C457.1,541.6,455.7,543,453.9,545z"/>
					<path d="M456.2,213.1l-1.7-3.6C455.3,215.4,455.5,212.7,456.2,213.1z"/>
					<path d="M266.3,936.6c0.2-4.1,0.2-7.3,0.1-10.1C266,931.4,265.2,935.4,266.3,936.6z"/>
					<path d="M481.9,348.9c-0.4-2-0.7-2.8-0.9-2.7C481.3,348.2,481.6,349.4,481.9,348.9z"/>
					<path d="M266,914.9c-0.1,0.7-0.1,1.4-0.2,2.1c0.3,2.9,0.5,5.9,0.6,9.5C266.7,922.9,266.9,918.8,266,914.9z"/>
					<path d="M428.5,127.8c-0.3-0.3-0.6-0.7-0.8-1C427.6,126.8,427.9,127.3,428.5,127.8z"/>
					<path d="M448.1,49.7c-0.2,1.2-0.3,3.3-0.5,5.2C447.8,53.9,447.9,52.4,448.1,49.7z"/>
					<path d="M271.6,1026.6C271.6,1029.7,271.8,1027.1,271.6,1026.6L271.6,1026.6z"/>
					<path d="M265.7,1041.2c0-0.7-0.2-1.2-0.4-1.3C265.5,1040.2,265.6,1040.7,265.7,1041.2z"/>
					<path d="M259.3,884.8c0-0.1,0-0.2,0-0.3C259,885.4,259,885.3,259.3,884.8z"/>
					<path d="M270.8,1031.2c0.2-1.2,0.5-2.5,0.6-4C271.3,1027.9,271.1,1029.1,270.8,1031.2z"/>
					<path d="M271.4,1030.6c-0.1,1.1-0.2,1.9-0.3,2.7C271.2,1033.8,271.4,1033.4,271.4,1030.6z"/>
					<path d="M271.8,1022.2c0,1.8-0.2,3.5-0.4,5.1c0.1-0.6,0.2-0.9,0.2-0.7C271.7,1025.6,271.7,1024.3,271.8,1022.2z"/>
					<path d="M474.1,82.8c-0.3,0.1-0.5,0.2-0.8,0.4c-0.7,0.6-1.2,0.9-1.5,1.1c-0.2,0.2-0.3,0.2-0.1,0.2c0.1-0.1,0.4-0.2,0.8-0.5
						C472.9,83.7,473.5,83.3,474.1,82.8z"/>
					<path d="M346,670.3c-0.1,0.1-0.1,0.2-0.1,0.3c0.1-0.1,0.2-0.3,0.3-0.4L346,670.3z"/>
					<path d="M351.1,660.4c-1.2,4.8-2.9,6.9-5,9.8l4.8-1.3L351.1,660.4z"/>
					<path d="M464.2,284.6c0,0-0.1,1.9-0.2,3.9c-0.1,1.9-0.2,3.9-0.2,3.9c-2.5-9.1-2.7-15.8-3.4-8.5c4.1,0.7,2.6,29.6,6.4,30.4
						l-0.4,5.1c-0.1-1.4-0.3-1.7-0.4-3.1c-1.1,9.9,3.2,7.1,3.6,19.8c0,4.4-0.3,7.5-0.9,4.6l1.6,9.7c0.1,2.9-0.6,2.2-0.7-0.6
						l1.3,14.9l-0.1-0.1c0.7,2.1,1.8,6.9,2.3,9.2c-0.4,3.8-0.5-1.9-0.9-0.9l1.3,8.3c-0.8,3.4-2.1-3.4-2.2-9.1
						c-3.4,7.9,1.2,6.8-0.2,23.7l-0.8-7.8c-1.9,5.1-0.9,11.2-1.8,20.1c0.6-2.1,2.5-17.9,3.9-8.9c-0.2,2.6-0.2,5.9,0.8,10.7
						c-1.3,0.1-0.8,4.8-0.5,10.8l-1.8-0.3c0.8,6.4,1.7,5.9,2.6,9.6c0.1,7.2-1.1,8.7-2.2,10.4c0,11.4,2-7.9,2.7,5.6
						c-0.5,9.5,0.4,16.1,1,27.3c-0.9,6.5-1-1.2-1.6,1.1c0,0,0.3,1.5,0.6,2.9c0.3,1.5,0.5,2.9,0.5,2.9c-0.1,1.4-0.5,0.9-0.7,0.7
						c0.1,4.9,1.8,0.5,1.5,8.2c0.4,0.6,0.3,1.8,0,3.5c-0.3,1.7-1,3.8-1.7,6.2c-1.5,4.7-3.2,10.1-3.4,14.9c-1.1,2.1-0.7-1.4-1.6-0.9
						c-1,6.3-1.8,8.9-2.4,11.3c-0.3,1.2-0.6,2.3-1,3.8c-0.4,1.5-0.8,3.3-1.6,5.9c0,0-1.3,1.9-2.7,3.6c-0.7,0.9-1.4,1.8-1.9,2.4
						c-0.6,0.6-0.9,1.1-0.9,1.1c2.4-2.4,2.7-1.6,2.1,0.6c-0.6,2.3-2.4,6-4.3,9.4c2-1.5,3.7-2.8,4.8-3.8c0,0-1.6,2.7-3.4,5.2
						c-0.9,1.3-1.8,2.5-2.5,3.5c-0.7,0.9-1.2,1.6-1.2,1.6c-1.2,0.9-0.8-0.4,0-2.4c-0.4,0.7-0.9,1.4-1.2,2c-3.5,2.8-2.6,0.4-1.3-2.5
						c1.2-0.9,2.5-1.7,3.7-2.6c0.5-1.5,1-3,1.2-4.1c0.2-1.1,0-1.9-0.6-2c-0.3,0.8-1.1,2-2,3.3c0.3-0.8,0.4-1.3,0-1.2
						c-0.4,0.2-0.8,1.4-1.8,3.2l-3.2,0.7l0.2,1c0,0-0.7,0.7-1.8,1.6c-1.1,1-2.5,2.3-4,3.5c-1.5,1.3-3,2.5-4.1,3.4
						c-1.2,0.9-1.9,1.5-1.9,1.5c-3.5,4.5-6.7,8.9-10.7,13.8c-2,2.4-4.2,5-6.6,7.8c-2.4,2.8-5.1,5.9-8.2,9.2c2.3-4.1-0.9-2.3-2-3.7
						c2.5-1.1,4.9-3.7,7.6-6.8c2.8-3.1,6-6.6,9.6-9.5c-3.8,3.1-3.6,1.8-2.8,0.7c0,0-2.9,3.1-5.8,6.2c-1.5,1.6-2.9,3.2-3.9,4.4
						c-1.1,1.2-1.8,2-1.8,2c-0.7-1.3-3.4,1.7-6.9,4.5c2.1-0.3,0.3,2.4-2.7,5.7c-3,3.3-6.7,7.7-8.7,10.5c-1-0.3-0.6-2.1,5.2-8.3
						c-3.9,2.8-5.3,5.6-6.6,8.4c-1.3,2.8-2.5,5.7-6.1,8.6c1.3-1.6,2.1-2.4,2.3-3.3c-2.5,4.2-10.2,13-9.1,10.4l1.2-1.6
						c-2.2,2.7-4.9,6-7.5,9.7c-1.3,1.9-2.7,3.8-4,5.7c-1.3,1.9-2.6,3.9-3.8,5.8c-2.4,3.7-4.5,7.3-5.9,10.1c-1.4,2.8-2.2,4.8-2,5.5
						c-0.3,0-1.4-3-1.3-4c0,0-0.4,1.5-1.1,3.8c-0.6,2.3-1.4,5.4-2.2,8.5c-0.8,3.1-1.5,6.2-2.1,8.5c-0.5,2.3-0.9,3.9-0.9,3.9
						c-0.6-2.9-8.9,1.7-4.1-8.5c-1.9,2.6-4.4,5.9-7.2,12.1c1.4-1.8,5.3-3.3,3.9-0.6c-6.1,6-4,4.3-10.7,12.2c2-2.7,2.9,2.1,0.2,6.6
						c0-0.9-2.9-1.2-2.2-3l-3.7,12.8c1.1-3.1-2-1.8-4.2,0.3c1.2-0.9-5.5,9.8-6.9,13l3.3-4.5c-7.4,12.6-3.1,14.8-10.1,27.5
						c0.3-1.8-1.4-5.7-5.2,0.6c-0.2,3.7-0.4,16.8-5.2,28.7l-1.9,1.8l-3.4,9.2c0.5-6.5,3.9-24.1,6.7-33.4c-3.2,4.5-1.7,0.8-5.4,8.2
						c-2.1,2.2,0.9-4.6,2.1-6.7c0,0-2.4,4.2-4.7,8.4c-2.3,4.2-4.7,8.4-4.7,8.4c2,0-4.9,14-3.2,14.1c0,0,0.5-1.2,1.1-3.1
						c0.7-1.8,1.7-4.3,2.6-6.7c1.9-4.9,3.9-9.7,3.9-9.7c2,0.1-1,13-7,25.2c-2.1,2.8-1.9-3.7-2.5-3.7c-0.2,1.9-4.3,12.3-5.2,13.3
						c0,0,0.3-1.4,0.7-2.9c0.4-1.4,0.7-2.8,0.7-2.8c-3.8,6.7-2.8,12.3-7.7,20.2c-0.6,1.5-2,3.5-3.1,5.3c-1.1,1.8-1.9,3.3-1.5,3.8
						c3.6-4.3,10.2-2.9,10.5,0.8c-0.2,0.5-2,4.2-4,8.1c-1.9,4-3.9,8.3-4.8,9.9c-1.5,2.3-1.9,0.2-2.3-2.1c-0.4-2.2-0.6-4.5-2-2.6
						c0.4,0.3,0.3,3.3,0.2,4.5c-1.3,3.1-1.2-1.7-2.8,5.3c1.5,1.6-3.4,14.3,0.8,3.7c-0.3,1.8-0.5,3.1-0.8,4.2
						c-0.2,1.1-0.5,2.1-0.7,3.1c-0.3,1-0.5,2-0.9,3.3c-0.3,1.3-0.6,2.8-0.9,4.9c0.8-1.2,1.5,0.8,2,3.9c0.1,0.8,0.2,1.6,0.3,2.5
						c0.1,0.9,0.3,1.8,0.4,2.8c0.2,1.9,0.3,3.8,0.3,5.6c-0.4-0.5-1.2,1.1-1.5,1.8c-0.9,7.1-1,12.6-1.4,18
						c-0.4,5.4-0.4,10.6-0.2,17.3c-0.4,1.2-0.8,7.7-1.7,5c0.4,1.9,1.2,3.6,1.5,7.7c-1.1,8.1-0.8-9.2-2.4-3
						c1.1,0.5,2.1,10.6,3.3,16.4c1.5-1.9-0.6-13.5-1.6-19.4c1.2-0.1,2.5,2.4,3.8,6.6c1.3,4.2,2.5,10.1,3.7,17
						c1.5,11-1.1,4.9-0.6,6.8c0.6,10.4,2,14.7,3.2,18.6c1.1,3.9,2,7.5,1.8,16.2c-1.2,7-2.9,0.5-3.9,2c-1.1-9,0.1-13.9-0.4-20
						c0,0,0,1.9-0.1,3.8c-0.1,1.9-0.1,3.8-0.1,3.8c-0.6-2.8-1.5-8.8-1.3-12.1c-0.2,1.5-0.1,4.4,0,8.2c0.1,3.8,0.4,8.5,0.7,13.5
						c0.4,10,0.8,21.4-0.1,29.4c0.4,2.8,0.6,7.8,1.4,5.5c0,0,0-1.3,0-2.5c0-1.3,0-2.5,0-2.5c0.7-2.3,1,0.1,1.3,2.3
						c0.2,2.2,0.4,4.2,0.8,0.9c0.5,6.9,1.2,14.8-0.9,24.4l-1.9,1.5c0.5-0.1,1.9-6.1,1.7-8.9c0.1,2.1-0.9,5.7-1.9,9.3
						c-1,3.7-1.9,7.3-1.3,9.7c0,0,0.7-1.6,1.3-3.2c0.6-1.6,1.2-3.3,1.2-3.3c-0.4,7-0.5,15.9-3.8,24.2c2.8-3.4,0.5-2,4-7.5
						c-1.9,2.3-0.3-3.1,0.8-8.2c1.1-5.1,1.9-9.8-0.1-5.8c3.4-5.9,2.8-10.7,5.6-18.8c-0.6,0.2-1.3,2.8-0.4-4.5
						c-0.1-0.3-0.3-1.1-0.4-1.6c0-0.2,0-0.3,0.1-0.5c0,0.1-0.1,0.3-0.1,0.4c-0.1-0.3-0.1-0.4,0,0.1c-0.4,1.7-0.8,3.1-1.2,3.6
						c-0.8-3.7-0.2-15.3-0.9-19.2c0.3-4.3,0.6,1.8,1.2-0.5c0,0-0.2-1.5-0.5-2.9c-0.2-1.5-0.5-2.9-0.5-2.9c1.2-0.6,1.7-11.4,2.7-1.3
						l-0.2-9.1c0.6-5.4,0.3-12.8-0.5-17.2c0-4.3-2.1-10.6-0.9-7l-1.9-14l0.3-0.2c-0.9-13.8-4.5-28.3-2.7-44
						c-0.2-2.3-0.5-4.6-0.6-7.3c-0.2-2.7,0-5.8,0.2-9.6l1.1-1.5c-0.6-5.9,2.2-17.3,1.2-19.9c0.4-0.7,0.8-1.7,1.1-2.9
						c0.4-1.2,0.7-2.5,1.1-4c0.3-1.5,0.6-3.1,0.9-4.9c0.3-1.7,0.7-3.5,1-5.4c0.3-1.8,0.6-3.7,1-5.6c0.4-1.8,0.7-3.7,1.1-5.4
						c0.9-3.5,1.6-6.7,2.5-9.1l-1.2-0.8c2.1-6.7,3.9-13.3,6.5-21.7l-1.3,0.1c1.8-7.5,8.2-17.9,13.4-28.9c0.1,1-1.4,3.7-2.6,5.5
						c8.6-11.9,11.8-28.4,19.9-39.2c1.2-3.1,2.4-5.2,3.8-7.1c-0.1,0.3-0.3,0.5-0.3,0.8c0.2-0.3,0.4-0.7,0.7-1.2
						c0.9-1.2,1.8-2.4,2.8-3.7c-0.9,1.1-1.8,2.1-2.4,3.1c1.2-2.3,2.9-5.7,4.4-9.2l1.9-0.8c0.1-0.3,0.2-0.5,0.4-0.8
						c2.2-3,0.9-2.9-0.9-1.7c0.7-1.8,1.3-3.4,1.7-4.8c3.3-1.6,4.2-9.1,8.1-11.6c0.2-2.8,8.5-17,7.6-19.9c0.3,0,1-0.9,0,0.9
						c2.3-3.5,4.6-7.1,6-10.7l2.4-0.7c0,0,0.7-2.3,1.4-4.5c0.7-2.3,1.4-4.5,1.4-4.5c3.8-4.3,5.5-5.9,3.7-0.5
						c2.6-6.3,3.9-8.6,5.1-10.8c1.2-2.2,2.1-4.2,4.5-9.5l0.6,1.1c2.2-3.4,4.6-9.7,6.7-11.2c3.4-3.2,9.8-12.4,17.9-22.6
						c8-10.2,17.8-21.3,26.6-28.8c-5.5,0.8,8.7-6.4,7.7-8.8c1.5-0.4,4.2-2.2,1.8,0.8c8.3-8.4,14.3-10.9,19.2-18.1
						c1.5-0.4-1.2,2.6,0,2.1c0.6-0.8,2.4-3.1,3.7-3.7c1.2-0.5-0.9,1.7-2.1,3.3c4.6-4.3,6.7-7.3,7.5-9.3c0.8-2.1,0.3-3.3-0.1-4.3
						c5.1-4,7.1-6.6,8.7-11.2c1.9-1.4,4.7-4,0.2,2.6c1.4-1.7,5.7-7.1,8.7-12.8c3.1-5.6,5-11.2,4.3-11.7c0.5-0.6,1.1-2,1.5-3.5
						c0.4-1.5,0.8-2.9,0.8-3.5c0.8-2.3,1.3-4.2,1.7-5.8c0.5-1.6,0.8-2.9,1.1-4.2c0.3-1.3,0.6-2.6,0.9-4.2c0.3-1.6,0.6-3.4,1-5.8
						l-0.7,2.6c-1.4-4.1,0.8-8,1.3-15.7l0.2,0.2c0.8-4.4,1.1-7.1,1.2-8.9c0.1-1.8,0.1-2.8,0.1-3.7c-0.1-1.9-0.1-3.7,0.9-12.4
						l-1.3,0.9c-2.8-1.6,1.7-15.4,0.2-25.4l-0.6,3.6c-1.1-5.4,3.2-15.4,3.3-20.9c0.2-1.2,0.5,1.9,0.7,3.5c1-14.5-1.8-1.8-2.7-12.5
						c0.8-2,2.5,2.5,2.3-4.8c0.6-3.6-3.9-20.8-2.6-30.7c-0.6,2.2-1.2,4.4-2-0.6c-0.3-3.8,0.2-9,0.3-14.1c0.1-5.1-0.1-10.1-1.5-13.4
						c0.1-1,0.3-1.4,0.5-1.4c-1-5.8-2.3-18.9-3.8-22.3c4.1-5.7-4.8-36-0.6-36.2l-2-17.9l0.5,0.4c-0.8-11.5-2.2-15.4-3.6-19.3
						c0-2.7,0.6-0.8,0.8-0.6c-0.8-16.8-1.1-18.4-4.6-32.2l1.2-1.6c-1.1-3.7-0.9-24.3-4.5-40.4c0.2,0.1,0.5,0.4,0.8,1.7
						c-1.9-9.1-2.4-20.2-3.1-29.8c-0.2-2.4-0.4-4.7-0.6-6.9c-0.2-2-0.6-4.6-1.2-6.6c-1.3-4.1-3.1-6.9-5-8c0,0-1.6-2.9-3.9-5.6
						c-1.1-1.3-2.3-2.6-3.4-3.5c-1.1-0.9-1.9-1.4-1.9-1.4c2,1.6,2.9,2.9,3.6,3.9c0.6,1,0.9,1.6,1,1.9c0.2,0.7-0.4,0.3-1.2-0.3
						c-1.6-1.2-4.1-2.9-2.2-0.2c-1-1.2-2.2-2.5-3.7-3.5c-1.5-1.1-2.9-1.4-3.8-1.3c-0.8,0.1-1.1,0.4-0.9,0.1c0.2-0.2,0.8-1,2.4-1.3
						c0,0,0.8,0.3,0.8,0.3c0.8-0.4,0.3-1.1-0.8-1.1c-0.5,0-1.1,0.4-1.6,0.9c-0.2,0.3-0.5,0.6-0.6,0.9c-0.1,0.4-0.1-0.1-0.1-0.3
						l0-0.7c0-3.6,0-7.3,0.8-7.2l0-2.5l0-2.8c0.1-1.9,0.1-3.8,0.3-5.6c0.3-3.7,0.7-7.4,1.4-10.9c0.7-3.5,1.7-6.9,3-10.1l1.1-2.3
						c0.4-0.7,0.8-1.5,1.2-2.2c0.9-1.4,1.8-2.9,2.7-3.8c1.9-2.1,4.3-3.5,6.8-4.1c2.6-0.6,5.3-0.4,7.7,0.5c0.6,0.2,1.1,0.5,1.7,0.8
						c0.6,0.3,1,0.7,1.5,1.1c0.5,0.3,0.9,0.8,1.3,1.3c0.2,0.2,0.4,0.4,0.6,0.7l0.2,0.4l0.2,0.2c0.8,1.3,1.3,3.1,1.1,4.6
						c0,0,0.3,0,0.5,0c0.2-0.1,0.5-0.2,0.7-0.3c0.5-0.3,1-0.7,1-0.7l0.1,1.1l0,0.5l0,0.3c-0.1,0.1-0.2,0.1-0.2,0.2
						c-1.2,0.8-2.4,1.6-3.6,2.2c-0.2,0.1-0.4,0.1-0.6,0.1c-0.2,0-0.5,0.1-0.6,0.1c-0.4,0-0.6-0.1-0.5-0.3c0-0.1,0.1-0.2,0.3-0.4
						c0.1-0.1,0.2-0.2,0.3-0.3c0.1-0.1,0.1-0.1,0.2-0.2c0.3-0.3,0.8-0.7,1.6-1.1c-0.6,0.1-1.1,0.3-1.6,0.6c-0.1,0.1-0.2,0.2-0.4,0.3
						l-0.7,0.5c-0.5,0.4-1,0.7-1.4,1c-1.8,1.4-3.3,2.5-3.3,2.7c-2.9,0.6-3.8,0.2-4,0c-0.1-0.3,0.5-0.5,1.4-0.9
						c1.7-0.7,4.4-2.2,2.8-1.7c0,0-0.3,0.1-0.7,0.3c-0.4,0.1-0.9,0.3-1.4,0.4c-0.5,0.1-1,0.2-1.3,0.3c-0.3,0-0.6,0.1-0.6,0.1
						s0.8,0.2,0.8,0.2c-1.5,0.6-2.3,0.9-3.4,1c-0.3,0-0.6,0-0.9-0.1c-0.3-0.1-0.7-0.2-1.1-0.3c-0.2-0.1-0.4-0.2-0.6-0.3
						c-0.2-0.1-0.4-0.2-0.6-0.3c-0.4-0.3-0.8-0.7-1.1-1.2c-0.2-0.4-0.3-0.7-0.3-0.9c-0.1-0.3-0.1-0.6-0.1-0.7c0-0.4,0.1-0.6,0.2-0.7
						c0.2-0.3,0.4-0.2,0.3-1c0.2,0,0-0.5-0.3-2.4c0,0,0-0.6,0-1.5c0-0.9,0.1-2.2,0.4-3.3c0.2-1.2,0.6-2.2,0.9-2.9
						c0.3-0.6,0.5-0.9,0.5-0.9c0,0-0.6,0.2-1.3,0.9c-0.7,0.6-1.3,1.5-1.3,1.5c0.1-1.1,0.4-2.2,0.8-3c0.4-0.8,0.8-1.2,0.9-1.4
						c0.1-0.2,0.1-0.3,0-0.4c-0.1-0.2-0.4-0.4-1.4,0c0.5-0.2,1.1-0.4,1.3-0.3c0.3,0.2,0.2,0.2,0.8,0.6c-0.6-0.9-1.2-1.9-1.9-2.8
						c0.3,9.7,2.5,25.6,3.8,36c0.5-1.3,0.9-2.5,1.3-3.6c-1.2,1.2-2.1,1.4-2.7,1.4c-0.3,0-0.6-0.1-0.8-0.2c-0.3-0.2-0.5-0.2-0.6-0.4
						c-1.1-0.2-2.4-1-3.5-2.1c-1.2-1.1-2.2-2.6-3.1-4.2c-1.7-3.2-2.9-7.2-3.1-11.5c-0.1,1.1-0.5,2-1,1.7c-0.3-0.1-0.5-0.6-0.7-1.5
						c-0.1-0.5-0.2-1.1-0.2-1.7c0-0.6,0-1.4,0.1-2.3c0.8,0.9,1.4,0.5,1.9-0.3c0.5-0.8,1-2,2-3.2c0.5-0.6,1.1-1.1,1.8-1.4l0.5-0.2
						c0.2-0.1,0.4,0.1,0.6,0.1c0.4,0.1,0.8,0.2,1.2,0.4c1.5,0.6,2.5,1.7,2.8,2.8c-0.4-0.8,0-0.9,0.8-0.5c0.2,0.1,0.4,0.3,0.7,0.4
						c0.2,0.2,0.4,0.3,0.8,0.7c0.7,0.8,1.5,1.6,2.1,2.6c1.4,1.9,2.5,4,3.2,5c0.7,1.1,1.1,1,0.8-1.3c1.1,3.1,0.8,3.3,0.3,3.3
						c-0.4,0-1,0-0.6,2.3c2.9,6.9,3.4,15.9,1.7,24.5c-0.9,4.3-2.4,8.4-4.6,11.8c-2.2,3.4-5,5.8-8.2,6.8c0,0.3,0.5,0.4,0.8,0.7
						c0.3,0.3,0.3,0.6-1.3,1.4c0,0-0.5-0.1-1.3-0.2c-0.4,0-0.8-0.2-1.2-0.4c-0.4-0.1-0.9-0.3-1.3-0.6l-0.6-0.3
						c-0.2-0.1-0.4-0.3-0.6-0.4c-0.4-0.3-0.7-0.5-0.9-0.8c-0.5-0.5-0.8-0.8-0.8-0.8c-0.6-0.4-1.2-0.4-1.7-0.5
						c-0.5-0.1-1.1-0.2-1.6-0.3c-1.1-0.4-2.5-1.3-3.7-4.3c0.2,1,0.6,2.5-1,0.6c-3.7-6-6.1-13.2-7.3-20.4c-1.1-7.2-1-14.8,1.5-21.3
						c0.3-0.8,0.6-1.6,1-2.3l0.6-1.1l0.7-1c0.4-0.7,1-1.3,1.5-1.9c0.5-0.6,0.9-0.9,1.3-1.3c0.9-0.8,2.1-1.3,3.3-1.2
						c1.2,0.1,2.4,0.5,3.4,1.1c0.4,0.3,1.1,0.8,1.7,1.3c0.6,0.5,1.1,1.1,1.7,1.8c1,1.3,1.9,2.7,2.4,4.1c0.6,1.4,0.7,2.8,0.5,3.3
						c-0.1,0.2-0.1,0.2-0.2,0.2c0,0-0.3,0.1-0.8,0.2c1.8,1,3.6,1.9,5.3,2.9c-2.4-7.9-3-16.4-1.6-24.5c-1.1,5.1-1.1,1.7-0.9-2.3
						c-0.4,2.5-1.2-0.1-1.9,0.3c0,0,0.2-1,0.5-2.5c0.3-1.5,0.8-3.5,1.4-5.4c0.5-2,1.3-3.8,1.8-5.2c0.6-1.4,1-2.3,1-2.3
						c-0.2-0.8-0.1-2.3,0.5-4c0.3-0.8,0.5-1.8,0.9-2.7c0.4-0.9,0.8-1.9,1.3-2.8c0.4-0.9,1-1.8,1.4-2.6c0.5-0.8,0.8-1.7,1.3-2.3
						c0.8-1.4,1.3-2.5,1.2-3.1c0,0-0.6,1.1-1.3,2.2c-0.3,0.5-0.6,1.1-0.9,1.5c-0.2,0.4-0.3,0.7-0.3,0.7c0.9-3.4-1.3-2.1-4,0.2
						c-2.6,2.3-5.4,5.7-6.4,4.7c-0.5,4.3-2.9,9.3-4.7,15.4c-1.8,6-2.8,13.2-0.5,20.1c-0.3,3.1-1.1-2.6-1.5-0.9
						c0.7,1.7,1.2,3.7,1.8,6.1c0.3,1.2,0.5,2.6,0.8,4.1c0.3,1.5,0.6,3.3,1.1,5.2l-0.5-0.8c0.5,1.5,0.9,2.9,1.3,3.9l1.2,3.8l3.9-1
						c1.7-0.4,3.6-1.3,5.1-2.8c1.5-1.5,2.3-3.6,2.5-5.3c0.4-3.4-0.4-6-1.3-8.2c-0.9-2.2-2.1-4.1-3.5-5.9c-1.4-1.8-2.9-3.3-4.9-4.8
						c-2.2-1.6-4.8-2.8-7.6-3.3c-2.8-0.4-6,0-8.7,1.8c-0.7,0.4-1.3,0.9-2,1.5c-0.6,0.5-1.3,1.1-1.9,1.6c-0.5,0.5-1,1.1-1.5,1.6
						c-0.5,0.5-1,1.1-1.4,1.7c-1.8,2.4-3.2,5.2-4.4,8.2c0,0,0.5-0.4,0.9-0.8c0.5-0.4,1-0.7,1-0.7c-1.2,2.7-1.7,4.4-2.2,5.7
						c-0.5,1.3-0.8,2.2-1.2,3.5c0.6,3.4,0.9-0.6,2-4.5c0.6-2,1.3-4,1.9-5c0.6-1,1-1.2,0.9,0.4c-1.4,1.4-2.8,4.7-3.7,8.8
						c-0.8,4.1-1,9-0.5,13.7c0.4,4.7,1.4,9.2,2.4,12.9c1,3.7,1.8,6.5,1.7,8c2,4,2.1,3.2,2.1,2.4c0.1-0.8,0-1.4,2.2,2.3
						c0,0,0.1,0.6,0.3,1.2c0.1,0.6,0.3,1.2,0.3,1.2l2.2,1.2c1.9,2.4,3.3,4.2,4.2,5.4c1,1.3,1.5,2.2,1.4,2.5c-1.3-1-3.7-2.7-4.9-3.8
						c1.3,1.6,3.1,3.5,5.5,5c1.1,0.8,2.6,1.4,4,2c1.5,0.5,2.9,1,4.5,1.2c1.5,0.3,3,0.2,4.4,0.2c1.4-0.1,2.6-0.3,3.7-0.6
						c1.1-0.3,2-0.6,2.8-0.8c0.7-0.3,1.3-0.5,1.7-0.6c0,0-0.6,0.2-1.5,0.6c-1,0.2-2.2,0.6-3.6,0.7c-1.4,0.1-2.7,0.3-3.7,0.1
						c-1-0.1-1.7-0.1-1.7-0.1c7.8,0.5,15.2-3.7,19.7-9.3c2.3-2.8,4-5.9,5.2-9.1c1.2-3.2,2.2-6.4,2.7-9.6c1.1-6.5,1.2-12.9,0.3-19.1
						c-0.8-6.1-2.6-12-5.3-17.1c0,0,0.1,0.5,0.1,0.9c0,0.5,0,0.9,0,0.9c-1.9-3.9-3.6-6.5-5-8.5c-0.8-1-1.4-1.9-2.1-2.7
						c-0.4-0.5-0.8-0.9-1.2-1.3c-0.4-0.5-0.8-0.8-1.3-1.2c-0.9-0.7-1.7-1.6-2.9-2.2c-0.6-0.3-1.1-0.7-1.8-1.1
						c-0.7-0.3-1.4-0.6-2.1-0.9c-0.8-0.4-1.6-0.5-2.5-0.7c-0.5-0.1-0.9-0.2-1.4-0.3c-0.5,0-1,0-1.5-0.1c-0.3,0-0.5,0-0.8,0
						c-0.3,0-0.6-0.1-0.8,0.1c-0.5,0.3-1,0.6-1.5,1c-0.5,0.4-1,0.7-1.6,1.1c-0.5,0.4-1,1-1.5,1.5l0.5-0.7c-1.5,1.8-2.8,4.3-3.6,7.1
						c-0.4,1.4-0.7,2.9-0.8,4.5c0,0.8-0.1,1.6-0.2,2.4c0,0.8,0,1.4,0,2.1c-0.4-2.5-0.8-0.1-0.9,2.1c-0.1,2.2-0.1,4.3-1,1
						c1,5,2.4,7.7,3.2,9.6c1,1.8,1.6,2.6,2.1,3.3c0.5,0.6,1,1,1.9,1.9c1,0.8,2.2,2.2,5,4c0,0,0.1,0.2,0.3,0.4c0.1,0.3,0.4,0.6,0.6,1
						c0.3,0.3,0.5,0.7,0.7,0.9c0.2,0.3,0.4,0.4,0.4,0.4c2.2,0.8,3.8,0.9,5.8,0.7c1.9-0.2,4.7-1,7.5-3.8l0.8-0.8l-0.2-1
						c-0.1-0.4-0.2-1.1-0.3-1.9c0.3,1.2,0.5,1.8,0.7,1.9l0.4,0.3l-1.2,1.8c-0.3,0.4-0.1,0.4,0.3,0.3l0.9-2.4
						c0.4-0.9,0.5-4.7,1.8-0.2l-1.4,3.9c0,0.1-0.2,0.3-0.4,0.5c0.2-0.1,0.4-0.3,0.5-0.4l1.5-1l0-3c0-18-5.4-26.1-3.2-34.7
						c-0.3-0.7-0.6-1.2-0.8-1.3l-2.5-3.8c-0.9-0.1-0.9,0.1-0.3,0.6l2.6,2.2l-0.4,1.1c-0.8,2.3,1.5,16,0.6,12.5
						c-0.4,4-2.9-6.5-3.3-12.2l-0.1-0.9l-0.8-0.4c0,0-0.1,0-0.1-0.1c-0.8-0.4-1.7-0.9-2.7-1c-1-0.2-2.2-0.2-3.2,0.2
						c-2.2,0.6-3.9,2.1-5.3,3.9c-1.4,1.8-2.6,4.1-3.4,7c-0.7,2.9-1.1,6.5,0,11.1c-0.4-1.8-0.7-1.9-0.9-3.7c0,1.7,0.3,3.4,0.9,5.2
						c0.6,1.7,1.6,3.6,3,5.3c0.7,0.8,1.5,1.6,2.4,2.2c0.4,0.3,0.9,0.6,1.4,1c0.4,0.3,0.8,0.6,1.3,0.8c1.9,1,4,1.9,6.3,2.5
						c2.7-0.5,5.5-0.8,7.7-1.4c1.1-0.3,2-0.6,2.7-1c0.7-0.4,1.1-0.9,1.2-1.5c0,0-0.2,0.1-0.6,0.3c-0.4,0.1-0.9,0.4-1.6,0.6
						c-0.7,0.3-1.5,0.5-2.4,0.7c-0.9,0.2-1.9,0.5-2.9,0.5c-2,0.3-4.2,0.1-5.9-0.2c-0.8-0.2-1.5-0.4-1.9-0.6
						c-0.5-0.1-0.7-0.3-0.7-0.3c2.3,0.8,4.8,1,7.1,0.7c2.3-0.3,4.4-1.1,6.5-2.1c2.1-1,4.1-2.2,6.3-3.5c2.5-1.5,5.2-3.2,8.2-5
						c0.1-0.1,0.3-0.2,0.3-0.4c0-0.2,0-0.4,0-0.6c0,0.1,0.1,0.2,0.1,0.4c0,0.1,0.1,0.2,0.1,0.4c0,0.1-0.1,0.2-0.2,0.4
						c-0.7,1-3.4,3.4-5.7,5.1c2.7-1.2,4.8-2.9,7-4.6c0.3-0.3,0.1-0.9,0.1-1.4c0-0.5-0.1-1-0.1-1.5c-0.1-1,0-2-0.1-3
						c0.4,0.2,0.8,0.9,1,2.1c0.1,0.6,0.3,1.2,0.4,2c0.1,0.4,0.1,0.8,0.2,1.2c0,0.2,0.1,0.4,0.1,0.6c0,0.2-0.1,0.4-0.1,0.6
						c-1.5,1.1-3.3,2.5-5.4,3.8c-1,0.7-2.1,1.4-3.2,2c-0.6,0.4-1,0.6-1.4,0.8c-0.4,0.2-0.9,0.5-1.3,0.7c-1.8,0.9-3.7,1.8-5.6,2.6
						c-2,0.7-3.9,1.4-5.8,1.7c0.7,0.1,1.5,0.1,2.4-0.1c0.9-0.1,1.9-0.4,2.8-0.7c1.9-0.6,3.7-1.5,5.1-2.3c1.4-0.8,2.6-1.5,3.2-1.7
						c0.6-0.2,0.7,0.1,0,1.1c0.2-0.3,0.4-0.6,0.7-0.9c0.4-0.4,0.7-0.7,1.1-1.1c0.8-0.7,1.6-1.3,2.4-2c1.7-1.3,3.5-2.6,5.5-4l0.1-0.5
						l0-0.6c0-0.4,0-0.9-0.1-1.3c0-0.9-0.1-1.8-0.1-2.7c-0.1-0.9-0.3-1.8-0.4-2.7c-0.1-0.5-0.2-0.9-0.2-1.4c-0.1-0.5-0.1-1-0.4-1.4
						c-0.4-0.9-0.8-1.9-1.2-2.8c-0.2-0.5-0.4-0.9-0.7-1.4c-0.3-0.4-0.6-0.9-1-1.3c-1.1-1.6-2.6-2.8-4.2-3.9c0,0,1.5-0.3,1.5-0.3
						c-0.8-0.7-2.3-1.5-3.8-2.4c-0.8-0.4-1.7-0.8-2.6-1.1c-0.9-0.4-1.8-0.6-2.7-1c0,0,0.4,0,1.1,0.1c0.7,0.1,1.6,0.2,2.4,0.4
						c0.9,0.2,1.8,0.5,2.5,0.7c0.6,0.3,1.1,0.5,1.1,0.5c-5-2.7-10-4.3-15.3-4.5c-5.2-0.2-10.8,1.3-14.9,5c2.3-1.7,4.2-2.7,5.8-3.3
						c1.6-0.7,2.8-0.9,3.6-1c1.7-0.3,1.9-0.1,1.8,0.2c-0.1,0.3-0.6,0.7-0.5,1c0.1,0.3,0.8,0.3,3,0.4c-6.2,1.1-9.6,3.5-12.1,5
						c-1.2,0.9-2.3,1.5-3.1,2.2c-0.9,0.7-1.7,1.3-2.5,2c-1.5,1.3-3,2.6-4.7,5.2c-1.7,2.6-3.6,6.5-4.9,12.6c0.3-1.7,1.3-4.7,2.4-6.6
						c1-1.9,1.7-2.7,1.1-0.1c-2,4.4-3.7,10.3-4.8,13c-0.5,4-0.5,5.8-0.5,6.4s0.3,0.1,0.6-0.8c0.5-1.7,1.4-4.4,1.4-1.1
						c-2.1,5.1,0,7.6,0.3,14.2l-1.3,0c0,0.5-0.1,1.1-0.1,1.5c0,0.6,0,1.1,0,1.6c0,1.3,0,2.5,0,3.5c0.1,2,0.2,3.5,0.3,4.5
						c0.3,2.1,0.6,2.6,1,3c0.3,0.4,0.7,0.7,0.9,2.2c0.1,0.8,0.2,1.8,0.3,3.4l0,0.3c0,0.1,0,0,0.1-0.1c0-0.1,0.1-0.2,0.1-0.3
						c0.1-0.2,0.2-0.4,0.3-0.6c0.2-0.3,0.6-0.6,1-0.1c0,0-0.4-0.1-0.9,0.2c-0.3,0.1-0.5,0.4-0.8,0.6c-0.3,0.3-0.5,0.6-0.7,1
						l-0.3,0.6l-0.2,0.3l-0.1,0.1c0,0,0-0.1,0-0.2c-0.1-0.4-0.2-0.9-0.3-1.2c-0.2-0.7-0.3-1.2-0.3-1.2s0.1,0.7,0.1,1.8
						c0,0.3,0,0.6,0.1,0.9c0,0.2,0,0.3,0,0.5c0,0,0.1-0.1,0.1-0.2c0.1-0.2,0.1-0.3,0.2-0.5c0.1-0.1,0.2-0.2,0.2-0.4
						c0.3-0.4,0.8-0.5,1.2,0.2c0.1,0.1,0.2,0.4,0.3,0.6c0.1,0.2,0.2,0.3,0.2,0.6c0.1,0.5,0.2,0.7,0.2,0.7c0,0-0.7-0.3-1.4-0.1
						c-0.2,0-0.3,0-0.5,0c-0.1,0-0.3,0.1-0.4,0.1c-0.2,0.1-0.4,0.1-0.4,0.1c0.5,0.8,1.2,3.1,1.8,7.8c0.1,0.6,0.2,1.2,0.2,1.8l0,0.2
						c0,0.1,0,0.3,0.2-0.2l0.8-1.7c0.6-1.1,1.1-2.2,1.7-3.3c1.1-2.2,2.2-4.3,3.2-6.4c0.5-1,1.1-2.1,1.6-3.1l0.2-0.4
						c0.1-0.2,0,0,0-0.1h0h0c0,0,0.1,0,0.3,0c0.5,0.2,1.3,0.8,1.9,1.6c1.3,1.6,2.4,3.6,3.7,7c0.1-0.9,0.7-1,1.7,0
						c0.9,1,2.2,3.1,2.9,6.3c0,2.3-0.4,1.7-0.6,1.7c-0.2,0-0.2,0.6,0.6,5.8c-0.6-1.1-1.2-2.3-1.6-3.8c-0.4-1.6-0.5-2.8-0.4-4.9
						c-0.5-0.3-1.3-1.7-1.9-1.9c0.1,1.2,0.4,2.4,0.6,3.7c0.1,0.6,0.2,1.2,0.3,1.9c0.1,0.8,0.2,1.6,0.3,2.4c0.5,3.2,1,6.1,1.3,8
						c-0.1-1.5-0.3-3.2-0.2-4.1l3.7,14.8c-0.2,2.4-0.8,0.6-1.4-1.2c0.5,3,1.4,5.1,2.1,9.5c-1.2-1-2.3-0.6-3.6-6.9l3,14.2
						c-0.3,1-0.3,7.5-1,5.7c0.4,8,4.5,19.3,5,29.9c0.3,0.5,0.6,1.6,1,3.8c0.7,10,0.3,18.9,2.9,30.6l-1.3,6.9c1.3,9.2,1.5-9.3,3.8,6
						c1.7,10.8-1.2,4.2-1.4,8.1c0.7,2.7,1.8,6.3,2.7,10.5c0.8,4.2,1.5,9.1,1,14.2C464.6,290.3,464.7,287.7,464.2,284.6z
						 M472.3,398.8c-0.4-2.2-1.4-6.6-0.7-8.2C473.3,393,472.6,395,472.3,398.8z M442.6,561.2c0.9-1.4,2.8-3.1,5.1-4.8
						C446.4,558,444.7,559.6,442.6,561.2z M270.3,992.5c0-0.1,0-0.2-0.1-0.2C270.4,987.2,270.3,989,270.3,992.5z M270.1,1002.9
						c0.2,1,0.4,1,0.6,0.5c-0.4-0.7-0.5-3.1-0.5-5.7C269.9,998.5,269.7,999.8,270.1,1002.9z M451.3,73c0,0,0,0.4,0,0.8
						c0,0.4,0,0.7,0,0.7c-0.6-1.5-0.6-2.3-0.5-2.3C450.8,72.1,451,72.6,451.3,73z"/>
					<path d="M454.1,545.7c0.5-0.3,0.8-0.3,1.1-0.3C455.6,544.6,455.4,544.4,454.1,545.7z"/>
					<path d="M456.5,213.8l0-0.3c-0.1-0.2-0.2-0.3-0.3-0.3L456.5,213.8z"/>
					<path d="M261.1,843c0.7-2,1.3-3.1,1.7-3.9C262.5,838.9,262,839.8,261.1,843z"/>
					<path d="M268.2,1059c0,0,0.2-1.7,0.5-3.4c0.2-1.7,0.4-3.4,0.4-3.4c-0.5,3.3-1,4.4-1.5,6C267.9,1058.1,268.6,1056.9,268.2,1059z
						"/>
					<path d="M238.3,1109.6c-0.5,0.8-1.3,1.6-1.8,2.4l0.6,0.2C239.8,1109.1,241.1,1106.5,238.3,1109.6z"/>
					<path d="M262.6,1064.2c-1.2,0.3-1.8,4.4-2.9,9c0.1-0.3,0.1-0.5,0.2-0.8C261,1074.2,262,1069.2,262.6,1064.2z"/>
					<path d="M259.4,1074.3c-0.4,1.4-0.8,2.8-1.3,4.2C258.5,1079.2,258.8,1076.8,259.4,1074.3z"/>
					<path d="M271.1,1016.2c-0.3,2.2,1.4,1.4,0.9,2.7c0.7,1.3,0.3-2.5-0.2-5C271.3,1011.4,270.7,1010.1,271.1,1016.2z"/>
					<path d="M258.1,1067l1.7-1.3l-0.5-2.8c0,0-0.3,1-0.6,2C258.5,1066,258.1,1067,258.1,1067z"/>
					<path d="M264.9,1031.1c0,0-0.2,1.8-0.5,3.7c-0.2,1.8-0.6,3.7-0.6,3.7c0.2-0.1,0.3,0.9,0.3,2
						C264.7,1035.9,265.3,1030.9,264.9,1031.1z"/>
					<path d="M264.1,1040.5c-0.3,2.4-0.6,4.6-0.5,6C263.7,1045.1,264,1042.4,264.1,1040.5z"/>
					<path d="M260,1057.1l0.7-2.1c0,0,0.3-1.3,0.5-2.6c0.2-1.3,0.5-2.6,0.5-2.6s-0.4,1.8-0.8,3.6
						C260.4,1055.3,260,1057.1,260,1057.1z"/>
					<path d="M262.2,951.7l-1-8c-0.5-0.8-0.6,1.4-0.2,4.4C261.4,950,261.8,952.9,262.2,951.7z"/>
					<path d="M260.4,976.2c0.1-2.2,0.4-2.4,0.8-3.6l-1.7-0.1L260.4,976.2z"/>
					<path d="M258.1,952.9c-0.5-0.8-2.3-11.6-1.4-1.4C257.3,952.3,258.3,960.3,258.1,952.9z"/>
					<polygon points="269.1,832.2 268.5,834.2 271.3,834.7 					"/>
					<path d="M308.7,732.1c-5.1,8.1,0.4,2.8-4.4,10c-0.5,2.3,4-5.9,3.4-3.6C309.8,733.2,311.6,730.7,308.7,732.1z"/>
					<path d="M307.6,738.6c-0.3,0.9-0.7,1.8-1,2.8C307.2,739.8,307.5,739.1,307.6,738.6z"/>
					<path d="M455.6,30.6c0,0,0.8-1.1,1.6-2.2c0.4-0.6,0.8-1.1,1.1-1.5c0.3-0.4,0.5-0.6,0.5-0.6s-0.7,0.6-1.3,1.2
						c-0.6,0.6-1.3,1.3-1.3,1.3L455.6,30.6z"/>
					<path d="M459.7,20.7c0,0,0.5,0,1.1,0.1c0.5,0,1.1,0.1,1.1,0.1l1.1-3.4C462.2,18.5,460.5,20.2,459.7,20.7z"/>
					<path d="M469.5,415.9l0.4,0.5c0.4-1,0.4-2.4,0.3-5.3L469.5,415.9z"/>
					<polygon points="466.4,332.9 466.4,334.4 467.8,331.6 					"/>
					<path d="M458.7,263.7c0.2,2.8,0.9,6.1,1.1,9C458.9,266.5,460.6,262.7,458.7,263.7z"/>
				</g>
			</g>
		</g>
	</g>
</g>
<path fill="none" stroke="#000000" stroke-miterlimit="10" d="M78,448.3c0,0.2,0,0.4,0,0.7"/>
<g>
	<g>
		<g>
			<g>
				<g>
					<path d="M235.1,1285.8c1.2-0.1,0.7-0.9,0.8-1.1C233.9,1285.2,235.2,1286,235.1,1285.8z"/>
					<polygon points="215.3,1290.2 215.6,1289.8 212.8,1291 					"/>
					<path d="M196.6,1292.5c2,1.3,6.8-1.1,10.2-0.9l0.6,0.3l1.4-1.4C204.6,1291.1,199.5,1292.5,196.6,1292.5z"/>
					<path d="M186.2,1290.5c0.7,0.5-2.1,0.8,2.4-0.1c-0.2,0-0.3-0.1-0.4-0.1C187.7,1290.3,187.1,1290.4,186.2,1290.5z"/>
					<path d="M188.1,1290.3C190,1290,186.7,1289.9,188.1,1290.3L188.1,1290.3z"/>
					<path d="M179,1291.7l2.5-0.8c-0.6-0.3-2.9-0.1-2.1-0.4C176.8,1291.1,177.4,1291.3,179,1291.7z"/>
					<path d="M176.7,1293.1l1.3-0.4C177.7,1292.6,177.4,1292.6,176.7,1293.1z"/>
					<path d="M180.8,1291.9l-2.8,0.8c0.4,0.2,0.5,0.7,1.3-0.3C179.1,1292.9,179.6,1292.4,180.8,1291.9z"/>
					<path d="M182.4,1291.9c1.5,0.1,3.4,0.1,0.9,1C188.2,1292.1,187.4,1291.1,182.4,1291.9z"/>
					<path d="M195.8,1294.1l2,0.2l1.6-0.7C198.6,1294,195.6,1293.7,195.8,1294.1z"/>
					<path d="M162.7,1292.9c-0.1,0.3,1,0.7,1.2,1.1l1.9-0.6C164.8,1293.3,162.9,1293.4,162.7,1292.9z"/>
					<path d="M163.9,1294l-2.8,0.9C163.7,1294.7,164.1,1294.4,163.9,1294z"/>
					<polygon points="176.4,1294.8 181,1293.1 175.5,1294.9 					"/>
					<polygon points="151.7,1294.2 153.3,1293.3 150.5,1294.7 					"/>
					<path d="M144.5,1295.2c1.1-0.8-1.8-0.8-0.6-1.4c-1.9,0.3-3.5,1-4.9,1.7l0.7,14.1c0.1,0,0.1,0,0.2-0.1l-0.2,0l-0.7-14
						C140.6,1295.1,142.3,1295,144.5,1295.2z"/>
					<path d="M142.5,1308.9c-0.8,0.1-1.7,0.4-2.6,0.6C140.8,1309.4,141.7,1309.2,142.5,1308.9z"/>
					<path d="M156.2,1295.4c-0.2-0.2-0.7-0.6-2.4-0.6l1.2,0.8C155.4,1295.5,155.8,1295.4,156.2,1295.4z"/>
					<path d="M155.1,1295.5L155.1,1295.5c-1.3,0.1-2.1,0.2-2.5,0.2C152.9,1295.7,153.7,1295.6,155.1,1295.5z"/>
					<path d="M156.5,1295.3c-0.1,0-0.2,0-0.3,0C156.3,1295.4,156.4,1295.5,156.5,1295.3z"/>
					<path d="M168.8,1294.9c-1.6,0.7-5.1,1.7-1.6,2C168.3,1296.2,166.3,1296,168.8,1294.9z"/>
					<path d="M158,1296.3l3.1-0.2c-0.1-0.2-0.7-0.5,0.1-0.9L158,1296.3z"/>
					<polygon points="156.6,1296.7 158,1296.3 156.9,1296.3 					"/>
					<path d="M141.7,1296.8c-0.8,0.3-1.6,0.5-2.4,0.7l0.5,10.1c0.6,0,1.2,0,1.9-0.1c-0.6-0.1-1.3-0.1-1.9-0.2l-0.5-9.6
						c1.1-0.1,2.3-0.2,3.4-0.3C142.9,1297.1,143.6,1296.5,141.7,1296.8z"/>
					<path d="M148.2,1296.3c-0.1,0-0.2,0.1-0.3,0.1C148.1,1296.4,148.3,1296.4,148.2,1296.3z"/>
					<path d="M162.1,1306.3c0,0.1-0.1,0.2-0.2,0.3c0.1,0.1,0.1,0.2,0.2,0.2L162.1,1306.3z"/>
					<path d="M143,1297.6c1.3,0,2.1-0.3,2.8-0.7c-1,0.2-2,0.4-3.1,0.5C142.6,1297.6,142.6,1297.7,143,1297.6z"/>
					<path d="M147.1,1308.6c-0.7-0.2-1.5-0.4-2.3-0.5C145.4,1308.3,146.8,1308.8,147.1,1308.6z"/>
					<path d="M147.5,1296.1c0.1,0,0.1,0,0.2-0.1C147.2,1295.9,147.3,1296,147.5,1296.1z"/>
					<path d="M147.5,1296.1c-0.7,0.2-1.2,0.5-1.7,0.8c0.8-0.2,1.5-0.4,2.1-0.6C147.8,1296.3,147.6,1296.2,147.5,1296.1z"/>
					<path d="M156,1296.7c0.4,0.2,0.8,1.1,1,2.3c0.2,1.2,0.3,2.8,0.1,4c-0.3-0.1-0.7-0.1-1-0.2c-2.1,0.5,0.3,2.8,5.4,4.5
						c0.2-0.2,0.3-0.4,0.5-0.7c-0.4-0.4-0.7-0.9-1.4-5.6c-0.2,0.7-0.5,3.4-0.8,4.7c-1.6-0.3-2.4-0.6-1.3-0.9c0.1,0,0.3,0,0.3,0
						c-0.5-4.8,0.2-3.4,0.6-5.7c-0.5,0.8-0.9-1-1.4-2.6c-0.5-1.7-1-3.1-1.8-2.6l0.6,3.5C156.6,1297.2,156.2,1295.9,156,1296.7z"/>
					<path d="M153.9,1307.5l-2,0.1c2.3,0.2,4,0.6,7.8,1.3c1.6-0.2,2.5-0.3,2.9-0.5c-0.2-0.9-0.4-1.3-0.5-1.6l0,1.1l-8.9-0.3
						L153.9,1307.5z"/>
					<path d="M145,1307.5c1-0.9,4-1.2,2.2-2.2c-3.7,0-2.6,0.7-4.8,1.1c5.9-0.1-1.7,0.5,2.6,1.1c-1.2,0.1-2.2,0.2-3.2,0.2
						c1.1,0.1,2.1,0.3,3.1,0.5c-0.1,0-0.1,0-0.1-0.1l0,0l0,0c-0.3-0.1-0.3-0.2,0-0.1c0,0,0.1,0,0.1,0
						C144.7,1307.7,144.9,1307.6,145,1307.5c1.7,0.2,0.3,0.2-0.3,0.3c0,0-0.1,0.1-0.1,0.1c0,0,0,0,0,0c0,0,1.5-0.1,3-0.2
						c0.5-0.1,2-0.1,2.8-0.1c0.9,0,1.5,0,1.5,0c-1-0.1-2.2-0.1-3.6-0.2C147.5,1307.4,146.4,1307.5,145,1307.5z"/>
					<path d="M164.3,1299.3c-0.2-0.1-0.2-0.1-0.2-0.2C163.7,1299.2,163.6,1299.3,164.3,1299.3z"/>
					<path d="M161.8,1299c0.4-0.2,0.7-0.6,2.1-0.7c1.2,0.1,0,0.4,0.1,0.7c0.8-0.3,2.9-1,0.2-1.1l-0.4,0.2c-2.4,0-5.6-0.8-5.2-0.9
						C159.4,1297.9,160.1,1298.4,161.8,1299z"/>
					<path d="M147.9,1298.9l-4.8,1l2.6,0.5l-0.2-0.5C148.2,1299.8,147.5,1299.3,147.9,1298.9z"/>
					<path d="M162.5,1305.8l1,2c0,0-0.4-1.5-0.8-3c-0.4-1.4-0.8-2.8-0.8-2.8L162.5,1305.8z"/>
					<path d="M162.1,1295.1l0.8,0.5c0,0-0.1-0.7-0.3-1.4c-0.1-0.4-0.3-0.8-0.3-0.8s-0.1,0.4-0.1,0.7c0,0.1-0.1,0.5-0.1,0.7
						C162.1,1295,162.1,1295.1,162.1,1295.1z"/>
					<path d="M186.6,1287l-1.5,0.2C185.9,1287.2,186.3,1287.1,186.6,1287z"/>
					<path d="M197.3,1286.6l0.2-0.4C197.1,1286.5,196.9,1286.6,197.3,1286.6z"/>
					<path d="M140.5,1251.9c-1,1.8-2.7,3.4-1.8,3.4l1-0.3C140,1253.8,140.2,1252.8,140.5,1251.9z"/>
					<path d="M180.7,1294.5c-0.2,0-0.4-0.1-0.7-0.1c-0.4,0.4-0.8,0.8-1.2,1.2C179.4,1295.2,180,1294.8,180.7,1294.5z"/>
					<path d="M181.1,1290.4l2.8-0.2C183.3,1290.1,182.4,1290.2,181.1,1290.4z"/>
					<path d="M165.6,1242.5l-1.1-1.5C164.8,1243.5,165.1,1242.3,165.6,1242.5z"/>
					<path d="M159,1228.9c0.2-1.8,0.3-3.3,0.2-4.6C158.9,1226.5,158.2,1228.4,159,1228.9z"/>
					<path d="M190.5,1277.2c-0.9,0.2-1.2,0.4-1.2,0.6C190.2,1277.6,190.7,1277.4,190.5,1277.2z"/>
					<path d="M158.9,1219c-0.1,0.3-0.1,0.6-0.1,1c0.2,1.3,0.5,2.7,0.5,4.3C159.6,1222.7,159.7,1220.8,158.9,1219z"/>
					<path d="M202.3,1188.1c-0.1-0.1-0.3-0.2-0.4-0.3C201.8,1187.9,202,1188,202.3,1188.1z"/>
					<path d="M186.3,1152.8c-0.6,0.3-1.5,0.8-2.4,1.1C184.4,1153.8,185.1,1153.5,186.3,1152.8z"/>
					<path d="M161.7,1268.9C161.8,1270.2,161.8,1269.1,161.7,1268.9L161.7,1268.9z"/>
					<path d="M158.3,1275.6c-0.1-0.3-0.2-0.5-0.5-0.5C158.1,1275.2,158.2,1275.4,158.3,1275.6z"/>
					<path d="M152.4,1205.9c0,0,0-0.1,0-0.1C152.2,1206.2,152.3,1206.1,152.4,1205.9z"/>
					<path d="M161.3,1270.9c0.1-0.5,0.2-1.1,0.2-1.8C161.5,1269.5,161.4,1270,161.3,1270.9z"/>
					<path d="M161.8,1270.6c0,0.5,0,0.8-0.1,1.2C161.9,1272,162,1271.9,161.8,1270.6z"/>
					<path d="M161.6,1267c0,0.8,0,1.5,0,2.2c0.1-0.3,0.1-0.4,0.1-0.3C161.7,1268.5,161.6,1267.9,161.6,1267z"/>
					<path d="M205.5,1257.6c0.1,0,0.2,0,0.3,0C206.8,1256.7,206.3,1257,205.5,1257.6z"/>
					<path d="M136.1,1287c0-0.1,0-0.1,0-0.2C136,1286.9,136,1286.9,136.1,1287L136.1,1287z"/>
					<path d="M135.1,1291.4c-0.5-2.1,0.1-3.1,0.8-4.4c0,0-0.7,0.1-1.5,0.2c-0.8,0.1-1.5,0.2-1.5,0.2s0.5,1,1,2
						C134.6,1290.4,135.1,1291.4,135.1,1291.4z"/>
					<path d="M163.4,1273.8c0,0-0.6,1.4-0.9,2.8c-0.4,1.4-0.4,2.8-0.4,2.8c-0.5-1.4-0.6-3-0.5-4.4c0.1-1.4,0.4-2.7,0.5-3.4
						c0.2-1.6,0-1.6-1.3,1.4c0.7,0.3,0.5,2,0.6,4.1c0.1,2.1,0.3,4.7,1.9,6.9c3,4.8,9.4,4.4,10.1,3c0,0,0.9,0.2,1.8,0.3
						c0.9,0.2,1.8,0.3,1.8,0.3c-1.1,0-1.3,0.1-2.3,0.1c0.9,0.2,1.7,0.3,2.4,0.3c0.6,0,0.8,0,1.2,0c0.6-0.1,1.1-0.4,1.6-0.7
						c1-0.6,2.1-1.4,5-1.2c2,0.2,3.4,0.6,2.1,1c0,0,1.1-0.2,2.2-0.4c1.1-0.2,2.2-0.4,2.2-0.4c1.3,0,1,0.5-0.3,0.5l6.8-0.5l0,0.1
						c0.9-0.5,3.1-1.3,4.2-1.6c1.7,0.3-0.8,0.4-0.4,0.7c0,0,0.9-0.2,1.9-0.5c0.9-0.3,1.8-0.5,1.8-0.5c1.6,0.6-1.5,1.6-4.1,1.7
						c3.7,2.6,3.1-1,10.8,0l-3.5,0.7c2.4,1.4,5.2,0.6,9.3,1.2c-1-0.4-8.4-1.8-4.3-2.9c1.2,0.1,2.7,0.1,4.8-0.8c0.1,1,2.3,0.5,4.9,0
						l0,1.4c2.9-0.8,2.5-1.4,4.1-2.3c2.5-0.2,3.6,0.3,4.4,0.9c-1.1-4.1-2.3-8.2-3.3-11.9c-0.3-0.1-0.5-0.3-0.7-0.4
						c-4.8,1.5,3.9,0.3-1.6,2.6c-4.2,1-6.7,2.5-11.2,5c-2.9,0.6,0.2-1-0.9-0.9l-2.1,1.9c-0.6,0.2-0.5-0.2-0.5-0.4
						c-1.9,1.2,0.3,1.3-2.9,2.9c-0.2,0.8-2,1-4.3,1.2c-2.3,0.1-4.9,0.4-6.8,1.8c-1.1-0.1,0.2-0.9-0.2-1.3c-5.3,2.7-4.6,2.2-8.8,5
						l-4.2,0.3c3.2,0.1-0.2,2.4-3.2,4.3c1.2,0.2,2.2,0.3,2.8,0.3c0,0-1.3,0.6-2.5,1.1c-1.3,0.5-2.6,1-2.6,1
						c-0.7-0.1-0.3-0.6,0.5-1.4c-0.3,0.2-0.7,0.4-0.9,0.5c-2,0-1.2-1-0.1-2.1c0.7,0.1,1.4,0.2,2.1,0.3c1.1-1.1,2.1-2.4,1.6-3
						c-0.3,0.2-0.9,0.6-1.6,0.9c0.3-0.3,0.4-0.6,0.3-0.6c-0.2-0.1-0.7,0.3-1.5,0.9l-1.6-1.2l-0.1,0.6l-7.1,0.7
						c-4.6,2.6-8.4,5.9-16.2,8.2c1.8-1.4,0.1-1.8-0.1-3.1c2.5,1,6-2,10.1-2.6c-2.2,0.4-1.8-0.4-1.3-0.7l-7,2.9
						c0-1.1-1.7-0.5-3.7-0.6c1.9,1.8-5.2,2.3-8.1,3.5c-0.3-0.7,0.3-1.5,4-2c-4.3-0.9-4.8,3.3-9,2.7c0.9-0.2,1.4-0.1,1.7-0.6
						c-0.5,0.2-1.2,0.5-1.9,0.6c-0.5,0.1-1.1,0.2-1.5,0.2c-0.9,0-1.4-0.2-1-0.6l0.5-0.1c-0.9,0.1-1.9,0.2-3.1,0.5
						c-0.1,0-0.3,0.1-0.4,0l-0.1-0.4l-0.2-0.8c-0.2-0.6-0.2-1.1-0.3-1.7c-0.1-1.2-0.2-2.3-0.3-3.1c-0.1-1.1-0.2-2.2-0.6-2.4
						c0.2,0,1.9,1.2,2.2,1.6c0,0-0.2-0.7-0.5-1.7c-0.4-1-0.6-2.5-0.9-4c-0.3-1.5-0.4-3-0.5-4.2c-0.1-1.2-0.1-1.9-0.1-1.9
						c1,1.5,5.8-0.2,4.6,4.5c0.7-1.2,1.6-2.6,2.5-5.4c-0.6,0.7-3.1,1.2-2.6-0.1c3.2-2.5,1.9-1.8,5.3-5.2c-1,1.2-2.3-1.4-1.2-3.4
						c0.2,0.5,2.2,0.9,2,1.8c0,0,0.1-1.6,0.3-3.2c0.1-1.6,0.2-3.2,0.2-3.2c-0.2,1.5,1.7,1.1,2.9,0.1c-0.7,0.4,2.2-4.8,2.4-6.6
						c0,0-0.3,0.6-0.7,1.2c-0.3,0.6-0.7,1.1-0.7,1.1c0.7-1.6,0.9-2.9,1-4c0-1.1-0.2-2.1-0.4-3c-0.4-1.8-1-3.6-0.6-6.8
						c0.4,0.8,2.8,2.4,3.4-1.1c-0.3-0.4-0.7-1.1-1.3-2c-0.6-0.8-1.3-1.9-1.9-3c-1.3-2.3-2.7-4.9-3.3-7.7l0.7-1.1l-0.9-4.4
						c1.9,2.7,6.1,10.2,7.3,14.7c0.6-2.5,0.9-0.7,0.9-4.5c0.6-1.3,1,2.1,1,3.2c0,0,0-0.6,0.1-1.4c0-0.8,0.1-2,0.1-3.1
						c0.1-1.1,0.1-2.2,0.1-3c0-0.8,0-1.4,0-1.4c-1.4,0.4-1.6-6.5-2.8-6.1c0,0,0.5,2.3,0.9,4.6c0.4,2.4,0.9,4.7,0.9,4.7
						c-1.4,0.4-4.1-5.4-4.1-11.4c0.5-1.5,2.6,1.1,3,0.9c-0.5-0.8-1.1-5.6-0.7-6.2l0.8,2.5c0.2-1.7-0.3-3-0.6-4.4
						c-0.4-1.4-0.6-2.9,0.2-4.8c0.1-1.4,2.2-3.6,1.4-4c-1.8,1.8-6.9,1.9-7.9,0.2c0-0.1,0.2-0.6,0.5-1.4c0.3-0.7,0.7-1.7,1.1-2.6
						c0.2-0.5,0.4-1,0.6-1.4c0.3-0.5,0.5-0.9,0.8-1.3c0.5-0.8,0.9-1.4,1.2-1.8c0.9-0.9,1.4,0.2,1.9,1.2c0.5,1.1,0.9,2.1,1.7,1.3
						c-0.4-0.2-0.5-1.4-0.5-2c0.8-1.2,0.9,0.9,1.8-1.8c-1.3-1.1,2.8-5.2-0.6-1.8c0.6-1.7,1.1-2.3,1.8-3.2c-1.5-0.4-3-0.7-4.6-1.1
						c0,0.7-0.1,1.6,0,3c0.8-1.2,3.4,3,4,6.1c-0.4-0.2-0.8,0.6-1,0.9c0.3,6.4-0.1,9.8,0.2,15.8c-0.3,0.6-0.5,3.5-1.2,2.3
						c0.3,0.8,0.8,1.6,1,3.4c-1,3.6-0.5-4.1-1.8-1.3c0.8,0.2,1.5,4.7,2.1,7.2c1.2-0.9-0.2-6-0.8-8.6c1.8-0.1,3.9,4.3,5.2,10.5
						c0.8,4.9-1,2.2-0.7,3.1c0.2,4.6,1.1,6.6,1.8,8.3c0.8,1.7,1.4,3.3,0.8,7.2c-1,3.1-2.2,0.2-3,1c-0.5-4,0.5-6.2,0.3-8.9l-0.3,3.4
						c-0.5-1.3-0.9-3.9-0.7-5.4c-0.7,2.6,0.5,15.7-0.3,22.9c0.4,1.3,0.9,3.4,1.3,2.4l-0.2-2.3c0.8-2.1,1.4,4.2,1.7,1.3
						c0.7,3,1.8,6.4,1.5,10.7l-1.3,0.8c0.4-0.1,0.7-2.8,0.3-4c0.6,1.8-1.5,6.6,0.2,8.5l0.8-3c0.7,3,2.2,6.8,1.9,10.6
						c1.2-1.8-0.2-0.9,1.2-3.6c-1.8,2.4-0.2-9.7-2-5.9c1.6-2.8,0.6-4.8,2-8.5c-0.4,0.1-0.8,1.3-0.7-1.9c-0.1-0.1-0.3-0.5-0.4-0.7
						c0-0.1,0-0.1,0-0.2c0,0.1,0,0.1,0,0.2c-0.1-0.1-0.1-0.1,0,0.1c-0.2,0.8-0.4,1.4-0.6,1.6c-1-1.6-1.1-6.6-1.7-8.3
						c0.1-1.9,0.5,0.8,0.9-0.3l-0.8-2.5c0.9-0.3,1.4-5.1,2.1-0.7l-0.1-4c0.5-2.4,0.6-5.7,0.1-7.6c0.1-1.9-1.4-4.7-0.5-3.1l-1-6.3
						l0.2-0.1c-0.3-6.2-2.4-12.7-1.2-19.9c-0.4-2.1-0.8-4.2-0.8-7.7l0.8-0.7c-0.5-2.7,0.3-8.1-0.6-9.2c0.9-1.4,0.9-4.2,0.7-7.3
						l-1.8-22l-11.1,18.9c-2.3,4-3.8,8.8-4.7,11.6l1,0.5c-0.6,1.8-0.7,3.5-1,5.4c-0.1,1.8-0.2,3.8-0.1,6l1-0.2
						c0.5,3.7-0.9,9.3-0.6,14.8c-0.4-0.4-0.3-1.8-0.1-2.8c-1.9,6.7,2.1,13.8,0.2,19.4c0.2,1.4,0,2.4-0.3,3.3c0-0.1,0-0.2,0-0.3
						c0,0.1,0,0.3-0.1,0.6c-0.2,0.6-0.5,1.2-0.8,1.8c0.3-0.5,0.6-1,0.8-1.5c-0.2,1-0.2,2.6-0.3,4.2l-1.1,0.4c0,0.1,0,0.2-0.1,0.3
						c-0.7,1.3,0.2,1.3,1.1,0.7c0,0.8,0,1.6,0.1,2.2c-1,0.4-1.2,1.4-1.4,2.4c-0.3,1.1-0.6,2.2-1.8,2.6c0.2,0.7-0.5,2.6-1.2,4.5
						c-0.6,2-1.3,4-0.7,4.8c-0.2-0.1-0.6,0.3-0.2-0.5c-1.1,1.6-2.1,3.2-2.5,4.9l-1.5,0.1c0,0-0.1,1.1-0.2,2.3
						c-0.1,1.1-0.1,2.3-0.1,2.3c-1.8,2-2.7,2.9-2.5,0.1c-0.6,3.2-0.9,4.5-1.2,5.6c-0.3,1.2-0.5,2.2-0.4,5.1l-0.7-0.4
						c-0.1,0.5-0.1,1-0.2,1.7c0,0.8-0.1,1.6,0,2.3c0.1,1.4,0.2,2.6-0.2,3.4c-0.3,0.7-0.3,1.7-0.2,2.9c0,0.6,0,1.2,0.1,1.9
						c0.1,0.7,0.2,1.4,0.3,2.2c0.1,0.4,0.1,0.8,0.2,1.2c0.1,0.3,0,1.1,0.5,0.8c0.8-0.1,1.6-0.1,2.5-0.2c0.9-0.1,1.8-0.1,2.7-0.2
						c0.9-0.1,2-0.3,3-0.5c1.8-0.3,3.7-0.6,5.7-0.9c1.5-0.2,3.1-0.5,4.6-0.7c3.1-0.4,6.1-0.8,8.8-0.9c-1.3-1,0-1,1.6-0.9
						c1.6,0,3.5,0,3.5-1c0.7,0.4,2.2,0.4,0.7,1.3c5.2-1.8,8.2-1,11.4-3.4c0.7,0.4-0.9,1.1-0.3,1.3c0.4-0.2,1.6-0.9,2.2-0.7
						c0.6,0.2-0.7,0.7-1.4,1.1c5.4-1.4,5.5-3.2,5.5-4.9c2.9,0.1,4.3-0.3,5.9-1.9c1.1,0.3,2.8,0.3-0.5,1.5c1.9-0.5,11.5-2.6,11.3-4
						c0.7,0.2,2.6-0.7,3.1-1c4.2-1.2,4.6-1.2,8.6-2.5l-1.2,0.1c1.1-2,3.2-1.4,6.4-2.8l0,0.2c7.8-1.6,3-1.7,10.7-3.1l-0.7-0.8
						c-0.1-2.2,6.4-1.2,10.4-3.2l20.8-10.4l-22.1,5.6c-0.2,0-0.3,0.1-0.5,0.1l0.5,0.1l19.4,4l-18.2,0.2l-1.2,0
						c0.3-0.2,0.6-0.4,1-0.4l15.4-3.9l-16.4,0.5c-2.5,0.1-6.4-2.2-8.5-2.1c-0.5-0.1,0.8-0.4,1.5-0.7c-6.4-0.4-0.6,1.4-5.3,2.4
						c-0.9-0.6,0.9-2-2.3-1.6c-1.6-0.4-8.9,3.1-13.4,2.2c1,0.5,2,0.9-0.2,1.5c-3.4,0.4-9.2-1.7-12.2,0.2c-0.4-0.1-0.6-0.3-0.6-0.4
						c-2.6,0.6-8.3,0.8-9.9,1.7c-0.3-0.4-0.8-0.7-1.4-0.9c-0.3-0.1-0.7-0.2-0.9-0.2c-0.2-0.1-0.4-0.1-0.6-0.1
						c-0.9-0.1-2,0.3-3.3,0.2c-0.6,0-1.2-0.3-1.5-0.7c-0.3-0.4-0.4-0.9-0.4-1.3c0.1-0.9,0.6-1.5,1.4-1.6c0,0,0.2-1,0.4-2.1
						c0.3-1,0.5-2,0.6-2.8c0.1-0.8,0.2-1.3,0.2-1.3l0.3,0.3c0.7-2.6,0.7-4.4,0.7-5.8c0-1.4-0.3-2.4-0.6-3.3c0.3-1.2,0.5-0.3,0.7-0.2
						c1.3-7.7,1-8.6-0.9-15l1-0.7c-0.3-0.8-0.2-3.3-0.3-6.6l-0.8-28.8l-6.7,28.9c-0.8,3.4-1.7,7.8-1.5,11.7
						c-0.1-0.1-0.3-0.3-0.4-0.9c0.1,4.2-1.3,9-2.2,13.2c0,0.2-0.1,0.6-0.2,1.1c-0.1,0.4-0.1,0.8-0.2,1.2c-0.1,0.8-0.3,1.6-0.4,2.4
						c-0.2,1.6-0.4,3-0.5,4.3c-0.2,2.5,0.1,4.2,1,4.3c0,0,0,1.6,0.1,3.2c0,1.5,0.1,2.9,0.1,2.9c0.8-4.8,1.2-4.9,1.6-4.6
						c0.4,0.3,0.8,0.9,1.4-1.1c0,1.2-0.6,3.5-1.2,5.3c-0.6,1.8-1.1,2.9-1,1.1l0.3-1c-1.1,1-1.7,4.1-2.2,7.4c-0.1,0.6,0,0.3,0.1,0.2
						l0.3-0.3c0.2-0.2,0.3-0.1,0.4,0c0.1,0.1,0.1,0.3,0,0.6c-0.1,0.4-0.3,0.9-0.6,1.5l0.4,0.9c0.1,0.6,0.2,1.5,0.3,2.2l1.5-2.1
						l1.3-1.8l2.7-3.6c0.5-0.7,0.8-1,1.1-1.5l1.1-1.4l1.1-1.4c0.4-0.5,0.7-1,1-1.2l1.7-1.8l0.8-0.9l0.8-0.5c1-0.7,2-1.4,3-1.9
						c2.3-1.3,3.3-1.5,4.8-2.1c1.4-0.5,2.8-1,4.3-1.5c5.8-1.8,11.9-3.5,17.6-5.9l-2-0.8l4.3-1.7c1.3-0.2,2,0.5-1.1,1.7
						c2,0.2,4.8-3,4.7-3.3c6.2-2.3-1.5,2.7,0.3,1.9l2.4-1.3l-0.6,0.1c1.7-1.6,1.6-2.3,5.1-4.2c2.3-1.1,1.6,0.1,2.5-0.4
						c0.1,0.1,0.4-0.1,1.4-0.8c0.1,0.1,5-3.6,5-3.6l-2.7,0.5c0.9-1.1,2-1.9,2.5-2.4c0.5-0.6,0.4-0.7-1.1-0.3
						c1.1-0.2,2.7-1.3,4.5-2.8c1.8-1.5,3.7-3.7,5.3-6c3.3-4.5,4.9-9.7,5.7-10.8c0.4-3.9,1.3-7.5,1.4-12.3c-0.1,0.6-0.6,1-0.9,0.8
						c-0.3-0.2-0.6-1-0.6-3c1.4,0.7,1.7-1.2,1.5-3.7c-0.2-2.5-1.1-5.6-0.9-7.6c0,0.9-0.3,0.6-0.8-0.2c-0.5-0.8-1.2-2-2-3.2
						c-1.6-2.3-3.5-4-2.7-1.6c-2-2.8,0.7-0.8-0.5-3.3c-3.2-2.7-6.6-5.6-10.4-8.2c-3.8-2.6-8-5-12.4-6.6c-0.3,0.3,1,1.4-1.1,1.2
						l-3.9-3.5c-1.8-0.5-2.3,1.4-5-1c0.3,0.5,0.8,1.1-0.4,0.8c-6.5-3.3-13.1-6.4-18.6-10.7c-2.8-2.1-5.3-4.7-7-7.5
						c-0.6-1-1.1-2-1.3-3.1c-0.1-0.5-0.3-1-0.3-1.6l0-0.8c0-0.1-0.1-0.3,0.1-0.3l0.5,0l2.8-0.2l1.3,0l2.5-0.5
						c-2.7,0.2-1.1-0.4,0.8-1.1c-1.3,0.3-0.3-0.9-0.7-1.2c0,0,0.5-0.1,1.2-0.3c0.7-0.2,1.7-0.5,2.7-0.7c1-0.2,2-0.6,2.7-0.9
						c0.7-0.3,1.2-0.4,1.2-0.4c0.3-0.9,2.1-2.2,3.9-3.3c1.7-1.3,3.3-2.5,3.1-3.3c0,0-0.4,0.5-0.9,0.9c-0.5,0.4-0.9,0.9-0.9,0.9
						c0.9-1.7-0.6-1.6-2.4-1.4c-1.7,0.2-3.8,0.2-4.1-0.7c-0.5,0.9-1.3,1.5-2.3,1.9c-1,0.4-2.2,0.8-3.5,1c-1.3,0.3-2.5,0.6-3.9,1
						c-0.7,0.2-1.3,0.5-1.9,0.9l-0.2,0.1l-0.4,0.2l-0.7,0.3c-0.5,0.2-0.9,0.5-1.3,0.7c-2,0.1,1.1-1,0-1.2c-0.8,0.6-1.6,1.1-2.7,1.5
						c-1.1,0.4-2.5,0.7-4.5,1c-0.1,0.1-0.2,0.2-0.3,0.4l-0.2,0.2c0,0.1,0,0.2,0,0.4c0,0-0.3-0.6-0.3-0.6c0.2,1.5,0.5,3.1,0.7,4.4
						c0.1,0.7,0.3,1.3,0.4,2c0.1,0.3,0.1,0.6,0.2,0.9c0.1,0.3,0.2,0.6,0.3,0.9c0.4,1.2,0.7,2.4,1.3,3.5c0.5,1.1,1.1,2.4,1.6,3.2
						c2,3.4,4.5,6.8,9,10.5l-0.1-1.3c1.8,1.6,2.1,2.1,2.9,3c1.6,0.1,0.2-0.8-1.2-1.8c-1.4-1-2.7-2.2-1.2-2.1
						c0.6,1.8,4.1,4.3,7.7,6.3c3.6,2,7.1,3.6,7.6,5.1c3.4,1.4-0.5-1.5,2.8-0.1l0.7,0.9l1.1-0.4c2.1,1,2.9,2.1,2.8,2.6
						c-0.5-0.3-1.5-0.4-2.1-0.6c2.5,1.7,7.8,2.8,8.6,3.4l-2.9-1.6c4.4,1.5,9.1,3.5,13.3,6c4.2,2.4,7.8,5.3,10.7,8.1l0-0.8
						c2.3,2.2,2.7,3.5,3.1,4.7c0.2,0.6,0.3,1.3,0.6,2.2c0.2,0.9,0.6,2,1,3.7l-0.2-0.2c0.8,1.2,1.2,3.1,1.1,5c-0.3-0.9-0.5,0-0.8,0.7
						c-0.3,0.7-0.6,1.4-0.9,0.3c0.2,1.6,0.2,2.7,0.2,3.4c0.1,0.7,0.1,1.1,0.2,1.4c0.1,0.6,0.6,0.9,0.7,3.5l-1.1,0.8
						c0.1,1.7,0.5,2-0.9,5.5c0.4-1.5-0.2-1.1-0.7-0.8c-0.6,0.3-1,0.6-0.7-1.1c-2.3,3-3.5,5.3-4.6,7.3c-0.6,1-1.1,1.9-1.8,2.5
						c-0.6,0.7-1.5,1.1-2.6,1.2c-0.5,2,0.9,1.1,2.3-0.1c0.6-0.6,1.3-1.4,1.7-1.8c0.4-0.5,0.6-0.7,0.4-0.2c1.6-0.9-0.6,3.4-2.7,4.8
						c-1,0.8-2.1,1.1-3.8,1.5c-1.7,0.4-3.5,1.1-6.1,2.7c0.5-0.3,0.5-0.5,1-0.8c-1.1,0.4-1.9,1.2-2.9,1.9c-1,0.7-2,1.4-3.5,1.7
						c-0.8,2-3.4,1.6-3.1,3.3c0,0,1.3-0.7,2.5-1.4c1.2-0.8,2.4-1.5,2.4-1.5c-0.7,0.5-1.3,1.1-1.9,1.7c-0.6,0.6-1.3,1.2-2.1,1.8
						c-0.8,0.6-1.6,1.2-2.6,1.7c-1,0.5-2.2,0.9-3.5,1.2c0.3-0.5,1.6-1.5,2.5-2.2c-1.7,0.2-2.7,1.5-4.4,1.7c-0.1-0.8,1.5-1.6,3.5-2.5
						c2-0.8,4.2-2,5.5-3.3c-1.8,0.1-5.4,3.9-4.6,1.5c-0.7,1.5-2.2,2.1-3.8,2.6c-1.7,0.5-3.6,1-5.4,2.6l-0.1-1
						c-0.6,0.4-1.8,1.3-3,1.7l1.7-2c-2.9,2.2-6.7,1.3-9.9,3.1c6.9-2.5,2,0.6,5.1,0.2c-4,2.1-5.4,2-7.1,1.8c-0.8-0.1-1.7-0.2-3,0
						c-0.6,0.1-1.4,0.3-2.3,0.7c-1.2,0.5-1.1,0.4-1.4,0.7c0.1-0.1,0.2-0.1,0.3-0.1c0.1,0,0.2,0,0.2,0c0.2-0.1,0.5-0.1,0.7-0.2
						c0.9-0.2,1.4-0.1,0.5,0.6c-0.2,0.1-0.5,0.2-0.8,0.3c-0.1,0-0.2,0-0.3,0c-0.2,0-0.4,0-0.6,0c-0.3,0-0.6-0.1-0.7-0.4
						c-0.7,0.6-0.8,1-0.7,1.2c0.1,0.3,0.5,0.4-0.1,1.2c-0.3-0.8-0.8,0.5-2,2.1c-0.3,0.4-0.6,0.8-0.9,1.2l0.9-1.8
						c-0.8,0.6-1.4,1.8-2.2,3.2c-0.3,0.5-0.5,0.9-1.1,1.9c0,0.1-0.1,0.1-0.1,0.2c0,0,0,0,0-0.1c0-0.1,0-0.2,0-0.3
						c0-0.3,0.1-0.8,0.3-1.5c0,0,0.4-0.3,0.8-0.7c0.4-0.4,0.8-0.9,0.8-0.9c0,0-0.3-0.8-0.3-0.8c0,0,0.4-0.5,0.7-0.9
						c0.4-0.5,0.7-1,0.7-1c-0.5,0.2-0.6-0.1-0.5-0.6c0.1-0.5,0.3-1.2,0.5-2c-0.4,0.5-0.9,0.9-1.3,0.9c-0.4,0-0.6-0.5-0.5-1.5
						c0.8-1.5,0.9,0.3,1.1-2.1c0.3,0.3,0.6,0.5,0.8,0.7c0.1,0.2,0.1,0.5-0.5,1.2c0.3-0.1,0.6,0,1-0.1c0.4-0.6,0.5-1,0.5-1.4
						c0-0.4-0.1-0.5,0-1.8c-0.1,0.3-0.1,0.7-0.2,1c0,0.1-0.1,0.2-0.2,0.3c0,0,0,0,0-0.1c0,0,0-0.1-0.1-0.1l0-0.1c0-0.1,0-0.1,0-0.2
						c0-0.7-0.1-1.5-0.2-2.4c-0.1-1.7-0.3-3.5-0.3-3.5c0.5-1,0.7-0.1,0.9,0.7c0.1-1.4-0.3-2.4-0.1-4.4c0.8,0.6,1.6,0.6,1.6,3.5
						l-0.1-6.6c0.4-0.4,1.4-3.2,1.6-2.3c0.7-2.5,0.2-5.9,0.2-9.3c-3.8,0-7.6,0.1-11.5,0.1c0.3,1.3,0.5,2.7,0.5,4
						c0.2,0.2,0.4,0.7,0.6,1.6c0,1.1,0,2.1,0,3.1c-0.1,1-0.2,2-0.2,3.1c0,1-0.1,2.1-0.1,3.2c0,1.1,0.2,2.3,0.3,3.5l-1.7,2.7
						c-0.1,3.9,2.4-3.6,2,2.9c-0.1,2.3-0.5,2.7-0.9,2.7c-0.4,0-0.9-0.4-1.3,0.3c0.1,1.2,0.5,2.8,0.3,4.7c0,0.2-0.1,0.6-0.1,1
						c-0.1,0.4-0.1,0.8-0.2,1.2c-0.2,0.8-0.3,1.6-0.5,2.4c-0.3,1.6-0.6,3.2-0.7,4.9C162.6,1277.9,163,1276,163.4,1273.8z
						 M213.1,1285c-1,0.3-2.9,1.1-3.7,0.6C210.4,1284.3,211.4,1284.8,213.1,1285z M172.8,1294.3c0.6-0.5,1.8-0.6,3.1-0.5
						C175.1,1294.1,174,1294.3,172.8,1294.3z M160.4,1253.9c0,0,0-0.1-0.1-0.1C160.7,1251.6,160.6,1252.4,160.4,1253.9z
						 M160.1,1258.6c0.2,0.5,0.3,0.4,0.4,0.2c-0.3-0.3-0.3-1.3-0.3-2.5C160,1256.6,159.8,1257.2,160.1,1258.6z M221.6,1256.7
						l-0.9,0.3C222.3,1255.5,222,1256.1,221.6,1256.7z"/>
					<path d="M181,1290.9c0.3,0.1,0.4,0.2,0.5,0.4C181.9,1291,181.9,1290.8,181,1290.9z"/>
					<path d="M165.8,1242.8l0-0.1c-0.1-0.1-0.1-0.1-0.2-0.1L165.8,1242.8z"/>
					<path d="M152.4,1204.2c-0.4,0.8-0.7,1.2-0.9,1.4C151.6,1205.7,151.9,1205.4,152.4,1204.2z"/>
					<path d="M162.6,1283l-0.4-3c0.1,1.4-0.1,1.9-0.3,2.7C162.2,1282.6,162.5,1282.1,162.6,1283z"/>
					<path d="M151.1,1302.7c-0.4,0.1-0.9,0-1.3,0.1l0.2,0.5C151.9,1303.3,153,1302.9,151.1,1302.7z"/>
					<path d="M159.3,1285.8c-0.8,0.3-0.5,2.1-0.3,4.2c0-0.1,0-0.2,0-0.4C160.2,1290.2,159.7,1288,159.3,1285.8z"/>
					<path d="M159,1290.5c0.1,0.6,0.1,1.3,0.1,1.9C159.6,1292.6,159.2,1291.6,159,1290.5z"/>
					<path d="M160.9,1264.4c-0.2,1,1.1,0.6,0.8,1.1C162.8,1266.6,160.1,1259,160.9,1264.4z"/>
					<polygon points="156.5,1287.6 157.6,1286.8 156.7,1285.6 					"/>
					<path d="M156.8,1271.2l-0.2,3.3c0.2-0.1,0.3,0.4,0.4,0.9C157,1273.4,157.1,1271.1,156.8,1271.2z"/>
					<path d="M157,1275.4c0,1.1,0.1,2.1,0.3,2.7C157.2,1277.5,157.2,1276.2,157,1275.4z"/>
					<polygon points="156.1,1283 156.3,1282.1 156.3,1279.7 					"/>
					<path d="M155.5,1235.7l-0.5-3.6c-0.4-0.3-0.5,0.6-0.3,2C154.9,1235,155.2,1236.3,155.5,1235.7z"/>
					<path d="M153.3,1246.8c0.2-1,0.4-1.1,0.7-1.6l-1.3,0L153.3,1246.8z"/>
					<path d="M152.3,1236.3c-0.4-0.3-1.4-5.2-1-0.6C151.7,1236,152.2,1239.6,152.3,1236.3z"/>
					<polygon points="147.6,1208.4 147.8,1207.5 145.7,1207.2 					"/>
					<path d="M150.6,1257.2c1.4-4.6-1.1-1.3,0.3-5.4c-0.3-1.1-1.1,3.3-1.3,2.1c0.1,1.4-0.1,2.5-0.1,3.1
						C149.5,1257.6,149.8,1257.7,150.6,1257.2z"/>
					<path d="M149.6,1253.9c0-0.5,0-0.9-0.1-1.4C149.5,1253.3,149.5,1253.7,149.6,1253.9z"/>
					<polygon points="196.3,1148.3 199,1146.8 197,1147.4 					"/>
					<path d="M199.8,1143.4l1.4,0.5l0.5-2.1C201.2,1142.4,200.3,1143.3,199.8,1143.4z"/>
					<path d="M221.2,1286.8l0.2-0.4c-0.5-0.3-1.1-0.2-2.4-0.1L221.2,1286.8z"/>
					<polygon points="183.1,1288.3 183.8,1288.4 182.6,1287.1 					"/>
					<path d="M163,1263.3c-0.2,1.1-0.2,2.5-0.5,3.7C162.9,1264.4,164.6,1263.2,163,1263.3z"/>
				</g>
			</g>
		</g>
	</g>
</g>
<line fill="none" stroke="#231F20" stroke-width="0.5702" stroke-miterlimit="10" x1="147" y1="593.9" x2="145.3" y2="574.8"/>
<g>
	<path fill="#FFFFFF" stroke="#231F20" stroke-width="1.0885" stroke-miterlimit="10" d="M416,838.7c0,0-0.8-2.8-3.9-3.8
		c-3.2-1-10.8,2.6-12.8,3.8c-2,1.1-10,6.8-11.1,9.5c-1.1,2.6-1.9,7.7-1.1,9.4c0.7,1.7,2.1,5.5,1.6,7.5c-0.5,2-3,1.2-4.6,0.3
		s-5.1-4.7-7.2-3s-5.6,8.8-5.8,11s0,12.3,1.3,14.2c1.3,1.9,3.4,4.8,5,3.3c1.6-1.5,3.2,2.1,5.4,2c2.2-0.1,22.7-9.8,25.9-12.8
		c0.3-0.3,2.4-3,2.3-4.5c0-1.6-2.1,0.8-2,0.7c0.6-1.1-1.7,2-2,2.3c-0.4,0.4-3.8,3.1-6.5,4.3s-15.2,9.5-16.5,8.3
		c-1.3-1.2-1.5-3-0.6-4.6c0.9-1.6,13.7-18.8,16.2-20.5c2.5-1.7,18.5-21.3,32.9-19.3c0,0,0.3-0.1,2.3,0.7s0.7,2.9,2.5,3.3
		c1.8,0.5,4.6-1.5,2.6-2.8c-2-1.3-4.6-5.7-6.4-6.3C431.9,840.9,429.2,837.8,416,838.7z"/>
	
		<rect x="398" y="850" transform="matrix(0.7183 -0.6957 0.6957 0.7183 -479.8717 520.6028)" fill="#FFFFFF" stroke="#231F20" stroke-width="0.6531" stroke-miterlimit="10" width="9.9" height="5.8"/>
	<path fill="#FFFFFF" stroke="#231F20" stroke-width="0.8708" stroke-miterlimit="10" d="M435.6,844.1c-0.2,0.2-11.5-1.6-14.8-0.3
		s-10.5,7.2-11.7,8.6c-1.3,1.4-5.5-4.9-5.5-4.9s8.2-8.8,12.5-8.3s12.7-0.2,15.8,1.8C435,843,435.6,844.1,435.6,844.1z"/>
	<circle fill="#231F20" cx="409.1" cy="847.3" r="1.9"/>
	
		<rect x="400.7" y="852.2" transform="matrix(0.709 -0.7052 0.7052 0.709 -485.7856 531.6155)" fill="#FFFFFF" stroke="#231F20" stroke-width="0.2177" stroke-miterlimit="10" width="1.2" height="4.5"/>
	
		<rect x="402.4" y="852.1" transform="matrix(0.709 -0.7052 0.7052 0.709 -484.7707 532.5592)" fill="#FFFFFF" stroke="#231F20" stroke-width="0.2177" stroke-miterlimit="10" width="1.1" height="3.2"/>
	<circle fill="#FFFFFF" cx="409" cy="847.3" r="0.5"/>
	<line fill="none" stroke="#231F20" stroke-width="0.4354" stroke-miterlimit="10" x1="380.8" y1="883.9" x2="379.5" y2="869.3"/>
	<path fill="none" stroke="#231F20" stroke-width="0.4289" stroke-miterlimit="10" d="M413.8,839.5c0,0-1-2.1-4.3-2.3
		s-9.7,4.2-14.1,6.8s-5.7,5.2-6,8.1c-0.2,2.9,0.7,4.9,1.3,7.5s0.1,5-0.7,6.4c-0.8,1.4-4.3,2.8-6.3,1.8c-2-1-3.2-3.9-4.9-3.5
		c-1.7,0.5-3.5,4.1-4,7.1c-0.5,3-3.1,6.8-2.6,8.3c0.4,1.5,0.2,6,2.6,7.7s3.5,1.2,4.6,0.8s20.2-30.3,37.5-40.5c0,0,0.5-2,0.3-1.9"/>
</g>
</svg>
