<?xml version="1.0" encoding="utf-8"?>
<!-- Generator: Adobe Illustrator 17.1.0, SVG Export Plug-In . SVG Version: 6.00 Build 0)  -->
<!DOCTYPE svg PUBLIC "-//W3C//DTD SVG 1.1//EN" "http://www.w3.org/Graphics/SVG/1.1/DTD/svg11.dtd">
<svg version="1.1" id="Layer_1" xmlns="http://www.w3.org/2000/svg" xmlns:xlink="http://www.w3.org/1999/xlink" x="0px" y="0px"
	 viewBox="-31.5 0 403 1012.9" enable-background="new -31.5 0 403 1012.9" xml:space="preserve">
<g>
	<g>
		<g>
			<g>
				<g>
					<path d="M103.3,868.9c-1.6,0.8-0.6,1.2-0.8,1.4C105.1,868.7,103.1,868.7,103.3,868.9z"/>
					<path d="M126.9,846.1v0.6c0,0,0-0.4,0.2-0.8c0.2-0.4,0.4-1.2,0.4-1.8c0.2-0.6,0.2-1.2,0.2-1.8s0-0.8,0-0.8
						C128.1,841.9,127.1,846.3,126.9,846.1z"/>
					<path d="M122.9,816c0.4,1.6,2.2,3.8,3.8,6.6c1.6,2.8,2.6,6.4,2.6,9.2l-0.2,1c0,0,0.2,0.6,0.6,1.2c0.2,0.6,0.4,1.4,0.4,1.4
						c0.2-3.6-0.6-7.6-2.2-11.2C126.3,820.8,124.3,818,122.9,816z"/>
					<path d="M110.9,803.4c0.4,0.4-0.6,0.2-0.6,0.2s0.6,0.2,4.2,2c-0.4-0.2-0.4-0.4-0.6-0.4C113.3,804.6,112.3,804.2,110.9,803.4z"
						/>
					<path d="M113.9,805C116.9,806.6,112.1,803.4,113.9,805L113.9,805z"/>
					<path d="M99.1,799.4c0,0,1.2,0.2,2.2,0.4c1.2,0.2,2.2,0.4,2.2,0.4c-0.8-0.6-4.6-1.8-3.2-1.6c-2.2-0.4-3.2-0.4-3.2-0.4
						C97.1,798.6,98.1,798.8,99.1,799.4z"/>
					<path d="M94.9,799.6c0,0,0.6,0,1.2,0.2c0.6,0,1.2,0.2,1.2,0.2C96.9,799.6,96.3,799.4,94.9,799.6z"/>
					<path d="M101.9,800.6c0,0-1.2-0.2-2.4-0.4c-0.6,0-1.2-0.2-1.6-0.2s-0.8,0-0.8,0c0.6,0.4,0.6,0.8,2.2,0.4
						C98.9,800.4,99.9,800.2,101.9,800.6z"/>
					<path d="M104.5,801.6c2.2,1.2,5,2.4,0.8,1.4c4,1.4,5.6,2,5.4,1.8C110.5,804.4,108.5,803,104.5,801.6z"/>
					<path d="M120.7,815.8c0,0,0.4,0.6,0.8,1.4c0.4,0.6,0.8,1.4,0.8,1.4s0.4,0.4,1,1c0.4,0.4,1,1,1,1c-0.2-0.2-0.4-0.8-0.8-1.2
						c-0.4-0.6-0.8-1.2-1.2-1.6C121.7,816.4,120.9,815.4,120.7,815.8z"/>
					<path d="M94.5,790.6c-0.2-0.2-1.2,0.6-1.6,0.8c0,0-0.2,0.6-0.2,1.2c0,0.2,0,0.6,0,0.8s0,0.4,0,0.4
						C93.1,792.6,94.1,790.6,94.5,790.6z"/>
					<path d="M93.1,791.4c0,0,0-0.2,0.2-0.6c0-0.4,0.2-0.8,0.4-1.2c0.2-0.4,0.2-0.8,0.4-1.2s0.2-0.6,0.2-0.6c-0.2,0.4-0.4,0.6-0.6,1
						c-0.2,0.2-0.2,0.6-0.4,0.8c-0.2,0.4-0.2,0.8-0.4,1.2C92.7,791.2,92.9,791.4,93.1,791.4z"/>
					<path d="M93.9,800.8c0,0,2,0,4,0.2s4,0.4,4,0.4s-2.4-0.4-4.6-0.6c-1.2-0.2-2.4-0.2-3.2-0.2c-0.6,0-0.8,0-0.8,0L93.9,800.8z"/>
					<path d="M102.9,781.3c0,0-0.4,0.4-0.6,0.8c-0.4,0.4-0.6,0.8-0.6,0.8s0.6-0.6,1.2-1.4c0.6-0.6,1.4-1.2,1.4-1.2L102.9,781.3z"/>
					<path d="M112.5,777.5c-0.8,0.6-0.2,0.6,0.6,0.6c0.6,0,1.4,0,0.4,0.4c0.8-0.2,1.6-0.6,2.2-0.8s1.4-0.6,2-1s1.4-0.6,2-1.2
						c0.6-0.4,1.2-0.8,1.8-1.2c-0.6,0.4-1.4,0.8-2,1s-1.4,0.6-2.2,0.8c-0.8,0.2-1.6,0.4-2.2,0.6
						C114.1,777.1,113.3,777.3,112.5,777.5z"/>
					<path d="M125.1,771.5c-1.2,0.8-2.4,1.8-3.8,2.8C122.7,773.5,124.1,772.5,125.1,771.5z"/>
					<path d="M97.9,783.1c0.2,0,0.4,0,0.8-0.2c0.4-0.2,1-0.4,1.8-0.8c0,0-0.4,0-0.8,0c-0.4,0-0.8,0-0.8,0
						C98.5,782.5,98.3,782.7,97.9,783.1z"/>
					<path d="M98.9,782.1L98.9,782.1c1.2-0.8,2.2-1.4,2.6-1.6c-0.2,0-0.4,0.2-1,0.6c-0.2,0.2-0.6,0.2-0.8,0.4
						C99.5,781.7,99.1,781.9,98.9,782.1z"/>
					<path d="M97.7,783.3l0.2-0.2C97.7,783.1,97.7,783.1,97.7,783.3z"/>
					<path d="M90.8,796.8v-0.2c0-0.2,0-0.2,0-0.4c0-0.4,0-0.6,0-1c0-0.6,0-1.4,0-1.8c0-0.8-0.4-1.2-1.2,1.2c0.2,0.8,0.4,0.6,0.6,0.6
						c0.2,0,0.2,0,0.4,0.4c0,0.2,0.2,0.4,0.2,0.6C90.6,796.2,90.8,796.6,90.8,796.8z"/>
					<path d="M95.7,783.9c0,0-0.2,0.2-0.4,0.4c-0.2,0.2-0.6,0.6-0.8,1.2c-0.4,0.4-0.6,0.8-0.8,1.2c-0.2,0.4-0.4,0.6-0.4,0.6
						c0.2,0,0.8-0.4,0.4,0.6c0,0,0-0.2,0.2-0.6c0.2-0.4,0.4-0.8,0.6-1.4c0.2-0.4,0.6-1,0.6-1.4C95.5,784.3,95.7,783.9,95.7,783.9z"
						/>
					<path d="M96.9,782.3c0,0-0.2,0.4-0.6,0.8c-0.2,0.4-0.6,0.8-0.6,0.8s0.2-0.2,0.4-0.6c0.2-0.2,0.6-0.4,0.6-0.4L96.9,782.3z"/>
					<path d="M116.5,774.9c2-1.2,4.2-2.2,6.6-3.6c-1.4,0.8-2.8,1.4-4.2,2c-1.4,0.6-2.8,1.2-4,1.6
						C114.7,775.1,113.7,776.1,116.5,774.9z"/>
					<path d="M106.9,778.1c0.2,0,0.2-0.2,0.4-0.2C106.9,777.9,106.9,777.9,106.9,778.1z"/>
					<path d="M141.5,751.3c-0.2,0.2-0.2,0.2-0.4,0.2c0,0,0,0,0,0.2L141.5,751.3z"/>
					<path d="M114.5,774.7c-2,0.6-3.2,1.2-4.2,1.8c0.6-0.2,1.4-0.6,2.2-0.8c0.8-0.2,1.6-0.6,2.4-0.8
						C115.1,774.5,115.1,774.5,114.5,774.7z"/>
					<path d="M131.1,766.3c-1,0.6-2,1.6-3.4,2.2C128.9,768.1,131.1,766.7,131.1,766.3z"/>
					<path d="M108.1,777.9c0,0-0.2,0-0.2,0.2C108.3,777.9,108.3,777.9,108.1,777.9z"/>
					<path d="M108.1,777.9c0.8-0.4,1.6-0.8,2.2-1.4c-1.2,0.4-2.2,0.8-3,1.4C107.5,777.7,107.9,777.9,108.1,777.9z"/>
					<path d="M140.1,742.1c0.6,0.6-0.8,6-4,9.6c-0.8,2-0.6,2.8,0.6,2.8c1.2-0.2,2.8-1.2,4.4-2.6c-0.2-0.2-0.4-0.4,1.4-5
						c-0.6,0.6-2,3-3.2,4.6s-2.2,2.4-1.4,0.6c2.6-5.8,2.6-4.4,4.4-7.2c-1,1-0.4-1,0-3.2c0.4-2.2,0.8-4.4-0.2-4c0,0-0.4,1.4-0.6,2.6
						c-0.2,1.2-0.8,2.6-0.8,2.6C140.5,742.7,140.9,740.7,140.1,742.1z"/>
					<path d="M135.9,759.5c0,0-0.2,0.4-0.6,0.8c-0.4,0.4-0.6,0.8-0.6,0.8c0.4-0.4,0.8-0.8,1.2-1.2c0.4-0.4,0.8-0.8,1.2-1.2
						c0.8-0.8,1.6-1.8,2.8-2.8c1.6-3.2,1.6-4,1.4-4.2c0,0-0.4,0.6-0.8,1.4c-0.4,0.8-1.2,2-1.8,3c-1.4,2.2-3,4.2-3,4.2s0-0.2,0.2-0.4
						C135.7,759.7,135.9,759.5,135.9,759.5z"/>
					<path d="M127.9,768.1c0.4-0.8,1.6-2.2,2-3.2c0.6-1,0.6-1.6-0.6-0.8c-2.2,2-3,2.8-3.4,3.4c-0.4,0.6-0.8,1-2.2,2.2
						c2-1.4,2.8-2,3.2-2.2c0.2-0.2,0,0.2-0.4,0.6c-0.4,0.4-0.8,0.8-0.8,1C125.7,769.3,126.3,769.1,127.9,768.1
						c-0.8,0.6-1.6,1.4-2.2,1.8c-0.8,0.6-1.4,1-2.2,1.6c0.8-0.4,1.6-0.8,2.4-1.4c0.8-0.4,1.6-0.8,2.2-1.4c0,0-0.2,0-0.2,0.2l0,0l0,0
						c-0.4,0.2-0.6,0.2-0.2,0l0.2-0.2C127.7,768.5,127.7,768.3,127.9,768.1c2.4-1.8,0.6,0-0.2,0.6v0.2l0,0c0,0,0.4-0.4,1.2-1
						c0.6-0.6,1.6-1.6,2.4-2.4c1.8-1.8,3.2-3.8,3.2-3.8C133.1,762.9,131.5,764.9,127.9,768.1z"/>
					<path d="M88.8,789.4c0.2-0.2,0.2-0.2,0.2-0.2C89.2,788.6,89.2,788.4,88.8,789.4z"/>
					<path d="M90.8,786.4c-0.2,0.6-0.2,1.2-1,3.2c-0.8,1.6-0.4-0.2-0.6-0.2c-0.2,0.6-0.4,1.8-0.2,2.2s0.2,0.2,1-1.4v-0.6
						c0.8-1.6,2-3.2,3-4.2c1-1,1.8-1.6,1.8-1.4C93.5,784.3,92.5,784.7,90.8,786.4z"/>
					<path d="M107.1,775.5l7.2-2.8c0,0-1,0.2-2,0.4c-1,0.2-2,0.2-2,0.2l0.4,0.4C106.5,774.7,107.5,774.9,107.1,775.5z"/>
					<path d="M142.3,750.7c0,0,0,0.4,0.2,0.6c0,0.4,0.2,0.6,0.2,0.6s0-0.2,0.2-0.8c0-0.4,0.2-1,0.4-1.6c0.2-1.2,0.4-2.4,0.4-2.4
						s-0.2,0.8-0.6,1.8C142.5,749.9,142.3,750.7,142.3,750.7z"/>
					<path d="M146.4,741.1l0.6,0.6c0,0,0.2-0.6,0.2-1.4c0.2-0.6,0.2-1.4,0.2-1.4s-0.2,0.6-0.6,1
						C146.6,740.5,146.4,741.1,146.4,741.1z"/>
					<path d="M290.2,228.5l-0.4-2.2C290,227.3,290,228.1,290.2,228.5z"/>
					<path d="M291.2,244.7l0.4,0.4C291.4,244.3,291.2,244.1,291.2,244.7z"/>
					<path d="M186.2,507.2c2.2-2.6,4.8-5.2,4-5.2l-1.2,0.4C188,504.6,187.2,506,186.2,507.2z"/>
					<path d="M281.4,373.2c-0.2,0.2-0.6,0.4-0.8,0.6c-0.2,0.8-0.6,1.6-0.8,2.2C280.2,375,280.8,374.2,281.4,373.2z"/>
					<path d="M280,369.2c0,0,0.6-0.8,1.4-1.6c0.4-0.4,0.6-0.8,1-1c0.4-0.2,0.4-0.4,0.4-0.4C282.2,367,281.2,367.8,280,369.2z"/>
					<path d="M281.6,140.8l-1.2-2.4C281,142.4,281.2,140.4,281.6,140.8z"/>
					<path d="M150.8,638.9c0.2-2.8,0.2-5,0-7C150.6,635.3,150,638.1,150.8,638.9z"/>
					<path d="M299.4,234.3c-0.2-1.4-0.4-2-0.6-1.8C298.8,233.9,299.2,234.7,299.4,234.3z"/>
					<path d="M150.6,623.9c0,0.4,0,1-0.2,1.4c0.2,2,0.4,4,0.4,6.6C151,629.3,151.2,626.5,150.6,623.9z"/>
					<path d="M262.4,82.2c-0.2-0.2-0.4-0.4-0.6-0.6C261.8,81.4,262,81.8,262.4,82.2z"/>
					<path d="M276,28.3c-0.2,0.8-0.2,2.2-0.4,3.6C275.8,31.3,275.8,30.3,276,28.3z"/>
					<path d="M154.4,700.8C154.4,703,154.6,701.2,154.4,700.8L154.4,700.8z"/>
					<path d="M150.4,710.8c0-0.4-0.2-0.8-0.2-0.8C150.2,710.2,150.4,710.6,150.4,710.8z"/>
					<path d="M146,603.2V603C145.8,603.6,145.8,603.6,146,603.2z"/>
					<path d="M154,704c0.2-0.8,0.4-1.8,0.4-2.8C154.2,701.6,154.2,702.6,154,704z"/>
					<path d="M154.4,703.6c0,0.8-0.2,1.4-0.2,1.8C154.2,705.8,154.4,705.4,154.4,703.6z"/>
					<path d="M154.6,697.8c0,1.2-0.2,2.4-0.2,3.6c0-0.4,0.2-0.6,0.2-0.4C154.6,700.2,154.6,699.2,154.6,697.8z"/>
					<path d="M294,51.2c-0.2,0-0.4,0.2-0.6,0.2c-0.4,0.4-0.8,0.6-1,0.8c-0.2,0.2-0.2,0.2,0,0.2c0,0,0.2-0.2,0.6-0.4
						C293.2,51.8,293.6,51.4,294,51.2z"/>
					<path d="M205.7,455.5v0.2C205.7,455.7,205.7,455.5,205.7,455.5L205.7,455.5z"/>
					<path d="M209.3,448.7c-0.8,3.4-2,4.8-3.4,6.8l3.4-0.8V448.7z"/>
					<path d="M287.2,190c0,0,0,1.4-0.2,2.6c0,1.4-0.2,2.6-0.2,2.6c-1.8-6.2-1.8-10.8-2.4-5.8c2.8,0.4,1.8,20.4,4.4,21l-0.2,3.6
						c0-1-0.2-1.2-0.2-2.2c-0.8,6.8,2.2,4.8,2.4,13.6c0,3-0.2,5.2-0.6,3.2l1.2,6.6c0,2-0.4,1.6-0.4-0.4l0.8,10.2l0,0
						c0.4,1.4,1.2,4.8,1.6,6.4c-0.2,2.6-0.4-1.4-0.6-0.6l0.8,5.8c-0.6,2.4-1.4-2.4-1.6-6.2c-2.4,5.4,0.8,4.6-0.2,16.4l-0.6-5.4
						c-1.4,3.6-0.6,7.8-1.2,13.8c0.4-1.4,1.8-12.4,2.6-6.2c-0.2,1.8-0.2,4,0.6,7.4c-0.8,0-0.6,3.4-0.4,7.4l-1.2-0.2
						c0.6,4.4,1.2,4,1.8,6.6c0,5-0.8,6-1.6,7.2c0,7.8,1.4-5.4,1.8,3.8c-0.4,6.6,0.2,11.2,0.6,18.8c-0.6,4.4-0.6-0.8-1.2,0.8
						c0,0,0.2,1,0.4,2c0.2,1,0.4,2,0.4,2c0,1-0.4,0.6-0.4,0.4c0,3.4,1.2,0.4,1,5.6c0.2,0.4,0.2,1.2,0,2.4c-0.2,1.2-0.6,2.6-1.2,4.2
						c-1,3.2-2.2,7-2.4,10.2c-0.8,1.4-0.4-1-1.2-0.6c-0.6,4.4-1.2,6.2-1.6,7.8c-0.2,0.8-0.4,1.6-0.6,2.6s-0.6,2.2-1.2,4
						c0,0-0.8,1.4-1.8,2.4c-0.4,0.6-1,1.2-1.4,1.6c-0.4,0.4-0.6,0.8-0.6,0.8c1.6-1.6,1.8-1.2,1.4,0.4c-0.4,1.6-1.6,4.2-3,6.4
						c1.4-1,2.6-2,3.4-2.6c0,0-1.2,1.8-2.4,3.6c-0.6,0.8-1.2,1.8-1.8,2.4c-0.4,0.6-0.8,1.2-0.8,1.2c-0.8,0.6-0.6-0.2,0-1.6
						c-0.2,0.4-0.6,1-0.8,1.4c-2.4,2-1.8,0.2-0.8-1.8c0.8-0.6,1.8-1.2,2.6-1.8c0.4-1,0.6-2,0.8-2.8c0.2-0.8,0-1.4-0.4-1.4
						c-0.2,0.6-0.8,1.4-1.4,2.2c0.2-0.6,0.2-0.8,0-0.8c-0.2,0.2-0.6,1-1.2,2.2l-2.2,0.4l0.2,0.6c0,0-0.4,0.4-1.2,1.2
						c-0.8,0.6-1.8,1.6-2.8,2.4c-1,0.8-2,1.8-2.8,2.4c-0.8,0.6-1.4,1-1.4,1c-2.4,3.2-4.6,6.2-7.4,9.6c-1.4,1.6-2.8,3.4-4.6,5.4
						c-1.6,2-3.6,4-5.6,6.4c1.6-2.8-0.6-1.6-1.4-2.6c1.8-0.8,3.4-2.6,5.2-4.6c2-2.2,4.2-4.6,6.6-6.6c-2.6,2.2-2.4,1.2-2,0.4
						c0,0-2,2.2-4,4.2c-1,1.2-2,2.2-2.6,3c-0.8,0.8-1.2,1.4-1.2,1.4c-0.4-0.8-2.4,1.2-4.8,3.2c1.4-0.2,0.2,1.6-1.8,4
						c-2,2.4-4.6,5.4-6,7.2c-0.6-0.2-0.4-1.4,3.6-5.8c-2.6,2-3.6,3.8-4.6,5.8c-0.8,2-1.8,4-4.2,6c0.8-1.2,1.4-1.6,1.6-2.2
						c-1.8,2.8-7,9-6.2,7.2l0.8-1.2c-1.6,1.8-3.4,4.2-5.2,6.6c-0.8,1.4-1.8,2.6-2.8,4c-0.8,1.4-1.8,2.6-2.6,4c-1.6,2.6-3.2,5-4,7
						c-0.8,2-1.6,3.4-1.4,3.8c-0.2,0-1-2-0.8-2.8c0,0-0.2,1-0.8,2.6c-0.4,1.6-1,3.8-1.6,5.8c-0.6,2.2-1,4.2-1.4,5.8
						c-0.4,1.6-0.6,2.6-0.6,2.6c-0.4-2-6.2,1.2-2.8-5.8c-1.4,1.8-3,4-5,8.4c1-1.2,3.6-2.2,2.6-0.4c-4.2,4.2-2.8,3-7.4,8.4
						c1.4-1.8,2,1.4,0.2,4.6c0-0.6-2-0.8-1.6-2l-2.6,8.8c0.8-2.2-1.4-1.2-2.8,0.2c0.8-0.6-3.8,6.8-4.8,9l2.2-3.2
						c-5.2,8.6-2.2,10.2-7,19c0.2-1.2-1-4-3.6,0.4c-0.2,2.6-0.2,11.6-3.6,19.8l-1.4,1.2l-2.4,6.4c0.4-4.4,2.6-16.6,4.6-23
						c-2.2,3.2-1.2,0.6-3.8,5.6c-1.4,1.6,0.6-3.2,1.4-4.6c0,0-1.6,2.8-3.2,5.8c-1.6,2.8-3.2,5.8-3.2,5.8c1.4,0-3.4,9.6-2.2,9.8
						c0,0,0.4-0.8,0.8-2.2c0.4-1.2,1.2-3,1.8-4.6c1.4-3.4,2.6-6.6,2.6-6.6c1.4,0-0.6,9-4.8,17.4c-1.4,2-1.4-2.6-1.8-2.6
						c-0.2,1.4-3,8.4-3.6,9.2c0,0,0.2-1,0.4-2c0.2-1,0.4-2,0.4-2c-2.6,4.6-2,8.4-5.4,14c-0.4,1-1.4,2.4-2.2,3.6
						c-0.8,1.2-1.4,2.2-1,2.6c2.4-3,7-2,7.2,0.6c-0.2,0.4-1.4,2.8-2.8,5.6c-1.4,2.8-2.6,5.8-3.4,6.8c-1,1.6-1.4,0.2-1.6-1.4
						c-0.2-1.6-0.4-3.2-1.4-1.8c0.2,0.2,0.2,2.2,0.2,3.2c-0.8,2.2-0.8-1.2-2,3.6c1,1.2-2.4,9.8,0.6,2.6c-0.2,1.2-0.4,2.2-0.6,2.8
						c-0.2,0.8-0.4,1.4-0.4,2.2c-0.2,0.6-0.4,1.4-0.6,2.2c-0.2,0.8-0.4,2-0.6,3.4c0.6-0.8,1,0.6,1.4,2.6c0,0.6,0.2,1.2,0.2,1.8
						s0.2,1.2,0.2,2c0.2,1.4,0.2,2.6,0.2,3.8c-0.2-0.4-0.8,0.8-1,1.2c-0.6,4.8-0.6,8.6-1,12.4c-0.2,3.8-0.2,7.4-0.2,12
						c-0.2,0.8-0.6,5.4-1.2,3.4c0.2,1.4,0.8,2.4,1,5.4c-0.8,5.6-0.6-6.4-1.6-2c0.8,0.4,1.4,7.4,2.2,11.4c1-1.4-0.4-9.4-1.2-13.4
						c0.8,0,1.8,1.6,2.6,4.6c0.8,2.8,1.8,7,2.6,11.8c1,7.6-0.8,3.4-0.4,4.6c0.4,7.2,1.4,10.2,2.2,12.8c0.8,2.6,1.4,5.2,1.2,11.2
						c-0.8,4.8-2,0.4-2.6,1.4c-0.8-6.2,0-9.6-0.2-13.8c0,0,0,1.4,0,2.6c0,1.4,0,2.6,0,2.6c-0.4-2-1-6-0.8-8.4c-0.2,1,0,3,0,5.6
						c0,2.6,0.2,5.8,0.4,9.4c0.2,6.8,0.6,14.8,0,20.2c0.2,2,0.4,5.4,1,3.8c0,0,0-0.8,0-1.8c0-0.8,0-1.8,0-1.8c0.4-1.6,0.6,0,0.8,1.6
						c0.2,1.6,0.2,2.8,0.6,0.6c0.4,4.8,0.8,10.2-0.6,16.8l-1.4,1c0.4,0,1.4-4.2,1.2-6.2c0,1.4-0.6,4-1.4,6.4c-0.6,2.6-1.4,5-0.8,6.6
						c0,0,0.4-1.2,0.8-2.2c0.4-1.2,0.8-2.2,0.8-2.2c-0.2,4.8-0.4,11-2.6,16.6c2-2.4,0.4-1.4,2.8-5.2c-1.4,1.6-0.2-2.2,0.6-5.6
						c0.8-3.6,1.4-6.8,0-4c2.4-4,2-7.4,3.8-13c-0.4,0.2-0.8,2-0.2-3.2c0-0.2-0.2-0.8-0.2-1.2c0-0.2,0-0.2,0-0.4v0.2c0-0.2,0-0.2,0,0
						c-0.2,1.2-0.6,2.2-0.8,2.4c-0.6-2.6-0.2-10.6-0.6-13.2c0.2-3,0.4,1.2,0.8-0.4c0,0-0.2-1-0.4-2c-0.2-1-0.4-2-0.4-2
						c0.8-0.4,1.2-7.8,1.8-0.8L153,681c0.4-3.8,0.2-8.8-0.4-11.8c0-3-1.4-7.4-0.6-4.8l-1.4-9.6l0.2-0.2c-0.6-9.6-3.2-19.6-1.8-30.3
						c-0.2-1.6-0.4-3.2-0.4-5c-0.2-1.8,0-4,0.2-6.6l0.8-1c-0.4-4,1.6-12,0.8-13.8c0.2-0.4,0.6-1.2,0.8-2c0.2-0.8,0.4-1.8,0.8-2.8
						c0.2-1,0.4-2.2,0.6-3.4c0.2-1.2,0.4-2.4,0.6-3.8c0.2-1.2,0.4-2.6,0.6-3.8c0.2-1.2,0.4-2.6,0.8-3.8c0.6-2.4,1.2-4.6,1.8-6.2
						l-0.8-0.6c1.4-4.6,2.6-9.2,4.4-15h-0.8c1.2-5.2,5.6-12.4,9.2-20c0,0.6-1,2.6-1.8,3.8c6-8.2,8.2-19.6,13.8-26.9
						c0.8-2.2,1.6-3.6,2.6-4.8c0,0.2-0.2,0.4-0.2,0.6c0.2-0.2,0.2-0.4,0.4-0.8c0.6-0.8,1.2-1.6,2-2.6c-0.6,0.8-1.2,1.4-1.6,2.2
						c0.8-1.6,2-4,3-6.4l1.4-0.6c0-0.2,0.2-0.4,0.2-0.6c1.6-2,0.6-2-0.6-1.2c0.4-1.2,0.8-2.4,1.2-3.4c2.2-1.2,2.8-6.2,5.6-8
						c0.2-2,5.8-11.8,5.2-13.8c0.2,0,0.6-0.6,0,0.6c1.6-2.4,3.2-4.8,4.2-7.4l1.6-0.4c0,0,0.4-1.6,1-3.2c0.4-1.6,1-3.2,1-3.2
						c2.6-3,3.8-4,2.6-0.4c1.8-4.4,2.6-6,3.6-7.4c0.8-1.6,1.4-2.8,3.2-6.6l0.4,0.8c1.6-2.4,3.2-6.6,4.6-7.8
						c2.4-2.2,6.8-8.6,12.4-15.6c5.6-7,12.2-14.6,18.4-19.8c-3.8,0.6,6-4.4,5.4-6c1-0.2,2.8-1.6,1.2,0.6c5.8-5.8,9.8-7.6,13.2-12.4
						c1-0.2-0.8,1.8,0,1.4c0.4-0.6,1.6-2.2,2.6-2.6c0.8-0.4-0.6,1.2-1.4,2.2c3.2-3,4.6-5,5.2-6.4c0.6-1.4,0.2-2.2,0-3
						c3.6-2.8,4.8-4.6,6-7.8c1.4-1,3.2-2.8,0.2,1.8c1-1.2,4-4.8,6-8.8c2.2-3.8,3.4-7.8,3-8c0.4-0.4,0.8-1.4,1-2.4s0.6-2,0.6-2.4
						c0.6-1.6,0.8-2.8,1.2-4c0.4-1.2,0.6-2,0.8-2.8s0.4-1.8,0.6-2.8c0.2-1.2,0.4-2.4,0.6-4l-0.4,1.8c-1-2.8,0.6-5.6,0.8-10.8
						l0.2,0.2c0.6-3,0.8-4.8,0.8-6.2c0-1.4,0-2,0-2.6c0-1.4,0-2.6,0.6-8.6l-0.8,0.6c-2-1.2,1.2-10.6,0.2-17.6l-0.4,2.4
						c-0.8-3.8,2.2-10.6,2.2-14.4c0.2-0.8,0.4,1.4,0.4,2.4c0.6-10-1.2-1.2-1.8-8.6c0.6-1.4,1.8,1.8,1.6-3.4
						c0.4-2.4-2.6-14.4-1.8-21.2c-0.4,1.6-0.8,3-1.4-0.4c-0.2-2.6,0.2-6.2,0.2-9.8s0-7-1-9.2c0-0.6,0.2-1,0.4-1
						c-0.6-4-1.6-13-2.6-15.4c2.8-4-3.4-24.8-0.4-25l-1.4-12.4l0.4,0.2c-0.6-8-1.6-10.6-2.4-13.4c0-1.8,0.4-0.6,0.6-0.4
						c-0.6-11.6-0.8-12.6-3.2-22.2l0.8-1.2c-0.8-2.6-0.6-16.8-3.2-27.7c0.2,0,0.4,0.2,0.6,1.2c-1.4-6.2-1.6-14-2.2-20.6
						c-0.2-1.6-0.2-3.2-0.4-4.8c-0.2-1.4-0.4-3.2-0.8-4.6c-0.8-2.8-2.2-4.8-3.4-5.6c0,0-1.2-2-2.6-3.8c-0.8-0.8-1.6-1.8-2.4-2.4
						c-0.8-0.6-1.4-1-1.4-1c1.4,1.2,2,2,2.4,2.6c0.4,0.6,0.6,1.2,0.6,1.4c0.2,0.4-0.2,0.2-0.8-0.2c-1.2-0.8-2.8-2-1.6-0.2
						c-0.6-0.8-1.6-1.8-2.6-2.4c-1-0.8-2-1-2.6-0.8c-0.6,0-0.8,0.2-0.6,0c0.2-0.2,0.6-0.6,1.6-0.8l0.6,0.2c0.6-0.2,0.2-0.8-0.6-0.8
						c-0.4,0-0.8,0.2-1.2,0.6c-0.2,0.2-0.4,0.4-0.4,0.6s0,0,0-0.2v-0.4c0-2.4,0-5,0.6-5v-1.8v-2c0-1.4,0-2.6,0.2-3.8
						c0.2-2.6,0.4-5.2,1-7.6c0.4-2.4,1.2-4.8,2-7l0.8-1.6c0.2-0.4,0.6-1,0.8-1.6c0.6-1,1.2-2,1.8-2.6c1.4-1.4,3-2.4,4.6-2.8
						c1.8-0.4,3.6-0.2,5.4,0.4c0.4,0.2,0.8,0.4,1.2,0.6s0.6,0.4,1,0.8c0.4,0.2,0.6,0.6,0.8,0.8s0.2,0.2,0.4,0.4l0.2,0.2l0.2,0.2
						c0.6,0.8,0.8,2.2,0.8,3.2c0,0,0.2,0,0.4,0c0.2,0,0.4-0.2,0.4-0.2c0.4-0.2,0.6-0.4,0.6-0.4v0.8v0.4v0.2c0,0-0.2,0-0.2,0.2
						c-0.8,0.6-1.6,1.2-2.4,1.6c-0.2,0-0.2,0-0.4,0c-0.2,0-0.4,0-0.4,0c-0.2,0-0.4,0-0.4-0.2c0,0,0-0.2,0.2-0.2L289,44
						c0,0,0,0,0.2-0.2s0.6-0.4,1.2-0.8c-0.4,0-0.8,0.2-1.2,0.4l-0.2,0.2l-0.4,0.4c-0.4,0.2-0.6,0.4-1,0.6c-1.2,1-2.2,1.8-2.2,1.8
						c-2,0.4-2.6,0.2-2.8,0c0-0.2,0.4-0.4,1-0.6c1.2-0.4,3-1.6,2-1.2c0,0-0.2,0-0.4,0.2c-0.2,0-0.6,0.2-1,0.2s-0.6,0.2-0.8,0.2
						c-0.2,0-0.4,0-0.4,0l1,2.8c-1,0.4-1.6,0.6-2.4,0.6c-0.2,0-0.4,0-0.6,0s-0.4-0.2-0.8-0.2c-0.2,0-0.2-0.2-0.4-0.2
						c-0.2,0-0.2-0.2-0.4-0.2c-0.2-0.2-0.6-0.4-0.8-0.8c-0.2-0.2-0.2-0.4-0.2-0.6c0-0.2,0-0.4,0-0.4c0-0.2,0-0.4,0.2-0.4
						c0.2-0.2,0.2-0.2,0.2-0.6c0.2,0,0-0.4-0.2-1.6c0,0,0-0.4,0-1s0-1.6,0.2-2.2c0.2-0.8,0.4-1.6,0.6-2s0.4-0.6,0.4-0.6
						s-0.4,0.2-0.8,0.6c-0.4,0.4-0.8,1-0.8,1c0-0.8,0.2-1.6,0.6-2c0.2-0.6,0.6-0.8,0.6-1s0-0.2,0-0.2c0-0.2-0.2-0.2-1,0
						c0.4-0.2,0.8-0.2,0.8-0.2c0.2,0.2,0.2,0.2,0.6,0.4c-0.4-0.6-0.8-1.4-1.4-2c0.2,6.6,1.8,17.6,2.6,24.8c0.4-0.8,0.6-1.8,0.8-2.4
						c-0.8,0.8-1.4,1-1.8,1c-0.2,0-0.4,0-0.6-0.2s-0.4-0.2-0.4-0.2c-0.8-0.2-1.6-0.6-2.4-1.4c-0.8-0.8-1.6-1.8-2.2-2.8
						c-1.2-2.2-2-5-2.2-8c0,0.8-0.4,1.4-0.6,1.2c-0.2,0-0.4-0.4-0.4-1c0-0.4-0.2-0.8-0.2-1.2c0-0.4,0-1,0-1.6c0.6,0.6,1,0.4,1.4-0.2
						c0.4-0.6,0.6-1.4,1.4-2.2c0.4-0.4,0.8-0.8,1.2-1l0.4-0.2c0.2,0,0.2,0,0.4,0c0.2,0,0.6,0.2,0.8,0.2c1,0.4,1.8,1.2,2,2
						c-0.2-0.6,0-0.6,0.6-0.4c0.2,0,0.2,0.2,0.4,0.2c0.2,0.2,0.2,0.2,0.6,0.4c0.4,0.6,1,1.2,1.4,1.8c1,1.4,1.8,2.8,2.2,3.4
						c0.4,0.8,0.8,0.6,0.6-0.8c0.8,2.2,0.6,2.2,0.2,2.2c-0.2,0-0.6,0-0.4,1.6c2,4.8,2.4,11,1.2,16.8c-0.6,3-1.6,5.8-3.2,8.2
						c-1.6,2.4-3.4,4-5.6,4.6c0,0.2,0.4,0.2,0.6,0.4s0.2,0.4-0.8,1c0,0-0.4,0-0.8-0.2c-0.2,0-0.6-0.2-0.8-0.2
						c-0.2,0-0.6-0.2-0.8-0.4l-0.4-0.2c-0.2,0-0.2-0.2-0.4-0.2c-0.2-0.2-0.4-0.4-0.6-0.6c-0.4-0.4-0.6-0.6-0.6-0.6
						c-0.4-0.2-0.8-0.2-1.2-0.4c-0.4,0-0.8-0.2-1.2-0.2c-0.8-0.2-1.8-0.8-2.6-3c0.2,0.6,0.4,1.8-0.6,0.4c-2.6-4.2-4.2-9.2-5-14
						c-0.8-5-0.6-10.2,1-14.6c0.2-0.6,0.4-1.2,0.6-1.6l0.4-0.8l0.4-0.6c0.2-0.4,0.6-0.8,1-1.4c0.4-0.4,0.6-0.6,0.8-0.8
						c0.6-0.6,1.4-0.8,2.2-0.8c0.8,0,1.6,0.4,2.4,0.8c0.2,0.2,0.8,0.6,1.2,0.8c0.4,0.4,0.8,0.8,1.2,1.2c0.6,0.8,1.4,1.8,1.6,2.8
						c0.4,1,0.4,2,0.4,2.2c0,0.2,0,0.2-0.2,0.2c0,0-0.2,0-0.6,0.2c1.2,0.6,2.4,1.4,3.6,2c-1.6-5.4-2-11.4-1.2-16.8
						c-0.8,3.6-0.8,1.2-0.6-1.6c-0.2,1.8-0.8,0-1.4,0.2c0,0,0.2-0.6,0.4-1.8c0.2-1,0.6-2.4,1-3.8c0.4-1.4,0.8-2.6,1.2-3.6
						c0.4-1,0.6-1.6,0.6-1.6c-0.2-0.6,0-1.6,0.4-2.8c0.2-0.6,0.4-1.2,0.6-1.8c0.2-0.6,0.6-1.4,0.8-2c0.2-0.6,0.6-1.2,1-1.8
						c0.4-0.6,0.6-1.2,0.8-1.6c0.6-1,0.8-1.8,0.8-2.2c0,0-0.4,0.8-0.8,1.6c-0.2,0.4-0.4,0.8-0.6,1c-0.2,0.2-0.2,0.4-0.2,0.4
						c0.6-2.4-0.8-1.4-2.8,0.2c-1.8,1.6-3.8,4-4.4,3.2c-0.4,3-2,6.4-3.2,10.6s-2,9.2-0.4,13.8c-0.2,2.2-0.8-1.8-1-0.6
						c0.4,1.2,0.8,2.6,1.2,4.2c0.2,0.8,0.4,1.8,0.6,2.8s0.4,2.2,0.8,3.6l-0.4-0.6c0.4,1,0.6,2,0.8,2.6l0.8,2.6l2.6-0.6
						c1.2-0.2,2.4-0.8,3.6-2c1-1,1.6-2.4,1.8-3.6c0.2-2.4-0.2-4.2-0.8-5.6c-0.6-1.6-1.4-2.8-2.4-4s-2-2.2-3.4-3.4
						c-1.6-1.2-3.4-2-5.2-2.2c-2-0.2-4.2,0-6,1.2c-0.4,0.2-0.8,0.6-1.4,1c-0.4,0.4-0.8,0.8-1.4,1.2c-0.4,0.4-0.6,0.8-1,1.2
						s-0.6,0.8-1,1.2c-1.2,1.6-2.2,3.6-3,5.6c0,0,0.4-0.2,0.6-0.6c0.4-0.2,0.6-0.4,0.6-0.4c-0.8,1.8-1.2,3-1.6,4
						c-0.4,0.8-0.6,1.6-0.8,2.4c0.4,2.4,0.6-0.4,1.4-3.2c0.4-1.4,0.8-2.8,1.4-3.4c0.4-0.6,0.6-0.8,0.6,0.2c-1,1-2,3.2-2.6,6
						c-0.6,2.8-0.6,6.2-0.4,9.4c0.2,3.2,1,6.4,1.6,8.8c0.6,2.4,1.2,4.4,1.2,5.6c1.4,2.8,1.4,2.2,1.4,1.6c0-0.6,0-1,1.6,1.6
						c0,0,0,0.4,0.2,0.8c0,0.4,0.2,0.8,0.2,0.8l1.6,0.8c1.4,1.6,2.2,2.8,2.8,3.8c0.6,0.8,1,1.6,1,1.8c-0.8-0.6-2.6-1.8-3.4-2.6
						c0.8,1.2,2.2,2.4,3.8,3.4c0.8,0.6,1.8,1,2.8,1.4c1,0.4,2,0.6,3.2,0.8c1,0.2,2,0.2,3,0.2s1.8-0.2,2.6-0.4c0.8-0.2,1.4-0.4,2-0.6
						c0.4-0.2,0.8-0.4,1.2-0.4c0,0-0.4,0.2-1,0.4c-0.6,0.2-1.6,0.4-2.4,0.4c-1,0-1.8,0.2-2.6,0c-0.6,0-1.2,0-1.2,0
						c5.4,0.4,10.4-2.6,13.6-6.4c1.6-2,2.8-4,3.6-6.2c0.8-2.2,1.6-4.4,1.8-6.6c0.8-4.4,0.8-8.8,0.2-13.2c-0.6-4.2-1.8-8.2-3.6-11.8
						c0,0,0,0.4,0,0.6c0,0.4,0,0.6,0,0.6c-1.4-2.6-2.4-4.4-3.4-5.8c-0.6-0.6-1-1.4-1.4-1.8c-0.2-0.4-0.6-0.6-0.8-0.8
						c-0.2-0.4-0.6-0.6-0.8-0.8c-0.6-0.4-1.2-1.2-2-1.6c-0.4-0.2-0.8-0.4-1.2-0.8c-0.4-0.2-1-0.4-1.4-0.6c-0.6-0.2-1.2-0.4-1.8-0.4
						c-0.4,0-0.6-0.2-1-0.2c-0.4,0-0.6,0-1,0c-0.2,0-0.4,0-0.6,0s-0.4,0-0.6,0c-0.4,0.2-0.6,0.4-1,0.6c-0.4,0.2-0.6,0.4-1.2,0.8
						c-0.4,0.2-0.6,0.6-1,1l0.4-0.4c-1,1.2-2,3-2.4,4.8c-0.2,1-0.4,2-0.6,3.2c0,0.6,0,1.2-0.2,1.6c0,0.6,0,1,0,1.4
						c-0.2-1.8-0.6,0-0.6,1.4c0,1.4,0,3-0.6,0.6c0.6,3.4,1.6,5.4,2.2,6.6c0.6,1.2,1.2,1.8,1.4,2.2c0.4,0.4,0.6,0.6,1.4,1.4
						c0.6,0.6,1.6,1.6,3.4,2.8c0,0,0,0.2,0.2,0.2c0,0.2,0.2,0.4,0.4,0.6c0.2,0.2,0.4,0.4,0.4,0.6c0.2,0.2,0.2,0.2,0.2,0.2
						c1.6,0.6,2.6,0.6,4,0.4c1.4-0.2,3.2-0.6,5.2-2.6l0.6-0.6l-0.2-0.6c0-0.2-0.2-0.8-0.2-1.4c0.2,0.8,0.4,1.2,0.4,1.4l0.2,0.2
						l-0.8,1.2c-0.2,0.2,0,0.2,0.2,0.2l0.6-1.6c0.2-0.6,0.4-3.2,1.2-0.2l-1,2.6c0,0-0.2,0.2-0.2,0.4c0.2,0,0.2-0.2,0.4-0.2l1-0.6v-2
						c0-12.4-3.8-18-2.2-24c-0.2-0.4-0.4-0.8-0.6-0.8l-1.8-2.6c-0.6,0-0.6,0-0.2,0.4l1.8,1.6l-0.2,0.8c-0.6,1.6,1,11,0.4,8.6
						c-0.2,2.8-2-4.4-2.2-8.4v-0.6l-0.6-0.2l0,0c-0.6-0.2-1.2-0.6-1.8-0.6c-0.6-0.2-1.6-0.2-2.2,0.2c-1.6,0.4-2.6,1.4-3.6,2.6
						s-1.8,2.8-2.4,4.8c-0.4,2-0.8,4.4,0,7.6c-0.2-1.2-0.4-1.4-0.6-2.6c0,1.2,0.2,2.4,0.6,3.6c0.4,1.2,1.2,2.4,2,3.6
						c0.4,0.6,1,1.2,1.6,1.6c0.2,0.2,0.6,0.4,1,0.6c0.2,0.2,0.6,0.4,0.8,0.6c1.4,0.6,2.8,1.4,4.4,1.8c1.8-0.4,3.8-0.6,5.4-1
						c0.8-0.2,1.4-0.4,1.8-0.6c0.4-0.2,0.8-0.6,0.8-1c0,0-0.2,0-0.4,0.2c-0.2,0-0.6,0.2-1.2,0.4c-0.4,0.2-1,0.4-1.6,0.4
						c-0.6,0.2-1.4,0.4-2,0.4c-1.4,0.2-2.8,0-4-0.2c-0.6-0.2-1-0.2-1.4-0.4c-0.4,0-0.4-0.2-0.4-0.2c1.6,0.6,3.4,0.6,4.8,0.4
						c1.6-0.2,3-0.8,4.4-1.4c1.4-0.6,2.8-1.6,4.4-2.4c1.8-1,3.6-2.2,5.6-3.4l0.2-0.2c0-0.2,0-0.2,0-0.4v0.2v0.2c0,0,0,0.2-0.2,0.2
						c-0.4,0.6-2.4,2.4-4,3.6c1.8-0.8,3.4-2,4.8-3.2c0.2-0.2,0-0.6,0-1s0-0.6,0-1c0-0.6,0-1.4,0-2c0.2,0.2,0.6,0.6,0.6,1.4
						c0,0.4,0.2,0.8,0.2,1.4c0,0.2,0,0.6,0.2,0.8c0,0.2,0,0.2,0,0.4s0,0.2,0,0.4c-1,0.8-2.2,1.8-3.8,2.6c-0.6,0.4-1.4,1-2.2,1.4
						c-0.4,0.2-0.6,0.4-1,0.6c-0.2,0.2-0.6,0.4-0.8,0.4c-1.2,0.6-2.6,1.2-3.8,1.8c-1.4,0.4-2.6,1-4,1.2c0.4,0,1,0,1.6,0
						c0.6,0,1.4-0.2,2-0.4c1.4-0.4,2.6-1,3.6-1.6c1-0.6,1.8-1,2.2-1.2c0.4-0.2,0.4,0,0,0.8c0.2-0.2,0.2-0.4,0.4-0.6
						c0.2-0.2,0.4-0.4,0.8-0.8c0.6-0.4,1.2-0.8,1.6-1.4c1.2-0.8,2.4-1.8,3.8-2.8V48v-0.4c0-0.2,0-0.6,0-0.8c0-0.6,0-1.2,0-1.8
						s-0.2-1.2-0.2-1.8c0-0.4-0.2-0.6-0.2-1s0-0.6-0.2-1c-0.2-0.6-0.6-1.4-0.8-2c-0.2-0.4-0.2-0.6-0.4-1c-0.2-0.2-0.4-0.6-0.6-0.8
						c-0.8-1.2-1.8-2-2.8-2.6l1-0.2c-0.6-0.4-1.6-1-2.6-1.6c-0.6-0.2-1.2-0.6-1.8-0.8c-0.6-0.2-1.2-0.4-1.8-0.6c0,0,0.2,0,0.8,0
						c0.4,0,1.2,0.2,1.6,0.2c0.6,0.2,1.2,0.4,1.8,0.4c0.4,0.2,0.8,0.4,0.8,0.4c-3.4-1.8-6.8-3-10.6-3.2c-3.6-0.2-7.4,0.8-10.2,3.4
						c1.6-1.2,2.8-1.8,4-2.2c1.2-0.4,2-0.6,2.4-0.6c1.2-0.2,1.4,0,1.2,0.2c0,0.2-0.4,0.4-0.4,0.6c0,0.2,0.6,0.2,2,0.2
						c-4.2,0.8-6.6,2.4-8.4,3.4c-0.8,0.6-1.6,1-2.2,1.6c-0.6,0.4-1.2,0.8-1.8,1.4c-1,0.8-2,1.8-3.2,3.6c-1.2,1.8-2.4,4.4-3.4,8.6
						c0.2-1.2,0.8-3.2,1.6-4.6c0.6-1.4,1.2-1.8,0.8,0c-1.4,3-2.6,7.2-3.4,9c-0.4,2.8-0.4,4-0.4,4.4c0,0.4,0.2,0,0.4-0.6
						c0.4-1.2,1-3,1-0.8c-1.4,3.6,0,5.2,0.2,9.8h-0.8c0,0.4,0,0.8,0,1c0,0.4,0,0.8,0,1.2c0,0.8,0,1.8,0,2.4c0,1.4,0.2,2.4,0.2,3.2
						c0.2,1.4,0.4,1.8,0.6,2c0.2,0.2,0.4,0.4,0.6,1.6c0,0.6,0.2,1.2,0.2,2.4v0.2l0,0v-0.2c0-0.2,0.2-0.2,0.2-0.4
						c0.2-0.2,0.4-0.4,0.6,0c0,0-0.2,0-0.6,0.2c-0.2,0-0.4,0.2-0.6,0.4c-0.2,0.2-0.4,0.4-0.4,0.6l-0.2,0.4l-0.2,0.2l0,0
						c0,0,0,0,0-0.2c0-0.2-0.2-0.6-0.2-0.8c-0.2-0.4-0.2-0.8-0.2-0.8s0,0.4,0,1.2c0,0.2,0,0.4,0,0.6s0,0.2,0,0.4c0,0,0,0,0-0.2
						c0-0.2,0-0.2,0.2-0.4l0.2-0.2c0.2-0.2,0.6-0.4,0.8,0.2c0,0,0.2,0.2,0.2,0.4s0.2,0.2,0.2,0.4c0,0.4,0.2,0.4,0.2,0.4
						s-0.4-0.2-1,0c-0.2,0-0.2,0-0.4,0H263c-0.2,0-0.2,0-0.2,0c0.4,0.6,0.8,2.2,1.2,5.4c0,0.4,0.2,0.8,0.2,1.2v0.2
						c0,0,0,0.2,0.2-0.2l0.6-1.2c0.4-0.8,0.8-1.6,1.2-2.2c0.8-1.6,1.6-3,2.2-4.4c0.4-0.6,0.8-1.4,1.2-2.2l0.2-0.2c0-0.2,0,0,0,0l0,0
						l0,0c0,0,0,0,0.2,0c0.4,0.2,0.8,0.6,1.4,1.2c0.8,1.2,1.6,2.4,2.6,4.8c0-0.6,0.4-0.6,1.2,0c0.6,0.6,1.6,2.2,2,4.4
						c0,1.6-0.2,1.2-0.4,1.2c-0.2,0-0.2,0.4,0.4,4c-0.4-0.8-0.8-1.6-1.2-2.6c-0.2-1.2-0.4-2-0.2-3.4c-0.4-0.2-0.8-1.2-1.4-1.4
						c0,0.8,0.2,1.6,0.4,2.6c0,0.4,0.2,0.8,0.2,1.4s0.2,1.2,0.2,1.6c0.4,2.2,0.6,4.2,0.8,5.6c0-1-0.2-2.2-0.2-2.8l2.6,10.2
						c-0.2,1.6-0.6,0.4-1-0.8c0.4,2,1,3.6,1.4,6.6c-0.8-0.6-1.6-0.4-2.4-4.8l2,9.8c-0.2,0.6-0.2,5.2-0.6,4
						c0.2,5.6,3.2,13.4,3.4,20.6c0.2,0.4,0.4,1.2,0.6,2.6c0.4,6.8,0.2,13,2,21.2L283,170c0.8,6.4,1-6.4,2.6,4.2
						c1.2,7.4-0.8,2.8-1,5.6c0.4,1.8,1.2,4.4,1.8,7.2c0.6,2.8,1,6.2,0.6,9.8C287.4,194,287.4,192.2,287.2,190z M292.6,268.6
						c-0.2-1.6-1-4.6-0.4-5.6C293.4,264.6,292.8,266,292.6,268.6z M272.2,380.4c0.6-1,2-2.2,3.6-3.4
						C274.8,378.2,273.6,379.4,272.2,380.4z M153.6,677.3L153.6,677.3C153.6,673.7,153.6,674.9,153.6,677.3z M153.4,684.4
						c0.2,0.6,0.2,0.6,0.4,0.4c-0.2-0.4-0.4-2.2-0.4-4C153.4,681.4,153.2,682.4,153.4,684.4z M278.2,44.4c0,0,0,0.2,0,0.6
						c0,0.2,0,0.4,0,0.4c-0.4-1-0.4-1.6-0.4-1.6C277.8,43.8,278,44,278.2,44.4z"/>
					<path d="M280.2,369.8c0.4-0.2,0.6-0.2,0.8-0.2C281.2,369,281,368.8,280.2,369.8z"/>
					<path d="M281.8,141.2V141c0-0.2-0.2-0.2-0.2-0.2L281.8,141.2z"/>
					<path d="M147.2,574.4c0.4-1.4,0.8-2.2,1.2-2.6C148.2,571.6,147.8,572.2,147.2,574.4z"/>
					<path d="M152.2,723.2c0,0,0.2-1.2,0.4-2.4c0.2-1.2,0.2-2.4,0.2-2.4c-0.4,2.2-0.6,3-1,4.2C152,722.6,152.4,721.6,152.2,723.2z"
						/>
					<path d="M131.7,757.9c-0.4,0.6-0.8,1.2-1.2,1.6l0.4,0.2C132.7,757.5,133.5,755.9,131.7,757.9z"/>
					<path d="M148.2,726.8c-0.8,0.2-1.2,3-2,6.2c0-0.2,0-0.4,0.2-0.6C147.2,733.5,147.8,730.2,148.2,726.8z"/>
					<path d="M146,733.5c-0.2,1-0.6,2-0.8,2.8C145.5,736.9,145.6,735.3,146,733.5z"/>
					<path d="M154.2,693.6c-0.2,1.6,1,1,0.6,1.8c0.4,0.8,0.2-1.8-0.2-3.4C154.2,690.4,153.8,689.4,154.2,693.6z"/>
					<path d="M145.3,728.6l1.2-0.8l-0.4-2c0,0-0.2,0.6-0.4,1.4C145.5,728,145.3,728.6,145.3,728.6z"/>
					<path d="M149.8,704c0,0-0.2,1.2-0.4,2.6c-0.2,1.2-0.4,2.6-0.4,2.6c0.2,0,0.2,0.6,0.2,1.4C149.8,707.2,150.2,703.8,149.8,704z"
						/>
					<path d="M149.4,710.4c-0.2,1.6-0.4,3.2-0.4,4.2C149,713.6,149.2,711.6,149.4,710.4z"/>
					<path d="M146.4,721.8l0.4-1.4c0,0,0.2-0.8,0.4-1.8c0.2-0.8,0.4-1.8,0.4-1.8s-0.2,1.2-0.6,2.4
						C146.8,720.6,146.4,721.8,146.4,721.8z"/>
					<path d="M148,649.3l-0.6-5.6c-0.4-0.6-0.4,1-0.2,3C147.4,648.1,147.8,650.1,148,649.3z"/>
					<path d="M146.8,666.1c0-1.6,0.2-1.6,0.6-2.4h-1.2L146.8,666.1z"/>
					<path d="M145.3,650.1c-0.4-0.6-1.6-8-1-1C144.7,649.7,145.5,655.1,145.3,650.1z"/>
					<polygon points="152.8,567.1 152.4,568.5 154.2,568.7 					"/>
					<path d="M180,498c-3.6,5.6,0.2,2-3,6.8c-0.4,1.6,2.8-4,2.4-2.4C180.8,498.8,182,497.2,180,498z"/>
					<path d="M179.4,502.6c-0.2,0.6-0.4,1.2-0.6,2C179,503.4,179.2,503,179.4,502.6z"/>
					<path d="M281.2,15.3c0,0,0.6-0.8,1.2-1.6c0.2-0.4,0.6-0.8,0.8-1c0.2-0.2,0.4-0.4,0.4-0.4s-0.4,0.4-0.8,0.8
						c-0.4,0.4-0.8,0.8-0.8,0.8L281.2,15.3z"/>
					<path d="M284,8.3c0,0,0.4,0,0.8,0c0.4,0,0.8,0,0.8,0l0.8-2.4C285.8,6.9,284.6,8.1,284,8.3z"/>
					<path d="M290.8,280.4l0.2,0.4c0.2-0.6,0.2-1.6,0.2-3.6L290.8,280.4z"/>
					<polygon points="288.6,223.3 288.6,224.3 289.6,222.3 					"/>
					<path d="M283.4,175.6c0.2,2,0.6,4.2,0.8,6.2C283.4,177.6,284.6,175,283.4,175.6z"/>
				</g>
			</g>
		</g>
	</g>
</g>
<path fill="none" stroke="#000000" stroke-width="1.9963" stroke-miterlimit="10" d="M21.3,302.7c0,0.2,0,0.2,0,0.4"/>
<g>
	<g>
		<g>
			<g>
				<g>
					<path d="M129.5,879.3c0.8,0,0.4-0.6,0.6-0.8C128.5,878.9,129.5,879.3,129.5,879.3z"/>
					<polygon points="115.7,882.3 115.9,882.1 114.1,882.9 					"/>
					<path d="M102.9,883.9c1.4,0.8,4.6-0.8,7-0.6l0.4,0.2l1-1C108.3,882.9,104.9,883.9,102.9,883.9z"/>
					<path d="M95.7,882.5c0.4,0.4-1.4,0.6,1.6,0c-0.2,0-0.2,0-0.2,0C96.7,882.3,96.3,882.5,95.7,882.5z"/>
					<path d="M96.9,882.3C98.3,882.1,96.1,882.1,96.9,882.3L96.9,882.3z"/>
					<path d="M90.8,883.3l1.8-0.6c-0.4-0.2-2,0-1.4-0.2C89.2,882.9,89.8,883.1,90.8,883.3z"/>
					<path d="M89.2,884.3l0.8-0.2C90,883.9,89.8,883.9,89.2,884.3z"/>
					<path d="M91.9,883.5l-2,0.6c0.2,0.2,0.4,0.4,0.8-0.2C90.8,884.1,91.2,883.9,91.9,883.5z"/>
					<path d="M93.1,883.5c1,0,2.4,0,0.6,0.6C97.1,883.7,96.5,882.9,93.1,883.5z"/>
					<path d="M102.3,884.9l1.4,0.2l1.2-0.4C104.3,884.9,102.1,884.7,102.3,884.9z"/>
					<path d="M79.6,884.1c0,0.2,0.6,0.4,0.8,0.8l1.4-0.4C81,884.5,79.8,884.5,79.6,884.1z"/>
					<path d="M80.4,884.9l-2,0.6C80.2,885.3,80.6,885.1,80.4,884.9z"/>
					<polygon points="89,885.5 92.1,884.3 88.4,885.5 					"/>
					<polygon points="72,885.1 73,884.5 71.2,885.3 					"/>
					<path d="M67,885.7c0.8-0.6-1.2-0.6-0.4-1c-1.4,0.2-2.4,0.6-3.4,1.2l0.4,9.8c0,0,0,0,0.2,0h-0.2l-0.4-9.6
						C64.4,885.7,65.6,885.7,67,885.7z"/>
					<path d="M65.6,895c-0.6,0-1.2,0.2-1.8,0.4C64.4,895.4,65,895.2,65.6,895z"/>
					<path d="M75,885.9c-0.2-0.2-0.4-0.4-1.6-0.4l0.8,0.6C74.6,885.9,74.8,885.9,75,885.9z"/>
					<path d="M74.4,885.9L74.4,885.9c-0.8,0-1.4,0.2-1.8,0.2C72.8,886.1,73.4,886.1,74.4,885.9z"/>
					<path d="M75.2,885.9H75C75.2,885.9,75.2,885.9,75.2,885.9z"/>
					<path d="M83.8,885.5c-1.2,0.4-3.6,1.2-1.2,1.4C83.4,886.5,82,886.3,83.8,885.5z"/>
					<path d="M76.4,886.5l2.2-0.2c0-0.2-0.4-0.4,0-0.6L76.4,886.5z"/>
					<polygon points="75.4,886.7 76.4,886.5 75.6,886.5 					"/>
					<path d="M65,886.9c-0.6,0.2-1.2,0.4-1.6,0.4l0.4,7c0.4,0,0.8,0,1.4,0c-0.4,0-0.8,0-1.4-0.2l-0.4-6.6c0.8,0,1.6-0.2,2.4-0.2
						C66,887.1,66.4,886.7,65,886.9z"/>
					<path d="M69.6,886.5h-0.2C69.6,886.5,69.6,886.5,69.6,886.5z"/>
					<path d="M79.2,893.2c0,0,0,0.2-0.2,0.2c0,0,0,0.2,0.2,0.2V893.2z"/>
					<path d="M66,887.3c0.8,0,1.4-0.2,2-0.4c-0.6,0.2-1.4,0.2-2.2,0.4C65.8,887.3,65.8,887.5,66,887.3z"/>
					<path d="M68.8,894.8c-0.4-0.2-1-0.2-1.6-0.4C67.6,894.6,68.6,895,68.8,894.8z"/>
					<path d="M69,886.3C69.2,886.3,69.2,886.3,69,886.3C68.8,886.3,69,886.3,69,886.3z"/>
					<path d="M69,886.3c-0.4,0.2-0.8,0.4-1.2,0.6c0.6-0.2,1-0.2,1.4-0.4C69.2,886.5,69.2,886.5,69,886.3z"/>
					<path d="M75,886.7c0.2,0.2,0.6,0.8,0.6,1.6c0.2,0.8,0.2,2,0,2.8c-0.2,0-0.4,0-0.6-0.2c-1.4,0.4,0.2,2,3.8,3.2
						c0.2-0.2,0.2-0.2,0.4-0.4c-0.2-0.2-0.4-0.6-1-3.8c-0.2,0.4-0.4,2.4-0.6,3.2c-1.2-0.2-1.6-0.4-0.8-0.6H77
						c-0.4-3.4,0.2-2.4,0.4-4c-0.4,0.6-0.6-0.6-1-1.8c-0.4-1.2-0.6-2.2-1.2-1.8l0.4,2.4C75.4,887.1,75,886.3,75,886.7z"/>
					<path d="M73.6,894.2h-1.4c1.6,0.2,2.8,0.4,5.4,0.8c1.2-0.2,1.8-0.2,2-0.4c-0.2-0.6-0.2-0.8-0.4-1.2v0.8L73,894L73.6,894.2z"/>
					<path d="M67.4,894.2c0.6-0.6,2.8-0.8,1.6-1.6c-2.6,0-1.8,0.4-3.4,0.8C69.6,893.2,64.4,893.8,67.4,894.2c-0.8,0-1.6,0.2-2.2,0.2
						c0.8,0,1.4,0.2,2.2,0.4l0,0l0,0l0,0c-0.2,0-0.2-0.2,0,0l0,0C67.2,894.2,67.2,894.2,67.4,894.2c1.2,0.2,0.2,0.2-0.2,0.2l0,0l0,0
						c0,0,1,0,2-0.2c0.4,0,1.4,0,2,0s1,0,1,0c-0.6,0-1.6,0-2.4-0.2C69,894,68.4,894.2,67.4,894.2z"/>
					<path d="M80.6,888.5L80.6,888.5C80.2,888.5,80.2,888.5,80.6,888.5z"/>
					<path d="M79,888.3c0.2-0.2,0.4-0.4,1.4-0.4c0.8,0,0,0.2,0,0.4c0.6-0.2,2-0.6,0.2-0.8l-0.2,0.2c-1.6,0-3.8-0.6-3.6-0.6
						C77.2,887.7,77.8,887.9,79,888.3z"/>
					<path d="M69.4,888.3l-3.4,0.6l1.8,0.4l-0.2-0.4C69.6,888.9,69,888.5,69.4,888.3z"/>
					<path d="M79.4,893l0.6,1.4c0,0-0.2-1-0.6-2c-0.2-1-0.6-2-0.6-2L79.4,893z"/>
					<path d="M79.2,885.7l0.6,0.4c0,0,0-0.4-0.2-1c0-0.2-0.2-0.6-0.2-0.6s0,0.2,0,0.4v0.4C79.2,885.7,79.2,885.7,79.2,885.7z"/>
					<path d="M95.9,880.1l-1,0.2C95.5,880.3,95.7,880.1,95.9,880.1z"/>
					<path d="M103.3,879.9l0.2-0.2C103.1,879.7,103.1,879.9,103.3,879.9z"/>
					<path d="M64.2,855.9c-0.6,1.2-1.8,2.4-1.2,2.4l0.6-0.2C64,857.1,64,856.5,64.2,855.9z"/>
					<path d="M91.9,885.3c-0.2,0-0.2,0-0.4,0c-0.2,0.2-0.6,0.6-0.8,0.8C91,885.7,91.6,885.5,91.9,885.3z"/>
					<path d="M92.1,882.5l2-0.2C93.7,882.3,93.1,882.3,92.1,882.5z"/>
					<path d="M81.6,849.3l-0.8-1C81,850.1,81.2,849.3,81.6,849.3z"/>
					<path d="M77,840.1c0.2-1.2,0.2-2.2,0.2-3.2C77,838.4,76.4,839.7,77,840.1z"/>
					<path d="M98.7,873.3c-0.6,0.2-0.8,0.2-0.8,0.4C98.5,873.7,98.7,873.5,98.7,873.3z"/>
					<path d="M77,833.2c0,0.2,0,0.4,0,0.6c0.2,0.8,0.4,1.8,0.4,3C77.4,835.8,77.6,834.6,77,833.2z"/>
					<path d="M106.7,812l-0.2-0.2C106.5,811.8,106.5,812,106.7,812z"/>
					<path d="M95.7,787.6c-0.4,0.2-1,0.6-1.6,0.8C94.5,788.4,94.9,788.2,95.7,787.6z"/>
					<path d="M78.8,867.7C79,868.5,79,867.7,78.8,867.7L78.8,867.7z"/>
					<path d="M76.6,872.3c0-0.2-0.2-0.4-0.4-0.4C76.4,871.9,76.4,872.1,76.6,872.3z"/>
					<path d="M72.4,824.2L72.4,824.2C72.4,824.4,72.4,824.4,72.4,824.2z"/>
					<path d="M78.6,868.9c0-0.4,0.2-0.8,0.2-1.2C78.8,868.1,78.6,868.3,78.6,868.9z"/>
					<path d="M79,868.7c0,0.4,0,0.6,0,0.8S79,869.7,79,868.7z"/>
					<path d="M78.8,866.3c0,0.6,0,1,0,1.6c0-0.2,0-0.2,0-0.2C78.8,867.3,78.8,866.9,78.8,866.3z"/>
					<path d="M108.9,859.9h0.2C109.9,859.1,109.5,859.3,108.9,859.9z"/>
					<path d="M61.2,880.1L61.2,880.1L61.2,880.1L61.2,880.1z"/>
					<path d="M60.6,883.1c-0.4-1.4,0-2.2,0.6-3c0,0-0.4,0-1,0.2s-1,0.2-1,0.2s0.4,0.6,0.6,1.4C60.2,882.5,60.6,883.1,60.6,883.1z"/>
					<path d="M80,870.9c0,0-0.4,1-0.6,2c-0.2,1-0.2,2-0.2,2c-0.4-1-0.4-2-0.4-3c0-1,0.2-1.8,0.4-2.4c0.2-1.2,0-1.2-0.8,1
						c0.4,0.2,0.4,1.4,0.4,2.8s0.2,3.2,1.4,4.8c2,3.4,6.4,3,7,2c0,0,0.6,0.2,1.2,0.2c0.6,0.2,1.2,0.2,1.2,0.2c-0.8,0-0.8,0-1.6,0
						c0.6,0.2,1.2,0.2,1.6,0.2c0.4,0,0.6,0,0.8,0c0.4,0,0.8-0.2,1.2-0.4c0.6-0.4,1.4-1,3.4-0.8c1.4,0.2,2.4,0.4,1.4,0.6
						c0,0,0.8-0.2,1.6-0.2c0.8-0.2,1.6-0.2,1.6-0.2c0.8,0,0.6,0.4-0.2,0.4l4.6-0.4l0,0c0.6-0.4,2.2-0.8,2.8-1.2
						c1.2,0.2-0.6,0.2-0.2,0.4c0,0,0.6-0.2,1.4-0.4c0.6-0.2,1.2-0.4,1.2-0.4c1.2,0.4-1,1.2-2.8,1.2c2.6,1.8,2.2-0.6,7.4,0l-2.4,0.4
						c1.6,1,3.6,0.4,6.4,0.8c-0.6-0.2-5.8-1.2-3-2c0.8,0,1.8,0,3.4-0.6c0,0.6,1.6,0.4,3.4,0v1c2-0.6,1.8-1,2.8-1.6
						c1.8-0.2,2.4,0.2,3,0.6c-0.8-2.8-1.6-5.6-2.2-8.2c-0.2,0-0.4-0.2-0.4-0.2c-3.4,1,2.6,0.2-1.2,1.8c-2.8,0.6-4.6,1.8-7.8,3.4
						c-2,0.4,0.2-0.6-0.6-0.6l-1.4,1.4c-0.4,0.2-0.4-0.2-0.4-0.2c-1.4,0.8,0.2,0.8-2,2c-0.2,0.6-1.4,0.6-3,0.8
						c-1.6,0-3.4,0.2-4.6,1.2c-0.8,0,0.2-0.6-0.2-0.8c-3.6,1.8-3.2,1.6-6,3.4l-2.8,0.2c2.2,0-0.2,1.6-2.2,3c0.8,0.2,1.6,0.2,2,0.2
						c0,0-0.8,0.4-1.8,0.8c-0.8,0.4-1.8,0.6-1.8,0.6c-0.4,0-0.2-0.4,0.4-1c-0.2,0.2-0.4,0.2-0.6,0.4c-1.4,0-0.8-0.6,0-1.4
						c0.4,0,1,0.2,1.4,0.2c0.8-0.8,1.4-1.6,1.2-2c-0.2,0.2-0.6,0.4-1.2,0.6c0.2-0.2,0.2-0.4,0.2-0.4c-0.2,0-0.4,0.2-1,0.6l-1.2-0.8
						v0.4l-4.8,0.4c-3.2,1.8-5.8,4-11.2,5.6c1.2-1,0-1.2,0-2.2c1.8,0.6,4.2-1.4,7-1.8c-1.6,0.2-1.2-0.2-0.8-0.4l-4.8,2
						c0-0.8-1.2-0.4-2.6-0.4c1.4,1.2-3.6,1.6-5.6,2.4c-0.2-0.4,0.2-1,2.8-1.4c-3-0.6-3.4,2.2-6.2,1.8c0.6-0.2,1,0,1.2-0.4
						c-0.4,0.2-0.8,0.4-1.4,0.4c-0.4,0-0.8,0.2-1,0.2c-0.6,0-1-0.2-0.6-0.4h0.4c-0.6,0-1.4,0.2-2.2,0.4h-0.2v-0.2l-0.2-0.6
						c-0.2-0.4-0.2-0.8-0.2-1.2c0-0.8-0.2-1.6-0.2-2.2c0-0.8-0.2-1.6-0.4-1.6c0.2,0,1.4,0.8,1.6,1.2c0,0-0.2-0.4-0.4-1.2
						c-0.2-0.6-0.4-1.8-0.6-2.8c-0.2-1-0.2-2-0.4-2.8c0-0.8,0-1.4,0-1.4c0.6,1,4-0.2,3.2,3.2c0.4-0.8,1.2-1.8,1.8-3.8
						c-0.4,0.4-2.2,0.8-1.8,0c2.2-1.8,1.4-1.2,3.6-3.6c-0.6,0.8-1.6-1-0.8-2.4c0.2,0.4,1.6,0.6,1.4,1.2c0,0,0-1.2,0.2-2.2
						c0-1.2,0.2-2.2,0.2-2.2c-0.2,1,1.2,0.8,2,0c-0.4,0.2,1.6-3.4,1.6-4.6c0,0-0.2,0.4-0.4,0.8c-0.2,0.4-0.4,0.8-0.4,0.8
						c0.4-1.2,0.6-2,0.6-2.8s-0.2-1.4-0.2-2c-0.2-1.2-0.6-2.4-0.4-4.6c0.2,0.6,2,1.6,2.4-0.8c-0.2-0.2-0.4-0.8-0.8-1.4
						c-0.4-0.6-0.8-1.4-1.4-2c-0.8-1.6-1.8-3.4-2.2-5.4l0.4-0.8l-0.6-3c1.4,1.8,4.2,7,5,10.2c0.4-1.8,0.6-0.4,0.6-3.2
						c0.4-0.8,0.6,1.4,0.6,2.2c0,0,0-0.4,0-1s0-1.4,0-2.2s0-1.6,0-2s0-1,0-1c-1,0.2-1.2-4.4-2-4.2c0,0,0.4,1.6,0.6,3.2
						c0.2,1.6,0.6,3.2,0.6,3.2c-1,0.2-2.8-3.8-2.8-7.8c0.4-1,1.8,0.8,2,0.6c-0.4-0.6-0.8-3.8-0.4-4.2l0.6,1.8c0.2-1.2-0.2-2-0.4-3
						c-0.2-1-0.4-2,0.2-3.4c0-1,1.6-2.4,1-2.8c-1.2,1.2-4.8,1.4-5.4,0.2c0,0,0.2-0.4,0.4-1c0.2-0.4,0.4-1.2,0.8-1.8
						c0.2-0.4,0.2-0.6,0.4-1c0.2-0.4,0.4-0.6,0.6-0.8c0.4-0.6,0.6-1,0.8-1.2c0.6-0.6,1,0.2,1.4,0.8c0.4,0.8,0.6,1.4,1.2,0.8
						c-0.2-0.2-0.4-1-0.4-1.4c0.6-0.8,0.6,0.6,1.2-1.2c-0.8-0.8,2-3.6-0.4-1.2c0.4-1.2,0.8-1.6,1.2-2.2c-1-0.2-2-0.4-3.2-0.8
						c0,0.4,0,1.2,0,2c0.6-0.8,2.4,2,2.8,4.2c-0.2-0.2-0.6,0.4-0.6,0.6c0.2,4.4,0,6.8,0.2,10.8c-0.2,0.4-0.4,2.4-0.8,1.6
						c0.2,0.6,0.6,1.2,0.6,2.4c-0.6,2.4-0.4-2.8-1.2-0.8c0.6,0.2,1,3.2,1.4,5c0.8-0.6-0.2-4.2-0.6-6c1.2,0,2.6,3,3.6,7.2
						c0.6,3.4-0.6,1.6-0.4,2.2c0.2,3.2,0.8,4.6,1.2,5.8c0.6,1.2,1,2.2,0.6,5c-0.6,2.2-1.6,0.2-2,0.6c-0.4-2.8,0.4-4.2,0.2-6.2
						l-0.2,2.4c-0.4-0.8-0.6-2.6-0.4-3.8c-0.4,1.8,0.4,10.8-0.2,15.8c0.2,0.8,0.6,2.4,0.8,1.6l-0.2-1.6c0.6-1.4,1,2.8,1.2,0.8
						c0.4,2,1.2,4.4,1,7.4l-0.8,0.6c0.2,0,0.4-2,0.2-2.8c0.4,1.2-1,4.6,0.2,5.8l0.6-2c0.4,2,1.6,4.6,1.4,7.4
						c0.8-1.2-0.2-0.6,0.8-2.4c-1.2,1.6-0.2-6.6-1.4-4c1.2-2,0.4-3.4,1.4-5.8c-0.2,0-0.6,0.8-0.4-1.4l-0.2-0.4c0,0,0,0,0-0.2
						c0,0,0,0,0,0.2l0,0c-0.2,0.6-0.2,1-0.4,1.2c-0.6-1.2-0.8-4.6-1.2-5.8c0-1.4,0.4,0.6,0.6-0.2l-0.6-1.8c0.6-0.2,1-3.6,1.4-0.4
						v-2.8c0.4-1.6,0.4-4,0-5.2c0-1.4-1-3.2-0.4-2.2l-0.6-4.4h0.2c-0.2-4.2-1.6-8.8-0.8-13.8c-0.2-1.4-0.6-2.8-0.6-5.4l0.6-0.4
						c-0.4-1.8,0.2-5.6-0.4-6.4c0.6-1,0.6-2.8,0.4-5L77.8,801l-7.6,13c-1.6,2.8-2.6,6-3.2,8l0.6,0.4c-0.4,1.2-0.4,2.4-0.6,3.8
						c0,1.2-0.2,2.6,0,4.2l0.6-0.2c0.4,2.6-0.6,6.4-0.4,10.2c-0.2-0.2-0.2-1.2,0-2c-1.4,4.6,1.4,9.6,0.2,13.4c0.2,1,0,1.6-0.2,2.2
						v-0.2c0,0,0,0.2,0,0.4c-0.2,0.4-0.4,0.8-0.6,1.2c0.2-0.4,0.4-0.6,0.6-1c-0.2,0.6-0.2,1.8-0.2,2.8l-0.8,0.2v0.2
						c-0.4,0.8,0.2,0.8,0.8,0.4c0,0.6,0,1.2,0,1.6c-0.6,0.2-0.8,1-1,1.6c-0.2,0.8-0.4,1.6-1.2,1.8c0.2,0.4-0.4,1.8-0.8,3.2
						c-0.4,1.4-0.8,2.8-0.4,3.4c-0.2,0-0.4,0.2-0.2-0.4c-0.8,1.2-1.4,2.2-1.8,3.4h-1c0,0,0,0.8-0.2,1.6c0,0.8,0,1.6,0,1.6
						c-1.2,1.4-1.8,2-1.8,0c-0.4,2.2-0.6,3.2-0.8,3.8c-0.2,0.8-0.4,1.6-0.2,3.6l-0.4-0.2c0,0.4,0,0.6-0.2,1.2c0,0.6,0,1.2,0,1.6
						c0,1,0.2,1.8-0.2,2.4c-0.2,0.4-0.2,1.2-0.2,2c0,0.4,0,0.8,0,1.4c0,0.4,0.2,1,0.2,1.6c0,0.2,0,0.6,0.2,0.8c0,0.2,0,0.8,0.4,0.6
						c0.6,0,1.2,0,1.8-0.2s1.2,0,1.8-0.2c0.6,0,1.4-0.2,2-0.4c1.2-0.2,2.6-0.4,4-0.6c1-0.2,2.2-0.4,3.2-0.4c2.2-0.2,4.2-0.6,6-0.6
						c-0.8-0.6,0-0.6,1.2-0.6s2.4,0,2.4-0.6c0.4,0.2,1.6,0.2,0.4,0.8c3.6-1.2,5.6-0.6,7.8-2.4c0.4,0.2-0.6,0.8-0.2,0.8
						c0.2-0.2,1.2-0.6,1.6-0.4c0.4,0.2-0.4,0.4-1,0.8c3.8-1,3.8-2.2,3.8-3.4c2,0,3-0.2,4-1.4c0.8,0.2,2,0.2-0.4,1
						c1.4-0.4,8-1.8,7.8-2.8c0.4,0.2,1.8-0.4,2.2-0.6c2.8-0.8,3.2-0.8,6-1.8h-0.8c0.8-1.4,2.2-1,4.4-2v0.2c5.4-1.2,2-1.2,7.4-2.2
						l-0.4-0.6c0-1.6,4.4-0.8,7.2-2.2l14.4-7.2l-15.2,3.8c-0.2,0-0.2,0-0.4,0h0.4l13.4,2.8l-12.6,0.2h-0.8c0.2-0.2,0.4-0.2,0.6-0.2
						l10.6-2.6l-11.4,0.4c-1.8,0-4.4-1.6-5.8-1.4c-0.4,0,0.6-0.2,1-0.4c-4.4-0.2-0.4,1-3.6,1.6c-0.6-0.4,0.6-1.4-1.6-1.2
						c-1.2-0.2-6.2,2.2-9.2,1.6c0.6,0.4,1.4,0.6-0.2,1c-2.4,0.2-6.4-1.2-8.4,0.2c-0.2,0-0.4-0.2-0.4-0.2c-1.8,0.4-5.8,0.6-6.8,1.2
						c-0.2-0.2-0.6-0.4-1-0.6c-0.2,0-0.4-0.2-0.6-0.2c-0.2,0-0.2,0-0.4,0c-0.6,0-1.4,0.2-2.2,0.2c-0.4,0-0.8-0.2-1-0.4
						s-0.2-0.6-0.2-0.8c0-0.6,0.4-1,1-1.2c0,0,0.2-0.6,0.2-1.4c0.2-0.6,0.4-1.4,0.4-2s0.2-0.8,0.2-0.8l0.2,0.2c0.4-1.8,0.4-3,0.4-4
						s-0.2-1.6-0.4-2.2c0.2-0.8,0.4-0.2,0.4-0.2c0.8-5.4,0.6-6-0.6-10.4l0.6-0.4c-0.2-0.6-0.2-2.2-0.2-4.6l-0.6-19.8l-4.6,20
						c-0.6,2.4-1.2,5.4-1,8c0,0-0.2-0.2-0.2-0.6c0,2.8-0.8,6.2-1.6,9.2c0,0.2,0,0.4-0.2,0.8c0,0.2,0,0.6-0.2,0.8
						c0,0.6-0.2,1.2-0.2,1.6c-0.2,1.2-0.2,2-0.4,3c-0.2,1.8,0,2.8,0.6,3c0,0,0,1.2,0,2.2c0,1,0,2,0,2c0.6-3.4,0.8-3.4,1.2-3.2
						c0.2,0.2,0.6,0.6,1-0.8c0,0.8-0.4,2.4-0.8,3.6c-0.4,1.2-0.8,2-0.6,0.8l0.2-0.6c-0.8,0.6-1.2,2.8-1.6,5.2c0,0.4,0,0.2,0,0.2
						l0.2-0.2c0.2-0.2,0.2,0,0.2,0s0,0.2,0,0.4s-0.2,0.6-0.4,1l0.2,0.6c0,0.4,0.2,1,0.2,1.6l1-1.4l0.8-1.2l1.8-2.4
						c0.4-0.4,0.6-0.6,0.8-1l0.8-1l0.8-1c0.2-0.4,0.4-0.6,0.6-0.8l1.2-1.2l0.6-0.6l0.6-0.4c0.6-0.4,1.4-1,2-1.4
						c1.6-0.8,2.2-1,3.4-1.4c1-0.4,2-0.6,3-1c4-1.2,8.2-2.4,12.2-4l-1.4-0.6l3-1.2c0.8-0.2,1.4,0.4-0.8,1.2c1.4,0.2,3.4-2,3.2-2.2
						c4.2-1.6-1,1.8,0.2,1.4l1.6-0.8h-0.4c1.2-1.2,1.2-1.6,3.6-2.8c1.6-0.8,1.2,0,1.8-0.2c0,0,0.2,0,1-0.6l3.4-2.4l-1.8,0.4
						c0.6-0.8,1.4-1.4,1.8-1.6c0.4-0.4,0.2-0.4-0.8-0.2c0.8-0.2,1.8-0.8,3.2-2c1.2-1,2.6-2.6,3.6-4.2c2.2-3.2,3.4-6.6,4-7.4
						c0.2-2.6,0.8-5.2,1-8.4c0,0.4-0.4,0.6-0.6,0.6c-0.2-0.2-0.4-0.6-0.4-2c1,0.4,1.2-0.8,1-2.6c-0.2-1.8-0.8-3.8-0.6-5.2
						c0,0.6-0.2,0.4-0.6-0.2s-0.8-1.4-1.4-2.2c-1.2-1.6-2.4-2.8-1.8-1.2c-1.4-2,0.4-0.6-0.4-2.2c-2.2-1.8-4.6-3.8-7.2-5.6
						c-2.6-1.8-5.6-3.4-8.6-4.6c-0.2,0.2,0.6,1-0.8,0.8l-2.6-2.4c-1.2-0.4-1.6,1-3.4-0.6c0.2,0.4,0.6,0.8-0.2,0.6
						c-4.4-2.2-9-4.4-12.8-7.4c-2-1.4-3.6-3.2-4.8-5.2c-0.4-0.6-0.8-1.4-0.8-2.2c0-0.4-0.2-0.6-0.2-1.2v-0.6v-0.2h0.4l2-0.2h0.8
						l1.8-0.4c-1.8,0.2-0.8-0.2,0.6-0.8c-0.8,0.2-0.2-0.6-0.4-0.8c0,0,0.4,0,0.8-0.2s1.2-0.4,1.8-0.4c0.6-0.2,1.4-0.4,1.8-0.6
						c0.4-0.2,0.8-0.2,0.8-0.2c0.2-0.6,1.4-1.6,2.6-2.2c1.2-0.8,2.2-1.8,2.2-2.2c0,0-0.2,0.4-0.6,0.6c-0.4,0.2-0.6,0.6-0.6,0.6
						c0.6-1.2-0.4-1.2-1.6-1s-2.6,0.2-2.8-0.4c-0.4,0.6-0.8,1-1.6,1.4c-0.6,0.2-1.6,0.6-2.4,0.6c-0.8,0.2-1.8,0.4-2.6,0.6
						c-0.4,0.2-0.8,0.4-1.4,0.6h-0.2l-0.2,0.2l-0.4,0.2c-0.4,0.2-0.6,0.4-0.8,0.4c-1.4,0,0.8-0.6,0-0.8c-0.6,0.4-1.2,0.8-1.8,1
						c-0.8,0.2-1.8,0.4-3.2,0.6l-0.2,0.2l-0.2,0.2v0.2l-0.2-0.4c0.2,1,0.4,2.2,0.4,3c0,0.4,0.2,0.8,0.2,1.4c0,0.2,0,0.4,0.2,0.6
						c0,0.2,0.2,0.4,0.2,0.6c0.2,0.8,0.4,1.6,0.8,2.4c0.4,0.8,0.8,1.6,1.2,2.2c1.4,2.4,3.2,4.6,6.2,7.2v-0.8c1.2,1.2,1.4,1.4,2,2
						c1.2,0,0.2-0.6-0.8-1.2c-1-0.6-1.8-1.6-0.8-1.4c0.4,1.2,2.8,3,5.4,4.4s4.8,2.4,5.2,3.6c2.4,1-0.4-1,2,0l0.4,0.6l0.8-0.2
						c1.4,0.6,2,1.4,2,1.8c-0.4-0.2-1-0.2-1.4-0.4c1.8,1.2,5.4,2,6,2.4l-2-1.2c3,1,6.2,2.4,9.2,4.2c2.8,1.6,5.4,3.6,7.4,5.6v-0.6
						c1.6,1.6,1.8,2.4,2.2,3.2c0.2,0.4,0.2,0.8,0.4,1.6c0.2,0.6,0.4,1.4,0.6,2.6l-0.2-0.2c0.6,0.8,0.8,2.2,0.8,3.4
						c-0.2-0.6-0.4,0-0.6,0.4c-0.2,0.4-0.4,1-0.6,0.2c0.2,1.2,0.2,1.8,0.2,2.4c0,0.4,0,0.8,0.2,1c0,0.4,0.4,0.6,0.4,2.4l-0.8,0.6
						c0,1.2,0.4,1.4-0.6,3.8c0.2-1-0.2-0.8-0.4-0.6c-0.4,0.2-0.6,0.4-0.4-0.8c-1.6,2-2.4,3.6-3.2,5c-0.4,0.6-0.8,1.4-1.2,1.8
						c-0.4,0.4-1,0.8-1.8,0.8c-0.4,1.4,0.6,0.8,1.6,0c0.4-0.4,0.8-1,1.2-1.2c0.2-0.4,0.4-0.4,0.2-0.2c1.2-0.6-0.4,2.4-1.8,3.4
						c-0.6,0.6-1.4,0.8-2.6,1c-1.2,0.2-2.4,0.8-4.2,1.8c0.4-0.2,0.4-0.4,0.6-0.6c-0.8,0.2-1.4,0.8-2,1.4c-0.6,0.4-1.4,1-2.4,1.2
						c-0.6,1.4-2.4,1.2-2.2,2.2c0,0,0.8-0.4,1.8-1c0.8-0.6,1.6-1,1.6-1c-0.4,0.4-0.8,0.8-1.4,1.2c-0.4,0.4-0.8,0.8-1.4,1.2
						c-0.6,0.4-1.2,0.8-1.8,1.2c-0.6,0.4-1.6,0.6-2.4,0.8c0.2-0.4,1.2-1,1.8-1.6c-1.2,0.2-1.8,1-3,1.2c0-0.6,1-1.2,2.4-1.8
						c1.4-0.6,2.8-1.4,3.8-2.2c-1.2,0-3.8,2.6-3.2,1c-0.4,1-1.6,1.4-2.6,1.8c-1.2,0.4-2.4,0.6-3.8,1.8v-0.6c-0.4,0.2-1.2,0.8-2,1.2
						l1.2-1.4c-2,1.6-4.6,0.8-6.8,2.2c4.8-1.8,1.4,0.4,3.6,0.2c-2.8,1.4-3.8,1.4-4.8,1.2c-0.6,0-1.2-0.2-2,0c-0.4,0-1,0.2-1.6,0.4
						c-0.8,0.4-0.8,0.2-1,0.4h0.2h0.2c0.2,0,0.4,0,0.4-0.2c0.6-0.2,1,0,0.4,0.4c-0.2,0-0.4,0.2-0.6,0.2h-0.2c-0.2,0-0.2,0-0.4,0
						s-0.4,0-0.4-0.2c-0.4,0.4-0.6,0.6-0.4,0.8c0,0.2,0.4,0.2,0,0.8c-0.2-0.6-0.6,0.4-1.4,1.4c-0.2,0.2-0.4,0.6-0.6,0.8l0.6-1.2
						c-0.6,0.4-1,1.2-1.6,2.2c-0.2,0.4-0.4,0.6-0.8,1.4c0,0,0,0,0,0.2l0,0v-0.2c0-0.2,0-0.6,0.2-1c0,0,0.2-0.2,0.6-0.4
						c0.2-0.2,0.6-0.6,0.6-0.6l-0.2-0.6c0,0,0.2-0.4,0.4-0.6c0.2-0.4,0.4-0.6,0.4-0.6c-0.4,0.2-0.4,0-0.4-0.4s0.2-0.8,0.4-1.4
						c-0.2,0.4-0.6,0.6-0.8,0.6c-0.2,0-0.4-0.4-0.4-1c0.6-1,0.6,0.2,0.8-1.4c0.2,0.2,0.4,0.4,0.6,0.4c0,0.2,0,0.4-0.4,0.8
						c0.2,0,0.4,0,0.6,0c0.2-0.4,0.4-0.6,0.4-1s0-0.4,0-1.2c0,0.2,0,0.4-0.2,0.6c0,0,0,0.2-0.2,0.2l0,0l0,0l0,0c0,0,0,0,0-0.2
						c0-0.4,0-1-0.2-1.6c0-1.2-0.2-2.4-0.2-2.4c0.4-0.6,0.4,0,0.6,0.4c0-1-0.2-1.6,0-3c0.6,0.4,1.2,0.4,1.2,2.4v-4.6
						c0.2-0.2,1-2.2,1.2-1.6c0.4-1.8,0.2-4,0.2-6.4c-2.6,0-5.2,0-8,0c0.2,0.8,0.4,1.8,0.4,2.8c0.2,0.2,0.2,0.4,0.4,1.2
						c0,0.8,0,1.4,0,2.2c0,0.6-0.2,1.4-0.2,2.2c0,0.6,0,1.4,0,2.2s0.2,1.6,0.2,2.4l-1.2,1.8c0,2.6,1.6-2.4,1.4,2
						c0,1.6-0.4,1.8-0.6,1.8c-0.2,0-0.6-0.2-0.8,0.2c0,0.8,0.4,2,0.2,3.2c0,0.2,0,0.4,0,0.6c0,0.2,0,0.6-0.2,0.8
						c-0.2,0.6-0.2,1.2-0.4,1.6c-0.2,1.2-0.4,2.2-0.4,3.4C79.6,873.9,79.8,872.5,80,870.9z M114.3,878.7c-0.6,0.2-2,0.8-2.6,0.4
						C112.3,878.3,113.1,878.5,114.3,878.7z M86.6,885.1c0.4-0.4,1.2-0.4,2.2-0.4C88.2,884.9,87.4,885.1,86.6,885.1z M78,857.3
						C78,857.3,78,857.1,78,857.3C78.2,855.7,78.2,856.3,78,857.3z M77.8,860.5c0.2,0.4,0.2,0.2,0.2,0.2c-0.2-0.2-0.2-0.8-0.2-1.8
						C77.8,859.1,77.6,859.5,77.8,860.5z M120.1,859.1l-0.6,0.2C120.5,858.3,120.3,858.7,120.1,859.1z"/>
					<path d="M92.1,882.7c0.2,0,0.2,0.2,0.4,0.2C92.7,882.9,92.7,882.7,92.1,882.7z"/>
					<path d="M81.8,849.7L81.8,849.7C81.6,849.5,81.6,849.5,81.8,849.7L81.8,849.7z"/>
					<path d="M72.4,823c-0.2,0.6-0.4,0.8-0.6,1C72,824.2,72.2,824,72.4,823z"/>
					<path d="M79.6,877.3l-0.2-2c0,1,0,1.4-0.2,1.8C79.2,877.1,79.4,876.7,79.6,877.3z"/>
					<path d="M71.6,890.9c-0.2,0-0.6,0-0.8,0l0.2,0.4C72.2,891.3,72.8,891.1,71.6,890.9z"/>
					<path d="M77.2,879.3c-0.6,0.2-0.4,1.4-0.2,2.8v-0.2C77.8,882.3,77.6,880.7,77.2,879.3z"/>
					<path d="M77,882.5c0,0.4,0,0.8,0,1.4C77.4,883.9,77.2,883.3,77,882.5z"/>
					<path d="M78.4,864.5c-0.2,0.6,0.8,0.4,0.6,0.8C79.6,866.1,77.8,860.7,78.4,864.5z"/>
					<polygon points="75.2,880.5 76,879.9 75.4,879.1 					"/>
					<path d="M75.6,869.1l-0.2,2.2c0.2,0,0.2,0.2,0.2,0.6C75.6,870.7,75.8,869.1,75.6,869.1z"/>
					<path d="M75.6,872.1c0,0.8,0,1.4,0.2,1.8C75.8,873.5,75.8,872.7,75.6,872.1z"/>
					<polygon points="75,877.3 75.2,876.7 75.2,875.1 					"/>
					<path d="M74.6,844.7l-0.4-2.4c-0.2-0.2-0.4,0.4-0.2,1.4C74.2,844.3,74.4,845.1,74.6,844.7z"/>
					<path d="M73,852.3c0.2-0.6,0.2-0.8,0.4-1.2h-0.8L73,852.3z"/>
					<path d="M72.4,845.1c-0.2-0.2-1-3.6-0.6-0.4C72,844.9,72.4,847.3,72.4,845.1z"/>
					<polygon points="69.2,826 69.2,825.4 67.8,825.2 					"/>
					<path d="M71.2,859.5c1-3.2-0.8-0.8,0.2-3.8c-0.2-0.8-0.8,2.2-0.8,1.4c0,1,0,1.8,0,2.2C70.4,859.9,70.6,859.9,71.2,859.5z"/>
					<path d="M70.6,857.3c0-0.4,0-0.6,0-1C70.4,856.9,70.4,857.1,70.6,857.3z"/>
					<polygon points="102.7,784.7 104.5,783.5 103.1,784.1 					"/>
					<path d="M105.1,781.3l1,0.4l0.4-1.4C106.1,780.5,105.5,781.1,105.1,781.3z"/>
					<path d="M119.9,879.9l0.2-0.2c-0.4-0.2-0.8-0.2-1.6,0L119.9,879.9z"/>
					<polygon points="93.5,880.9 94.1,881.1 93.1,880.1 					"/>
					<path d="M79.8,863.7c-0.2,0.8-0.2,1.8-0.4,2.6C79.8,864.5,80.8,863.7,79.8,863.7z"/>
				</g>
			</g>
		</g>
	</g>
</g>
<g>
	<g>
		<path fill="#FFFFFF" stroke="#231F20" stroke-width="1.9541" stroke-miterlimit="10" d="M231.4,604c0,0-0.5-1.7-2.4-2.4
			c-2-0.6-6.7,1.6-7.9,2.4c-1.2,0.7-6.2,4.2-6.9,5.9c-0.7,1.6-1.2,4.8-0.7,5.8c0.4,1.1,1.3,3.4,1,4.6s-1.9,0.7-2.8,0.2
			s-3.2-2.9-4.5-1.9s-3.5,5.4-3.6,6.8c-0.1,1.4,0,7.6,0.8,8.8c0.8,1.2,2.1,3,3.1,2s2,1.3,3.3,1.2s14.1-6.1,16-7.9
			c0.2-0.2,1.5-1.9,1.4-2.8c0-1-1.3,0.5-1.2,0.4c0.4-0.7-1.1,1.2-1.2,1.4c-0.2,0.2-2.4,1.9-4,2.7c-1.7,0.7-9.4,5.9-10.2,5.1
			s-0.9-1.9-0.4-2.8c0.5-0.9,8.5-11.6,10-12.7c1.5-1.1,11.5-13.2,20.4-11.9c0,0,0.2-0.1,1.4,0.4s0.4,1.8,1.5,2
			c1.1,0.3,2.8-0.9,1.6-1.7c-1.2-0.8-2.8-3.5-4-3.9C241.2,605.4,239.5,603.5,231.4,604z"/>
		
			<rect x="220.2" y="611" transform="matrix(0.7183 -0.6957 0.6957 0.7183 -363.4518 327.9608)" fill="#FFFFFF" stroke="#231F20" stroke-width="1.1725" stroke-miterlimit="10" width="6.1" height="3.6"/>
		<path fill="#FFFFFF" stroke="#231F20" stroke-width="1.5633" stroke-miterlimit="10" d="M243.5,607.4c-0.1,0.1-7.1-1-9.2-0.2
			s-6.5,4.5-7.2,5.3c-0.8,0.9-3.4-3-3.4-3s5.1-5.4,7.7-5.1s7.9-0.1,9.8,1.1C243.1,606.7,243.5,607.4,243.5,607.4z"/>
		<circle fill="#231F20" cx="227.1" cy="609.4" r="1.2"/>
		
			<rect x="221.9" y="612.3" transform="matrix(0.709 -0.7052 0.7052 0.709 -368.1341 335.293)" fill="#FFFFFF" stroke="#231F20" stroke-width="0.3908" stroke-miterlimit="10" width="0.7" height="2.8"/>
		
			<rect x="222.9" y="612.3" transform="matrix(0.709 -0.7052 0.7052 0.709 -367.5003 335.9123)" fill="#FFFFFF" stroke="#231F20" stroke-width="0.3908" stroke-miterlimit="10" width="0.7" height="2"/>
		<circle fill="#FFFFFF" cx="227" cy="609.4" r="0.3"/>
		<line fill="none" stroke="#231F20" stroke-width="0.7816" stroke-miterlimit="10" x1="209.6" y1="632" x2="208.8" y2="623"/>
		<path fill="none" stroke="#231F20" stroke-width="0.77" stroke-miterlimit="10" d="M230,604.5c0,0-0.6-1.3-2.7-1.4
			c-2.1-0.1-6,2.6-8.7,4.2c-2.7,1.6-3.5,3.2-3.7,5c-0.1,1.8,0.4,3,0.8,4.6c0.4,1.6,0.1,3.1-0.4,4c-0.5,0.9-2.7,1.7-3.9,1.1
			c-1.2-0.6-2-2.4-3-2.2c-1.1,0.3-2.2,2.5-2.5,4.4c-0.3,1.9-1.9,4.2-1.6,5.1c0.2,0.9,0.1,3.7,1.6,4.8c1.5,1.1,2.2,0.7,2.8,0.5
			c0.7-0.2,12.5-18.8,23.2-25.1c0,0,0.3-1.2,0.2-1.2"/>
	</g>
	<path fill="none" stroke="#969590" stroke-miterlimit="10" d="M233,591.7c3.4-14,8.8-27.6,15.9-40.1"/>
	<path fill="none" stroke="#969590" stroke-miterlimit="10" d="M222.1,588.7c0.5-4.3,0.2-8.8-0.8-13"/>
	<path fill="none" stroke="#969590" stroke-miterlimit="10" d="M214.1,600.7c-2.6-6.5-6.8-12.4-12.1-17"/>
</g>
</svg>
