<?xml version="1.0" encoding="utf-8"?>
<!-- Generator: Adobe Illustrator 17.1.0, SVG Export Plug-In . SVG Version: 6.00 Build 0)  -->
<!DOCTYPE svg PUBLIC "-//W3C//DTD SVG 1.1//EN" "http://www.w3.org/Graphics/SVG/1.1/DTD/svg11.dtd">
<svg version="1.1" id="Layer_4" xmlns="http://www.w3.org/2000/svg" xmlns:xlink="http://www.w3.org/1999/xlink" x="0px" y="0px"
	 viewBox="0 0 249.804 111.786" enable-background="new 0 0 249.804 111.786" xml:space="preserve">
<path fill="#FFFFFF" d="M192.327,35.417c0,0-2.587-0.398-2.587-4.576s0.796-16.117,0-18.903s-3.979-9.153-5.77-10.148
	S177.603,0,177.603,0s0.796,3.383,0.995,5.173s-0.995,7.362-0.995,8.357s-8.158-4.377-8.954-5.372s-5.372-3.781-5.372-3.781
	s-1.393-0.796-1.194,1.791s1.393,15.719,4.576,18.505s10.944,5.77,11.342,9.75s1.393,5.372,1.592,7.959s2.388,5.77,0.796,8.158
	c-1.592,2.388-3.383,2.388-5.372,3.979c-1.99,1.592-9.153,5.77-15.918,8.954s-22.285,6.765-31.239,4.576s-17.709,1.592-29.647-6.765
	s-5.969-5.77-12.535-6.765c-6.566-0.995-6.765-0.597-8.954-2.587c-2.189-1.99-8.755-5.77-10.745-0.398s1.393,10.347,0,12.137
	c-1.393,1.791,2.587,2.54,1.592,5.05c-0.995,2.511-2.236,9.475-2.236,9.475s-2.937-4.377-4.529-6.765s-5.372-6.367-6.566-4.576
	s-3.582,4.377-3.582,4.377s-0.796-3.582-2.587-5.969c-1.791-2.388-8.357-2.388-14.923,1.791s-6.367,6.381-13.132,5.777
	s-6.765-0.405-8.158,2.182s-2.786,1.592-5.571,3.184c-2.786,1.592-1.99,4.576-4.775,6.765s-1.791,3.979,3.582,2.786
	s11.143-3.582,17.51-6.168s15.719-7.163,17.709-4.576c1.99,2.587,4.775,2.388,3.582,6.964s-1.99,4.576-5.372,7.163
	c-3.383,2.587-4.178,5.571-4.178,8.556s-0.995,3.582-2.189,6.566c-1.194,2.985-1.99,5.969,1.592,4.576
	c3.582-1.393,12.336-5.372,14.724-12.734c2.388-7.362,4.775-9.75,5.969-10.148s0,0.796,3.383,5.372
	c3.383,4.576,8.556,10.148,11.342,9.949s0.597,2.985,7.362,5.372c6.765,2.388,8.556,5.173,14.127,0.995
	c5.571-4.178,7.959-2.985,11.342-3.184c3.383-0.199,5.77,2.985,20.693,4.178s49.545-1.99,60.886-8.755
	c11.342-6.765,12.535-5.969,23.081-9.153c10.546-3.184,11.938-5.571,16.515-2.388c4.576,3.184,11.58,4.405,14.962,3.809
	c1.853-0.327,2.322-3.496,4.592-2.478c3.551,1.592,7.081-3.889,7.081-3.889s-3.551-5.92-13.304-3.212
	c-2.143,0.595-6.964-0.398-8.556-0.995s7.091-1.629,8.484-1.629s7.805-0.084,4.091-5.041c-2.581-3.445-7.202-1.885-10.386-2.283
	s-11.541,1.207-19.5-1.784c-7.959-2.991-4.576-1.798-4.576-1.798s-1.194-2.189-3.582-3.582s0.597-1.194,5.173-3.781
	c4.576-2.587,6.765-1.791,7.76-4.576c0.995-2.786,1.99-3.619,2.587-3.202s-0.199-1.772-1.194-2.767
	c-0.995-0.995-6.168-9.949-8.954-11.342c-2.786-1.393-5.173-4.178-6.367-4.775S194.175,36.842,192.327,35.417z"/>
</svg>
